<?xml version="1.0" standalone="no"?>
<!DOCTYPE svg PUBLIC "-//W3C//DTD SVG 1.1//EN" "http://www.w3.org/Graphics/SVG/1.1/DTD/svg11.dtd" >
<svg>
<metadata>
Created by FontForge 20090914 at Wed Mar 27 14:40:45 2019
 By www-data
Copyright (c) 2016 by Zetafonts. All rights reserved.
</metadata>
<defs>
<font id="AristaProAlternate-Regular" horiz-adv-x="1109" >
  <font-face 
    font-family="Arista Pro Alternate"
    font-weight="400"
    font-stretch="normal"
    units-per-em="2048"
    panose-1="0 0 5 0 0 0 0 0 0 0"
    ascent="1638"
    descent="-410"
    x-height="964"
    cap-height="1311"
    bbox="-214 -508.001 1975 1771"
    underline-thickness="102"
    underline-position="-613"
    unicode-range="U+0020-U+25FC"
  />
<missing-glyph horiz-adv-x="748" 
d="M68 0v1365h544v-1365h-544zM136 68h408v1229h-408v-1229z" />
    <glyph glyph-name=".notdef" horiz-adv-x="748" 
d="M68 0v1365h544v-1365h-544zM136 68h408v1229h-408v-1229z" />
    <glyph glyph-name="space" unicode=" " horiz-adv-x="461" 
 />
    <glyph glyph-name="exclam" unicode="!" horiz-adv-x="461" 
d="M133 98c0 -28 9.33203 -51.333 27.999 -70s42 -28 70 -28c12.667 0 24.834 2.5 36.501 7.5s22.167 12.167 31.5 21.5c19.333 19.333 29 42.333 29 69c0 12.667 -2.5 24.834 -7.5 36.501s-12.167 22.167 -21.5 31.5c-8.66699 8.66699 -19 15.5 -31 20.5
s-24.333 7.5 -37 7.5c-27.333 0 -50.333 -9.33301 -69 -28c-9.33301 -9.33301 -16.5 -19.833 -21.5 -31.5s-7.5 -23.834 -7.5 -36.501zM139.999 392c0 -25.333 8.33203 -46.666 24.999 -63.999s37.334 -26 62.001 -26c25.333 0 46.5 8.66699 63.5 26
s25.5 38.666 25.5 63.999v829c0 25.333 -8.33301 46.666 -25 63.999s-37.667 26 -63 26c-24 0 -44.667 -8.66699 -62 -26s-26 -38.666 -26 -63.999v-829z" />
    <glyph glyph-name="quotedbl" unicode="&#x22;" horiz-adv-x="681" 
d="M89 910c0 -24 8.5 -44.667 25.5 -62s37.833 -26 62.5 -26c23.333 0 44.333 8.66699 63 26c17.333 17.333 26 38 26 62v313c0 24.667 -8.66699 45.334 -26 62.001s-38.333 25 -63 25s-45.5 -8.33301 -62.5 -25s-25.5 -37.334 -25.5 -62.001v-313zM415 910
c0 -24 8.66797 -44.667 26.001 -62s37.666 -26 60.999 -26c24 0 45.333 8.66699 64 26c17.333 17.333 26 38 26 62v313c0 24.667 -8.66699 45.334 -26 62.001s-38.666 25 -63.999 25c-24.667 0 -45.334 -8.33301 -62.001 -25s-25 -37.334 -25 -62.001v-313z" />
    <glyph glyph-name="numbersign" unicode="#" horiz-adv-x="1248" 
d="M32 439c0 -26 7.33008 -47.0029 21.9971 -63.0029s35 -24 61 -24h99l-58 -248c-2 -6.66699 -3 -13.667 -3 -21c0 -22.667 8.33301 -41.5 25 -56.5s39.334 -22.5 68.001 -22.5c22 0 41 5.33301 57 16s26.667 26 32 46l68 286h280l-57 -242c-2 -8 -3 -15.667 -3 -23
c0 -22.667 8.83301 -42.667 26.5 -60s40.167 -26 67.5 -26c20.667 0 39 6 55 18s26.333 27.667 31 47l68 286h163c25.333 0 45.5 8.83301 60.5 26.5s22.5 39.834 22.5 66.501c0 25.333 -7.66699 46 -23 62s-35.666 24 -60.999 24h-119l66 275h150c12 0 23.167 2.5 33.5 7.5
s19.166 11.5 26.499 19.5c14.667 16.667 22 37.334 22 62.001c0 27.333 -7.66699 49.166 -23 65.499s-35.666 24.5 -60.999 24.5h-105l50 205c2.66699 10 4 20.333 4 31c0 26.667 -8.5 48.834 -25.5 66.501s-38.833 26.5 -65.5 26.5c-22 0 -41.667 -7 -59 -21
s-28.666 -31.667 -33.999 -53l-60 -255h-278l49 205c2.66699 8.66699 4 19.334 4 32.001c0 26 -8.16699 48 -24.5 66s-37.5 27 -63.5 27c-22 0 -42.167 -6.5 -60.5 -19.5s-29.833 -29.167 -34.5 -48.5l-62 -262h-145c-24 0 -43.5 -8.66699 -58.5 -26s-22.5 -39 -22.5 -65
s7.5 -47.167 22.5 -63.5s34.5 -24.5 58.5 -24.5h103l-65 -275h-142c-24.667 0 -44.5 -8.83301 -59.5 -26.5s-22.5 -39.5 -22.5 -65.5zM445.997 530.997l66 275h278l-65 -275h-279z" />
    <glyph glyph-name="dollar" unicode="$" horiz-adv-x="999" 
d="M50 287c0 22.667 9.66602 42.665 28.999 59.998c8 7.33301 17.167 13.166 27.5 17.499s20.5 6.5 30.5 6.5c26.667 0 54 -17.667 82 -53c28 -48.667 67.333 -86.5 118 -113.5s108 -40.5 172 -40.5c33.333 0 65.833 4.66699 97.5 14s59.834 23 84.501 41
c26 18.667 46.5 41.5 61.5 68.5s22.5 57.167 22.5 90.5c0 32 -7.33301 59.333 -22 82s-35.667 42.334 -63 59.001c-20 12 -42.333 22.5 -67 31.5s-54.667 18.5 -90 28.5l-24 7c-129.333 27.333 -228.666 67.333 -297.999 120c-84 64.667 -126 147.334 -126 248.001
c0 54 11.5 103.667 34.5 149s54.833 84.666 95.5 117.999c30 24.667 63.5 45 100.5 61s75.5 27.333 115.5 34v79c0 21.333 7.5 39.333 22.5 54s33.5 22 55.5 22c20 0 37 -7.33301 51 -22s21 -32.667 21 -54v-79c56 -8.66699 105.333 -23.334 148 -44.001
c71.333 -34 125 -81.667 161 -143c6 -10.667 9 -22 9 -34c0 -22 -7.83301 -41 -23.5 -57s-35.5 -24 -59.5 -24c-18.667 0 -36.667 6 -54 18c-40 41.333 -78 70 -114 86c-38.667 17.333 -86 26 -142 26c-30.667 0 -60.834 -4.16699 -90.501 -12.5s-55.5 -20.5 -77.5 -36.5
c-23.333 -16.667 -41.833 -37 -55.5 -61s-20.5 -50.333 -20.5 -79c0 -58.667 31.333 -103.667 94 -135c25.333 -13.333 54.333 -24.666 87 -33.999s72.667 -19.333 120 -30c56 -16 106.333 -33.667 151 -53s83.667 -42 117 -68c80 -63.333 120 -146 120 -248
c0 -56.667 -11.667 -109.5 -35 -158.5s-55.666 -91.833 -96.999 -128.5c-32 -28 -68.167 -51.167 -108.5 -69.5s-83.5 -30.833 -129.5 -37.5v-89c0 -21.333 -7 -39.333 -21 -54s-31.333 -22 -52 -22c-21.333 0 -39.5 7.33301 -54.5 22s-22.5 32.667 -22.5 54v88
c-70.667 8.66699 -137.334 31.334 -200.001 68.001c-38.667 22.667 -72.5 49.334 -101.5 80.001s-51.5 63.667 -67.5 99c-8 17.333 -12 33.333 -12 48z" />
    <glyph glyph-name="percent" unicode="%" horiz-adv-x="1551" 
d="M42 993c0 -44.667 8.49902 -86.835 25.499 -126.502s40.5 -74.5 70.5 -104.5c30 -30.667 64.833 -54.334 104.5 -71.001s81.834 -25 126.501 -25c44 0 85.833 8.33301 125.5 25s74.834 40.334 105.501 71.001c30 30 53.333 64.833 70 104.5s25 81.834 25 126.501
c0 44 -8.33301 85.833 -25 125.5s-40 74.834 -70 105.501c-30.667 30 -66 53.5 -106 70.5s-81.667 25.5 -125 25.5c-44.667 0 -86.834 -8.5 -126.501 -25.5s-74.5 -40.5 -104.5 -70.5c-30 -30.667 -53.5 -66 -70.5 -106s-25.5 -81.667 -25.5 -125zM205.999 992.999
c0 22 4.16699 43.168 12.5 63.501s19.833 37.833 34.5 52.5c31.333 31.333 70 47 116 47c22 0 43 -4.16699 63 -12.5s37.667 -19.833 53 -34.5s27.166 -32.167 35.499 -52.5s12.5 -41.5 12.5 -63.5s-4.16699 -43.167 -12.5 -63.5s-20.166 -37.833 -35.499 -52.5
s-33 -26.334 -53 -35.001s-41 -13 -63 -13c-45.333 0 -84 16 -116 48c-14.667 14.667 -26.167 32.167 -34.5 52.5s-12.5 41.5 -12.5 63.5zM418.999 77c0 -19.333 7.66699 -37.334 23 -54.001c15.333 -17.333 34 -26 56 -26c15.333 0 29.5 4 42.5 12s23.167 19.333 30.5 34
l538 1145c5.33301 12.667 8 25.334 8 38.001c0 22 -6.66699 41.333 -20 58c-14 17.333 -33 26 -57 26c-15.333 0 -29.833 -4 -43.5 -12s-24.167 -19.333 -31.5 -34l-538 -1154c-5.33301 -12.667 -8 -23.667 -8 -33zM853.999 313.999c0 -44.667 8.33203 -86.667 24.999 -126
s40.334 -74 71.001 -104c30 -30.667 64.833 -54.334 104.5 -71.001s81.834 -25 126.501 -25c44 0 85.833 8.33301 125.5 25s74.834 40.334 105.501 71.001c30 30 53.5 64.667 70.5 104s25.5 81.333 25.5 126c0 44 -8.5 86 -25.5 126s-40.5 75.333 -70.5 106
c-30.667 30 -66 53.5 -106 70.5s-81.667 25.5 -125 25.5c-44.667 0 -86.834 -8.5 -126.501 -25.5s-74.5 -40.5 -104.5 -70.5c-30.667 -30.667 -54.334 -66 -71.001 -106s-25 -82 -25 -126zM1017 313.999c0 22 4.33398 43.1689 13.001 63.502s20.667 38.166 36 53.499
c31.333 31.333 69.666 47 114.999 47c22.667 0 44 -4.16699 64 -12.5s37.333 -19.833 52 -34.5c14.667 -15.333 26.167 -33.166 34.5 -53.499s12.5 -41.5 12.5 -63.5s-4.16699 -43 -12.5 -63s-19.833 -37.333 -34.5 -52s-32.167 -26.334 -52.5 -35.001s-41.5 -13 -63.5 -13
s-42.833 4.16699 -62.5 12.5s-37.167 20.166 -52.5 35.499c-15.333 14.667 -27.333 32 -36 52s-13 41 -13 63z" />
    <glyph glyph-name="ampersand" unicode="&#x26;" horiz-adv-x="1188" 
d="M44 386c0 -54 10.1631 -105.17 30.4961 -153.503s48.833 -90.833 85.5 -127.5s79.167 -65.334 127.5 -86.001s99.5 -31 153.5 -31c54.667 0 106.834 11.833 156.501 35.5s95.834 56.834 138.501 99.501l68 77l202 -181c14.667 -13.333 32.667 -20.666 54 -21.999
c8 0 16.833 2 26.5 6s18.834 9.33301 27.501 16c20 17.333 30 36.666 30 57.999c0 24.667 -13.333 49 -40 73l-191 174l145 166c14.667 16.667 22 36 22 58c0 10.667 -2.16699 21.334 -6.5 32.001s-10.166 20.334 -17.499 29.001c-18 18 -38.333 27 -61 27
c-12.667 0 -25.167 -2.83301 -37.5 -8.5s-23.166 -13.5 -32.499 -23.5l-141 -163l-253 232c73.333 34.667 129.166 78.167 167.499 130.5s57.5 113.5 57.5 183.5c0 45.333 -8.5 88.166 -25.5 128.499s-40.833 75.833 -71.5 106.5s-66.167 54.5 -106.5 71.5
s-83.166 25.5 -128.499 25.5s-88.333 -8.5 -129 -25.5s-76.334 -40.833 -107.001 -71.5c-30.667 -31.333 -54.5 -67.166 -71.5 -107.499s-25.5 -83.166 -25.5 -128.499c0 -49.333 13 -97.333 39 -144c22.667 -42.667 49.667 -78 81 -106l23 -21
c-57.333 -38.667 -102 -82.667 -134 -132c-37.333 -57.333 -56 -123 -56 -197zM206.996 394.997c0 46.667 13.002 88.167 39.002 124.5s61.667 65.833 107 88.5l323 -292l-68 -78c-23.333 -22.667 -50.5 -41.167 -81.5 -55.5s-61.833 -21.5 -92.5 -21.5
c-31.333 0 -60.833 6.16699 -88.5 18.5s-51.834 29.833 -72.501 52.5c-20.667 22 -36.834 47 -48.501 75s-17.5 57.333 -17.5 88zM269.998 985.997c0 22 4.16602 43.166 12.499 63.499s19.833 37.833 34.5 52.5c14 14.667 30.833 26.167 50.5 34.5s40.167 12.5 61.5 12.5
c23.333 0 45.333 -4.33301 66 -13s38.334 -20.667 53.001 -36c14 -15.333 25.167 -33.166 33.5 -53.499s12.5 -41.5 12.5 -63.5c0 -38 -16.333 -75 -49 -111c-16 -17.333 -35.167 -32.666 -57.5 -45.999s-46.5 -23.666 -72.5 -30.999l-14 -4l-49 46
c-23.333 23.333 -41 44.666 -53 63.999c-19.333 31.333 -29 59.666 -29 84.999z" />
    <glyph glyph-name="quotesingle" unicode="'" horiz-adv-x="355" 
d="M89 913c0 -24.667 8.5 -45.667 25.5 -63s37.833 -26 62.5 -26c24 0 44.667 8.66699 62 26c8 8 14.333 17.5 19 28.5s7 22.5 7 34.5v313c0 24.667 -8.5 45.334 -25.5 62.001s-37.833 25 -62.5 25s-45.5 -8.33301 -62.5 -25s-25.5 -37.334 -25.5 -62.001v-313z" />
    <glyph glyph-name="parenleft" unicode="(" horiz-adv-x="702" 
d="M133 97c0 -62 10.166 -118.499 30.499 -169.499s49.833 -95.167 88.5 -132.5c39.333 -38 87.5 -67.333 144.5 -88s121.5 -31.334 193.5 -32.001h4c25.333 0 46.166 8.16699 62.499 24.5s24.5 37.166 24.5 62.499s-8.16699 46.5 -24.5 63.5s-37.166 25.5 -62.499 25.5h-54
c-32.667 0 -63 6.66699 -91 20s-52.667 32 -74 56c-20.667 23.333 -36.667 49.833 -48 79.5s-17 60.5 -17 92.5v791c0 32 6 63 18 93s28.667 56.333 50 79c22 22.667 46.667 40.5 74 53.5s56.333 19.5 87 19.5h55c25.333 0 46.166 8.33301 62.499 25
s24.5 37.334 24.5 62.001c0 25.333 -8.16699 46.5 -24.5 63.5s-37.166 25.5 -62.499 25.5c-70 0 -133.167 -10 -189.5 -30s-104.833 -48.333 -145.5 -85c-39.333 -36.667 -69.666 -80 -90.999 -130s-33 -105 -35 -165v-804z" />
    <glyph glyph-name="parenright" unicode=")" horiz-adv-x="703" 
d="M-22 -238c0 -25.333 8.33203 -46.166 24.999 -62.499s37.667 -24.5 63 -24.5h5c71.333 0.666992 135.333 11.167 192 31.5s104.667 49.5 144 87.5c38 37.333 67.167 81.166 87.5 131.499s30.833 106.166 31.5 167.499v797c0 60.667 -10.333 116.667 -31 168
s-50.667 95.666 -90 132.999c-40 38 -88.333 67.333 -145 88s-119.667 31.334 -189 32.001h-5c-25.333 0 -46.333 -8.5 -63 -25.5s-25 -38.167 -25 -63.5c0 -24 8.33301 -44.5 25 -61.5s37.667 -25.5 63 -25.5h54c30.667 0 59.834 -6.33301 87.501 -19
s52.167 -30.334 73.5 -53.001c20.667 -22.667 37.167 -48.667 49.5 -78s18.833 -60 19.5 -92v-796c0 -31.333 -5.83301 -61.666 -17.5 -90.999s-28.167 -55.666 -49.5 -78.999c-21.333 -24 -46 -42.667 -74 -56s-58 -20 -90 -20h-53c-25.333 0 -46.333 -8.5 -63 -25.5
s-25 -38.167 -25 -63.5z" />
    <glyph glyph-name="asterisk" unicode="*" horiz-adv-x="668" 
d="M54 949c0 -23.333 9.00391 -43.998 27.0039 -61.998c17.333 -17.333 37.666 -26 60.999 -26c20 0 37.667 5.66699 53 17l54 32v-67c0 -25.333 8.66699 -46.666 26 -63.999s38.666 -26 63.999 -26c24 0 44.667 8.66699 62 26s26 38.666 26 63.999v66l51 -30
c16 -12 33.333 -18 52 -18c23.333 0 43.666 8.66699 60.999 26c8 8 14.5 17.5 19.5 28.5s7.5 22.5 7.5 34.5c0 29.333 -12.333 53.666 -37 72.999l-72 42l70 42c13.333 7.33301 23.333 17.166 30 29.499s9.66699 25.833 9 40.5c0 12 -2.5 23.833 -7.5 35.5
s-11.5 21.5 -19.5 29.5c-18.667 17.333 -39.667 26 -63 26c-18.667 0 -36 -6 -52 -18l-49 -29v65c0 25.333 -8.33301 46.666 -25 63.999s-37.334 26 -62.001 26c-25.333 0 -46.833 -8.66699 -64.5 -26s-26.5 -38.666 -26.5 -63.999v-66l-52 31c-15.333 11.333 -33 17 -53 17
c-24 0 -44.667 -8.66699 -62 -26c-18.667 -18.667 -28 -40.334 -28 -65.001c0 -14.667 3.33301 -28.167 10 -40.5s16.667 -22.166 30 -29.499l71 -42l-72 -43c-12 -8.66699 -21.5 -19.5 -28.5 -32.5s-10.5 -26.5 -10.5 -40.5z" />
    <glyph glyph-name="plus" unicode="+" horiz-adv-x="834" 
d="M22 630c0 -25.333 8.33301 -46.335 25 -63.002c17.333 -17.333 38.666 -26 63.999 -26h217v-216c0 -25.333 8.5 -46.666 25.5 -63.999s38.167 -26 63.5 -26c12 0 23.5 2.33301 34.5 7s20.5 11 28.5 19c17.333 17.333 26 38.666 26 63.999v216h218
c24.667 0 45.667 8.5 63 25.5s26 37.833 26 62.5s-8.66699 46.334 -26 65.001c-8 8 -17.5 14.333 -28.5 19s-22.5 7 -34.5 7h-218v217c0 25.333 -8.5 46.5 -25.5 63.5s-38.167 25.5 -63.5 25.5s-46.333 -8.33301 -63 -25c-17.333 -17.333 -26 -38.666 -26 -63.999v-217h-217
c-25.333 0 -46.666 -8.66699 -63.999 -26c-16.667 -18 -25 -39.333 -25 -64z" />
    <glyph glyph-name="comma" unicode="," horiz-adv-x="415" 
d="M105 131v-302.001c0 -25.333 8.66699 -46.666 26 -63.999c16.667 -18 37.667 -27 63 -27c26 0 47.167 8.66699 63.5 26s24.5 39 24.5 65v302c0 26 -8.33301 47.833 -25 65.5s-37.667 26.5 -63 26.5s-46.5 -8.83301 -63.5 -26.5s-25.5 -39.5 -25.5 -65.5z" />
    <glyph glyph-name="hyphen" unicode="-" horiz-adv-x="932" 
d="M68 581c0 -24 8.66602 -44.667 25.999 -62s38.666 -26 63.999 -26h597c24.667 0 46.334 8.66699 65.001 26c17.333 17.333 26 38 26 62s-8.66699 45.333 -26 64c-19.333 18 -41 27 -65 27h-597c-25.333 0 -46.666 -8.83301 -63.999 -26.5s-26 -39.167 -26 -64.5z" />
    <glyph glyph-name="period" unicode="." horiz-adv-x="453" 
d="M105 83c0 -14.667 2.83301 -28.5 8.5 -41.5s13.5 -24.167 23.5 -33.5c21.333 -21.333 46.666 -32 75.999 -32s54.666 10.667 75.999 32c10 10 17.667 21.5 23 34.5s8 26.5 8 40.5s-2.83301 27.833 -8.5 41.5s-13.167 25.5 -22.5 35.5
c-21.333 21.333 -46.666 32 -75.999 32s-54.666 -10.667 -75.999 -32c-10 -10 -17.833 -21.667 -23.5 -35s-8.5 -27.333 -8.5 -42z" />
    <glyph glyph-name="slash" unicode="/" horiz-adv-x="587" 
d="M22 91c0 -24 8.33105 -44.333 24.998 -61c18 -19.333 39 -29 63 -29c20 0 37.833 5.66699 53.5 17s26.834 26.666 33.501 45.999l364 1118c3.33301 12 5 22 5 30c0 26.667 -8.33301 49.334 -25 68.001c-17.333 19.333 -39 29 -65 29
c-19.333 0 -37.166 -5.66699 -53.499 -17s-27.5 -26.333 -33.5 -45l-362 -1128c-3.33301 -12 -5 -21.333 -5 -28z" />
    <glyph glyph-name="zero" unicode="0" horiz-adv-x="1436" 
d="M38 651c0 -119.333 29.9971 -230.668 89.9971 -334.001c28.667 -48.667 63 -93.167 103 -133.5s84.667 -75.166 134 -104.499c102.667 -60.667 214.334 -91 335.001 -91c90.667 0 176.167 17 256.5 51s151.5 82 213.5 144c61.333 61.333 109.166 132.166 143.499 212.499
s51.5 165.5 51.5 255.5c0 60.667 -7.83301 119.334 -23.5 176.001s-38.167 110 -67.5 160c-29.333 49.333 -64.166 94.333 -104.499 135s-85.166 75 -134.499 103c-105.333 60.667 -217 91 -335 91c-119.333 0 -231 -30.333 -335 -91
c-48.667 -28.667 -93.167 -63.167 -133.5 -103.5s-74.833 -85.166 -103.5 -134.499c-29.333 -50 -51.666 -103.333 -66.999 -160s-23 -115.334 -23 -176.001zM213.997 650.998c0 66 12.5 128.667 37.5 188s59.833 111.333 104.5 156s96.667 79.5 156 104.5
s122 37.5 188 37.5c66.667 0 129.667 -12.5 189 -37.5s111.333 -59.833 156 -104.5s79.5 -96.667 104.5 -156s37.5 -122 37.5 -188c0 -66.667 -12.5 -129.667 -37.5 -189s-59.833 -111.333 -104.5 -156s-96.667 -79.5 -156 -104.5s-122.333 -37.5 -189 -37.5
c-66 0 -128.667 12.5 -188 37.5s-111.333 59.833 -156 104.5s-79.5 96.667 -104.5 156s-37.5 122.333 -37.5 189z" />
    <glyph glyph-name="one" unicode="1" horiz-adv-x="571" 
d="M44 1090c0 -26 9.00195 -47.334 27.002 -64.001c15.333 -15.333 34.666 -23 57.999 -23c21.333 0 38.666 4.66699 51.999 14l79 49v-976c0 -25.333 8.83301 -46.666 26.5 -63.999s39.167 -26 64.5 -26s46 8.5 62 25.5s24 38.5 24 64.5v1135
c-1.33301 24.667 -10 45 -26 61s-36 24 -60 24h-4c-17.333 0 -33.333 -4.33301 -48 -13l-211 -131c-14 -8 -24.833 -18.667 -32.5 -32s-11.5 -28 -11.5 -44z" />
    <glyph glyph-name="two" unicode="2" horiz-adv-x="954" 
d="M45 88c0 7.33301 0.330078 13 0.99707 17c2 17.333 8.66699 31.666 20 42.999l520 549l2 2c32.667 34 60.334 68 83.001 102c32.667 50.667 49 96 49 136c0 32 -6.16699 61.5 -18.5 88.5s-29.5 49.833 -51.5 68.5c-22 18 -47 32 -75 42s-57.667 15 -89 15
c-65.333 0 -119.333 -17.833 -162 -53.5s-68.334 -84.167 -77.001 -145.5c-5.33301 -24.667 -15.5 -43.167 -30.5 -55.5s-33.5 -18.5 -55.5 -18.5c-26.667 0 -47.5 7.83301 -62.5 23.5s-22.5 35.5 -22.5 59.5c0 3.33301 0.666992 9.66602 2 18.999v1
c2.66699 40.667 14.334 81.167 35.001 121.5s48.667 76.5 84 108.5c36.667 33.333 79.334 59.666 128.001 78.999s101.334 29 158.001 29c59.333 0 114.5 -8.66699 165.5 -26s94.833 -42 131.5 -74c36.667 -32.667 65.167 -72.167 85.5 -118.5s30.5 -97.833 30.5 -154.5
c0 -64.667 -14 -126.167 -42 -184.5s-73 -119.166 -135 -182.499l-394 -403h496c26 0 47.333 -8 64 -24s25 -36.667 25 -62s-8.66699 -46.666 -26 -63.999s-38.333 -26 -63 -26h-687c-24 0 -44.667 8.66699 -62 26c-18 16.667 -27 37.334 -27 62.001z" />
    <glyph glyph-name="three" unicode="3" horiz-adv-x="974" 
d="M44 281c0 -17.333 4.66504 -34.668 13.998 -52.001c39.333 -72.667 96 -130.667 170 -174c76.667 -44.667 157.334 -67 242.001 -67c61.333 0 120.166 11.833 176.499 35.5s105.5 56.5 147.5 98.5c42.667 42.667 75.834 91.667 99.501 147s35.5 114 35.5 176
c0 52.667 -8.66699 102 -26 148s-42 87 -74 123c-31.333 35.333 -68.333 65 -111 89s-89 41 -139 51l310 302c16.667 16.667 25 37.667 25 63c0 24.667 -8.16699 45.834 -24.5 63.501s-36.5 26.5 -60.5 26.5h-642c-25.333 0 -46.666 -8.66699 -63.999 -26
c-17.333 -18.667 -26 -40 -26 -64s8.5 -43.667 25.5 -59s38.5 -23 64.5 -23h439l-306 -294c-16.667 -15.333 -25.667 -37 -27 -65c0 -22.667 8.33301 -43 25 -61c16.667 -18.667 36 -28 58 -28c2 0 3.33301 0.333008 4 1h4h86c38.667 0 75.167 -5.5 109.5 -16.5
s64.166 -27.167 89.499 -48.5c26 -22 46.333 -48.5 61 -79.5s22 -65.167 22 -102.5c0 -38.667 -7.16699 -75 -21.5 -109s-34.5 -63.667 -60.5 -89s-56.167 -45.333 -90.5 -60s-70.166 -22 -107.499 -22c-54.667 0 -104.5 12.833 -149.5 38.5s-80.167 59.834 -105.5 102.501
c-1.33301 1.33301 -2 3 -2 5l-3 6c-9.33301 14.667 -21.333 26.167 -36 34.5s-30 12.5 -46 12.5c-25.333 0 -46.333 -9 -63 -27c-15.333 -16.667 -23 -35.334 -23 -56.001z" />
    <glyph glyph-name="four" unicode="4" horiz-adv-x="973" 
d="M44 415c0 -26.667 10 -48.666 30 -65.999l6 -4c9.33301 -8.66699 21.333 -14.334 36 -17.001h4c1.33301 -0.666992 6.33301 -1 15 -1h417v-238c0 -25.333 9 -46.333 27 -63c17.333 -17.333 38.666 -26 63.999 -26c24.667 0 45.334 8.66699 62.001 26s25 38.333 25 63v238
h110c24.667 0 45.667 8.5 63 25.5s26 37.833 26 62.5s-8.66699 45.834 -26 63.501s-38.333 26.5 -63 26.5h-110v99c0 25.333 -8.66699 46.666 -26 63.999s-38 26 -62 26c-12 0 -23.5 -2.33301 -34.5 -7s-20.5 -11 -28.5 -19c-18 -16.667 -27 -38 -27 -64v-99h-301l335 686
c5.33301 12 8 24 8 36c0 10.667 -2.16699 21.167 -6.5 31.5s-10.5 19.5 -18.5 27.5c-18 18 -39.333 27 -64 27c-18 0 -34.5 -5 -49.5 -15s-26.167 -23.667 -33.5 -41l-371 -806c-4.66699 -8 -7 -20 -7 -36z" />
    <glyph glyph-name="five" unicode="5" horiz-adv-x="963" 
d="M44 284c0 -17.333 5.33203 -35.3359 15.999 -54.0029c40 -74 94 -132 162 -174c72 -44.667 150.333 -67 235 -67c62.667 0 122 11.833 178 35.5s105.333 56.834 148 99.501s76 91.834 100 147.501s36 114.834 36 177.501c0 62 -12 119.667 -36 173
s-57.333 99.333 -100 138c-42 38 -91.5 67.5 -148.5 88.5s-117.5 31.5 -181.5 31.5h-198v253h489c24.667 0 45.667 8.16699 63 24.5s26 37.166 26 62.499c0 24.667 -8.66699 46.334 -26 65.001c-8 8 -17.5 14.333 -28.5 19s-22.5 7 -34.5 7h-573c-24 0 -45 -7.33301 -63 -22
c-8.66699 -7.33301 -15.834 -15.833 -21.501 -25.5s-9.16699 -19.834 -10.5 -30.501v-9l2 -434c0 -24 8.33301 -44.167 25 -60.5s37.334 -25.166 62.001 -26.499h308c28.667 0 58.667 -6 90 -18s60 -28.667 86 -50c28.667 -23.333 51.334 -51.333 68.001 -84
s25 -68.667 25 -108c0 -42.667 -7.33301 -81.5 -22 -116.5s-35 -64.5 -61 -88.5s-56.167 -42.167 -90.5 -54.5s-71.5 -18.5 -111.5 -18.5c-52 0 -98.5 12.833 -139.5 38.5s-73.833 60.5 -98.5 104.5c-1.33301 1.33301 -2 3 -2 5l-3 6c-9.33301 15.333 -21.166 27 -35.499 35
s-29.5 12 -45.5 12c-26.667 0 -48.334 -9 -65.001 -27c-16 -16 -24 -34.333 -24 -55z" />
    <glyph glyph-name="six" unicode="6" horiz-adv-x="1064" 
d="M44 476c0 -66 12.668 -128.833 38.001 -188.5s60.666 -111.834 105.999 -156.501c45.333 -45.333 97.5 -80.5 156.5 -105.5s121.5 -37.5 187.5 -37.5c66.667 0 129.834 12.667 189.501 38s111.834 60.333 156.501 105s79.5 96.667 104.5 156s37.5 122.333 37.5 189
s-12.5 129.667 -37.5 189s-59.833 111.666 -104.5 156.999c-44.667 44.667 -96.834 79.667 -156.501 105s-122.834 38 -189.501 38c-23.333 0 -50.666 -2.33301 -81.999 -7l139 222c9.33301 12.667 14 29.334 14 50.001c0 22 -7.66699 41.667 -23 59
c-16.667 18 -37.667 27 -63 27c-16.667 0 -32.334 -4.16699 -47.001 -12.5s-26 -20.166 -34 -35.499l-306 -515c-57.333 -82 -86 -174.333 -86 -277zM221.001 476c0 42 8 81.833 24 119.5s38.333 70.834 67 99.501s61.834 51 99.501 67s77.834 24 120.501 24
c43.333 0 84 -8 122 -24s71.333 -38.333 100 -67s50.834 -61.834 66.501 -99.501s23.5 -77.5 23.5 -119.5s-7.83301 -81.833 -23.5 -119.5s-37.834 -70.834 -66.501 -99.501c-28.667 -29.333 -62 -52 -100 -68s-78.667 -24 -122 -24c-42.667 0 -82.834 8 -120.501 24
s-70.834 38.667 -99.501 68c-28.667 28.667 -51 61.834 -67 99.501s-24 77.5 -24 119.5z" />
    <glyph glyph-name="seven" unicode="7" horiz-adv-x="958" 
d="M51 1221c0 -25.333 8.83301 -46.332 26.5 -62.999s39.5 -25 65.5 -25h537l-459 -999c-8.66699 -18 -13 -36 -13 -54c0 -22 7.5 -41 22.5 -57s35.5 -24 61.5 -24c16 0 31.167 4.16699 45.5 12.5s25.833 20.166 34.5 35.499l527 1128l1 2c8 12 12 26.333 12 43v1
c0 23.333 -9 44.666 -27 63.999c-18.667 17.333 -39.667 26 -63 26h-679c-26 0 -47.833 -8.66699 -65.5 -26s-26.5 -38.666 -26.5 -63.999z" />
    <glyph glyph-name="eight" unicode="8" horiz-adv-x="922" 
d="M44 406c0 -57.333 10.665 -111.333 31.998 -162s51.333 -95.334 90 -134.001c38 -38.667 82.333 -68.667 133 -90s104.667 -32 162 -32c56.667 0 110.334 10.667 161.001 32s95.334 51.333 134.001 90s68.667 83.5 90 134.5s32 104.833 32 161.5
c0 71.333 -18.667 138.333 -56 201c-36 59.333 -84.667 107.333 -146 144c36 29.333 64 63.166 84 101.499s30 80.833 30 127.5c0 46 -8.66699 89.333 -26 130s-41.333 76.334 -72 107.001c-30.667 30 -66.334 53.167 -107.001 69.5s-83 24.5 -127 24.5
s-86.167 -8.16699 -126.5 -24.5s-75.5 -39.5 -105.5 -69.5c-31.333 -30.667 -55.666 -66.167 -72.999 -106.5s-26 -83.833 -26 -130.5s10.167 -89.667 30.5 -129s48.166 -73.666 83.499 -102.999c-59.333 -36 -106.666 -84 -141.999 -144c-36.667 -62 -55 -128 -55 -198z
M220.998 406c0 32 6.33301 62.833 19 92.5s30 55.5 52 77.5s47.5 39.167 76.5 51.5s59.833 18.5 92.5 18.5c32 0 62.5 -6.16699 91.5 -18.5s54.833 -29.833 77.5 -52.5s40.167 -48.5 52.5 -77.5s18.5 -59.5 18.5 -91.5c0 -32.667 -6.16699 -63.667 -18.5 -93
s-29.833 -55 -52.5 -77c-22.667 -22.667 -48.5 -40.167 -77.5 -52.5s-59.5 -18.5 -91.5 -18.5c-32.667 0 -63.5 6.16699 -92.5 18.5s-54.5 29.833 -76.5 52.5c-22.667 22 -40.167 47.667 -52.5 77s-18.5 60.333 -18.5 93zM278.998 993c0 24 4.66797 46.8311 14.001 68.498
s22.333 40.834 39 57.501s35.834 29.667 57.501 39s44.834 14 69.501 14c23.333 0 46 -4.66699 68 -14s41.333 -22.333 58 -39s29.667 -36.167 39 -58.5s14 -45.166 14 -68.499c0 -24 -4.66699 -46.833 -14 -68.5s-22.333 -40.834 -39 -57.501s-35.834 -29.667 -57.501 -39
s-44.5 -14 -68.5 -14c-24.667 0 -47.834 4.83301 -69.501 14.5s-40.834 22.834 -57.501 39.501c-16.667 16 -29.667 35 -39 57s-14 45 -14 69z" />
    <glyph glyph-name="nine" unicode="9" horiz-adv-x="1051" 
d="M44 835c0 -65.333 12.332 -127.333 36.999 -186s59.334 -110 104.001 -154c44.667 -44.667 96.167 -79.5 154.5 -104.5s120.5 -37.5 186.5 -37.5c22.667 0 49.667 2.33301 81 7l-137 -219c-9.33301 -12.667 -14 -29.334 -14 -50.001c0 -9.33301 2 -19.166 6 -29.499
s9.66699 -19.5 17 -27.5c14.667 -18 35.334 -27 62.001 -27c16 0 31.333 4.16699 46 12.5s26 19.833 34 34.5l302 508c56.667 81.333 85 172.333 85 273c0 65.333 -12.5 127.5 -37.5 186.5s-59.833 110.5 -104.5 154.5c-45.333 44.667 -97 79.334 -155 104.001
s-119.667 37 -185 37c-66 0 -128.167 -12.333 -186.5 -37s-109.833 -59.334 -154.5 -104.001c-44.667 -44 -79.334 -95.5 -104.001 -154.5s-37 -121.167 -37 -186.5zM217.999 835c0 41.333 7.83301 80.832 23.5 118.499s37.5 70.5 65.5 98.5
c28 28.667 60.833 50.834 98.5 66.501s77.834 23.5 120.501 23.5c42 0 81.667 -7.83301 119 -23.5s70.333 -37.834 99 -66.501c28 -28.667 49.833 -61.667 65.5 -99s23.5 -76.666 23.5 -117.999s-7.83301 -80.5 -23.5 -117.5s-37.5 -69.5 -65.5 -97.5
c-28.667 -28.667 -61.667 -51 -99 -67s-77 -24 -119 -24c-42.667 0 -82.834 8 -120.501 24s-70.5 38.333 -98.5 67c-28 28 -49.833 60.5 -65.5 97.5s-23.5 76.167 -23.5 117.5z" />
    <glyph glyph-name="colon" unicode=":" horiz-adv-x="456" 
d="M105 97c0 -29.333 10.667 -54.666 32 -75.999s47 -32 77 -32c14.667 0 28.667 2.83301 42 8.5s25 13.5 35 23.5c21.333 21.333 32 46.666 32 75.999c0 30.667 -10.667 56.667 -32 78c-10 10 -21.667 17.833 -35 23.5s-27.333 8.5 -42 8.5c-30 0 -55.667 -10.667 -77 -32
s-32 -47.333 -32 -78zM105 855c0 -30 10.667 -55.667 32 -77s47 -32 77 -32c14.667 0 28.667 2.83301 42 8.5s25 13.5 35 23.5c21.333 21.333 32 47 32 77c0 14.667 -2.83301 28.667 -8.5 42s-13.5 25 -23.5 35s-21.833 18 -35.5 24s-27.5 9 -41.5 9
c-29.333 0 -55 -11 -77 -33c-10 -10 -17.833 -21.667 -23.5 -35s-8.5 -27.333 -8.5 -42z" />
    <glyph glyph-name="semicolon" unicode=";" horiz-adv-x="456" 
d="M105 855c0 -30 10.667 -55.667 32 -77s47 -32 77 -32c14.667 0 28.667 2.83301 42 8.5s25 13.5 35 23.5c21.333 21.333 32 47 32 77c0 14.667 -2.83301 28.667 -8.5 42s-13.5 25 -23.5 35s-21.833 18 -35.5 24s-27.5 9 -41.5 9c-29.333 0 -55 -11 -77 -33
c-10 -10 -17.833 -21.667 -23.5 -35s-8.5 -27.333 -8.5 -42zM111 131v-302c0 -25.333 8.66699 -46.833 26 -64.5s38.666 -26.5 63.999 -26.5s46.333 8.66699 63 26s25 39 25 65v302c0 26 -8.33301 47.833 -25 65.5s-37.667 26.5 -63 26.5s-46.666 -8.83301 -63.999 -26.5
s-26 -39.5 -26 -65.5z" />
    <glyph glyph-name="less" unicode="&#x3c;" horiz-adv-x="762" 
d="M50 626c0 -13.333 3.16895 -25.334 9.50195 -36.001s17.833 -21 34.5 -31l498 -272c11.333 -6 23 -9 35 -9c18.667 0 35.167 6.83301 49.5 20.5s21.5 30.834 21.5 51.501c0 13.333 -3.33301 25.666 -10 36.999s-16 20.333 -28 27l-385 210l388 203
c11.333 6 20 14.667 26 26s9.33301 23.333 10 36c0 10 -2 19.833 -6 29.5s-9.33301 17.834 -16 24.501c-6.66699 6 -14.334 10.833 -23.001 14.5s-17.334 5.5 -26.001 5.5c-12 0 -24.333 -3.33301 -37 -10l-503 -263c-12 -6 -21.333 -14.833 -28 -26.5
s-10 -24.167 -10 -37.5z" />
    <glyph glyph-name="equal" unicode="=" horiz-adv-x="873" 
d="M76 329c0 -25.333 8.66504 -46.666 25.998 -63.999c16.667 -18 37.334 -27 62.001 -27h552c26 0 47.333 9 64 27c8 8 14.333 17.5 19 28.5s7 22.5 7 34.5c0 24 -8.66699 44.667 -26 62s-38.666 26 -63.999 26h-552c-24.667 0 -45.5 -8.33301 -62.5 -25
s-25.5 -37.334 -25.5 -62.001zM75.998 748c0 -26 8.66699 -47.833 26 -65.5s38 -26.5 62 -26.5h552c25.333 0 46.666 8.83301 63.999 26.5s26 39.167 26 64.5c0 12 -2.33301 23.5 -7 34.5s-11 20.5 -19 28.5c-17.333 17.333 -38.666 26 -63.999 26h-552
c-24.667 0 -45.5 -8.5 -62.5 -25.5s-25.5 -37.833 -25.5 -62.5z" />
    <glyph glyph-name="greater" unicode="&#x3e;" horiz-adv-x="784" 
d="M36 890c0 -12.667 3.16797 -24.666 9.50098 -35.999s15.5 -20.333 27.5 -27l387 -203l-384 -210c-12 -6.66699 -21.333 -15.667 -28 -27s-10 -23.666 -10 -36.999c0 -20.667 7.16699 -37.834 21.5 -51.501s30.5 -20.5 48.5 -20.5c12.667 0 24.334 3 35.001 9l499 272
c29.333 17.333 44 39.666 44 66.999c0 13.333 -3.33301 25.833 -10 37.5s-16 20.5 -28 26.5l-504 263c-12.667 6.66699 -24.667 10 -36 10c-8.66699 0 -17.334 -1.83301 -26.001 -5.5s-16.334 -8.5 -23.001 -14.5c-15.333 -15.333 -23 -33 -23 -53z" />
    <glyph glyph-name="question" unicode="?" horiz-adv-x="943" 
d="M76 914c0 -26 8.83594 -47.833 26.5029 -65.5s39.167 -26.5 64.5 -26.5s46 8.83301 62 26.5s24 39.5 24 65.5v4c0.666992 31.333 7.16699 60.833 19.5 88.5s29.166 51.834 50.499 72.501c20.667 20 44.834 35.667 72.501 47s56.5 17 86.5 17
c32.667 0 63 -5.83301 91 -17.5s52.667 -28.167 74 -49.5c20 -20.667 35.667 -45 47 -73s17 -57.667 17 -89c0 -30.667 -5.83301 -59.334 -17.5 -86.001s-28.167 -50.334 -49.5 -71.001c-21.333 -20 -45.833 -35.667 -73.5 -47s-57.167 -17 -88.5 -17h-105
c-12 0 -23.5 -2.33301 -34.5 -7s-20.5 -11 -28.5 -19c-18 -16.667 -27 -38 -27 -64v-193c0 -25.333 8.66699 -46.666 26 -63.999s38.666 -26 63.999 -26s46.166 8.5 62.499 25.5s24.5 38.5 24.5 64.5v106h15c55.333 0 107.666 10 156.999 30s93 48.333 131 85
s67.667 79.334 89 128.001s32 100.334 32 155.001c0 55.333 -10.5 107.666 -31.5 156.999s-50.167 92.666 -87.5 129.999c-38 37.333 -81.833 66.5 -131.5 87.5s-101.834 31.5 -156.501 31.5s-106.5 -10.167 -155.5 -30.5s-91.833 -48.833 -128.5 -85.5
c-37.333 -36.667 -66.666 -79.5 -87.999 -128.5s-32.333 -100.5 -33 -154.5v-7zM278.003 86c0 -27.333 9.66699 -50.001 29 -68.001c20.667 -19.333 43.667 -29 69 -29c26 0 49.333 9.66699 70 29c18.667 17.333 28 40 28 68c0 28.667 -9.33301 52.334 -28 71.001
s-42 28 -70 28c-27.333 0 -50.333 -9.33301 -69 -28c-19.333 -19.333 -29 -43 -29 -71z" />
    <glyph glyph-name="at" unicode="@" horiz-adv-x="1529" 
d="M44 614c0 -128.667 32.666 -249.332 97.999 -361.999c62 -107.333 147.667 -193.333 257 -258c110 -65.333 230.667 -98 362 -98c80 0 153.667 11.333 221 34l8 3c1.33301 0 3.33301 0.666992 6 2l14 4v1c15.333 7.33301 27.333 18 36 32s13 29.333 13 46
c0 25.333 -8.66699 46.166 -26 62.499s-37.333 24.5 -60 24.5c-8.66699 0 -20 -2.33301 -34 -7c-61.333 -18.667 -120.333 -28 -177 -28c-74 0 -144 14 -210 42s-124.333 67 -175 117s-90 108.167 -118 174.5s-42 136.5 -42 210.5s14 144.167 42 210.5
s67.333 124.5 118 174.5s109 88.833 175 116.5s136 41.5 210 41.5c76.667 0 148.667 -13.833 216 -41.5s126.666 -66.5 177.999 -116.5c50.667 -50 90 -107.833 118 -173.5s42 -135.167 42 -208.5c0 -58 -5.33301 -110.667 -16 -158l-2 1c-0.666992 0 -1 -0.333008 -1 -1
c-5.33301 -21.333 -16 -38.333 -32 -51s-34 -19 -54 -19c-24.667 0 -45.167 9.5 -61.5 28.5s-25.166 42.833 -26.499 71.5v123c0 6 -1 12 -3 18c-2 48 -12.333 93.167 -31 135.5s-44 79.5 -76 111.5s-69.167 56.833 -111.5 74.5s-87.166 26.5 -134.499 26.5
c-50 0 -97.167 -9.33301 -141.5 -28s-83.166 -44.667 -116.499 -78s-59.5 -72.5 -78.5 -117.5s-28.5 -92.167 -28.5 -141.5s9.33301 -96.166 28 -140.499s45 -83.5 79 -117.5s73.167 -60.5 117.5 -79.5s91.166 -28.5 140.499 -28.5s96 12.333 140 37
c40 22.667 75.333 52.334 106 89.001c11.333 -42.667 35.333 -78.334 72 -107.001c38.667 -30 82 -45 130 -45c44 0 86.333 10.667 127 32c44.667 23.333 76.334 55.666 95.001 96.999c15.333 32 27 74 35 126c8.66699 54 13 107 13 159c0 61.333 -8.5 121.333 -25.5 180
s-41.5 114.334 -73.5 167.001c-32 52 -70 99.5 -114 142.5s-92.667 79.833 -146 110.5c-54.667 31.333 -112.834 55.333 -174.501 72s-125.167 25 -190.5 25c-131.333 0 -252 -32.667 -362 -98c-109.333 -64.667 -195 -150.667 -257 -258
c-65.333 -112.667 -98 -233.334 -98 -362.001zM567.999 613.002c0 26 5 51 15 75s24 45 42 63s38.667 31.833 62 41.5s48 14.5 74 14.5s50.833 -4.83301 74.5 -14.5s44.5 -23.5 62.5 -41.5s31.833 -39 41.5 -63s14.5 -49 14.5 -75s-4.83301 -50.833 -14.5 -74.5
s-23.5 -44.5 -41.5 -62.5c-18.667 -18 -39.667 -32 -63 -42s-48 -15 -74 -15s-50.667 5 -74 15s-44 24 -62 42c-18 17.333 -32 38 -42 62s-15 49 -15 75z" />
    <glyph glyph-name="A" unicode="A" horiz-adv-x="1125" 
d="M25 85c0 -24 8.00098 -44.667 24.001 -62c17.333 -18.667 39.666 -28 66.999 -28c17.333 0 33.5 5.16699 48.5 15.5s26.167 24.166 33.5 41.499l48 124h620l49 -124c6.66699 -17.333 17.667 -31.166 33 -41.499s32 -15.5 50 -15.5c26 0 48.333 9.33301 67 28
c17.333 17.333 26 38 26 62c0 9.33301 -2.33301 21 -7 35l-442 1146c-6 16 -17 29 -33 39s-34.333 15 -55 15c-20 0 -37.5 -6 -52.5 -18s-25.5 -26 -31.5 -42l-439 -1140c-4 -12 -6 -23.667 -6 -35zM318.001 359l239 621l238 -621h-477z" />
    <glyph glyph-name="B" unicode="B" horiz-adv-x="1127" 
d="M110 91c0 -24.667 8.16699 -45.666 24.5 -62.999s37.166 -26.666 62.499 -27.999h499c51.333 0 99.833 9.83301 145.5 29.5s85.834 47.167 120.501 82.5c34.667 34.667 61.834 75.167 81.501 121.5s29.5 94.833 29.5 145.5c0 58.667 -12.333 113.167 -37 163.5
s-58.667 94.166 -102 131.499c37.333 35.333 66.166 75.166 86.499 119.499s30.5 92.833 30.5 145.5c0 50.667 -9.5 100 -28.5 148s-44.833 88.667 -77.5 122c-33.333 34 -72.333 60.667 -117 80s-91.667 29 -141 29h-487c-24.667 0 -45.667 -8 -63 -24
c-18 -18 -27 -38 -27 -60v-1143zM292 182.001l0.00195312 954.001h379c27.333 0 53.166 -4.66699 77.499 -14s45.166 -23.333 62.499 -42c39.333 -44 59 -91 59 -141c0 -24 -4.5 -46.667 -13.5 -68s-21.5 -40 -37.5 -56c-16.667 -16.667 -35.667 -29.667 -57 -39
s-44 -14.333 -68 -15h-24c-24.667 0 -46 -9 -64 -27s-27 -39.333 -27 -64c0 -25.333 8.83301 -46.833 26.5 -64.5s39.167 -26.5 64.5 -26.5h26c25.333 0 49.833 -5.33301 73.5 -16s44.167 -25.334 61.5 -44.001s30.833 -40.167 40.5 -64.5s14.5 -49.5 14.5 -75.5
s-4.83301 -51 -14.5 -75s-23.167 -45 -40.5 -63c-17.333 -18.667 -37.833 -33.167 -61.5 -43.5s-48.167 -15.5 -73.5 -15.5h-404z" />
    <glyph glyph-name="C" unicode="C" horiz-adv-x="1254" 
d="M28 652c0 -59.333 7.83203 -117.334 23.499 -174.001s37.834 -110.334 66.501 -161.001c28 -49.333 62.333 -94.166 103 -134.499s85.334 -74.833 134.001 -103.5c49.333 -29.333 102.333 -51.833 159 -67.5s114.667 -23.5 174 -23.5c90 0 175.333 16.167 256 48.5
s153.667 81.166 219 146.499c16.667 16.667 25 37.334 25 62.001c0 22.667 -8 42.667 -24 60s-36.667 26 -62 26c-12 0 -23.667 -2.16699 -35 -6.5s-21 -10.5 -29 -18.5c-94 -94 -209 -141 -345 -141c-68 0 -131.833 12.833 -191.5 38.5s-111.834 61.5 -156.501 107.5
c-44.667 44.667 -79.167 96.667 -103.5 156s-36.5 121.666 -36.5 186.999c0 66.667 12.667 129.834 38 189.501s60.333 111.834 105 156.501s96.667 79.5 156 104.5s122 37.5 188 37.5c65.333 0 127.5 -12 186.5 -36s113.167 -60 162.5 -108c16 -16 36 -24 60 -24
c12 0 23.5 2.33301 34.5 7s20.5 11 28.5 19c18 18 27 38.333 27 61c0 21.333 -8.66699 41.666 -26 60.999c-65.333 65.333 -138.333 114.833 -219 148.5s-165 50.5 -253 50.5c-126 0 -240.667 -31.667 -344 -95c-49.333 -30.667 -93.833 -66.667 -133.5 -108
s-73.167 -86.666 -100.5 -135.999c-58 -103.333 -87 -213.333 -87 -330z" />
    <glyph glyph-name="D" unicode="D" horiz-adv-x="1261" 
d="M110 90c0 -25.333 8.66504 -46.668 25.998 -64.001s38.666 -26 63.999 -26h361c58.667 0 116.167 7.66699 172.5 23s109.166 37.333 158.499 66c48 28 92.167 62 132.5 102s74.833 84 103.5 132c28.667 48.667 50.834 100.834 66.501 156.501s23.5 113.167 23.5 172.5
s-7.66699 116.833 -23 172.5s-37.666 108.167 -66.999 157.5c-30 50.667 -65.167 97.5 -105.5 140.5s-83.833 78.167 -130.5 105.5c-49.333 28.667 -102.166 50.667 -158.499 66s-113.833 23 -172.5 23h-361c-25.333 0 -46.666 -8.66699 -63.999 -26s-26 -39 -26 -65v-1136z
M290.998 184.998l-0.000976562 948h275c66.667 0 128.5 -12.833 185.5 -38.5s106.833 -62.167 149.5 -109.5c42 -48 74.5 -100.5 97.5 -157.5s34.5 -115.833 34.5 -176.5s-11.5 -119 -34.5 -175s-55.5 -105.667 -97.5 -149c-43.333 -44.667 -93.666 -79.5 -150.999 -104.5
s-119 -37.5 -185 -37.5h-274z" />
    <glyph glyph-name="E" unicode="E" horiz-adv-x="971" 
d="M110 90c0 -24.667 8.33008 -45.498 24.9971 -62.498s37.334 -26.167 62.001 -27.5h639c25.333 0 46.666 8.66699 63.999 26s26 38.666 26 63.999s-8.66699 46.666 -26 63.999s-38.666 26 -63.999 26l-544 1v391h368c24.667 0 46.334 9.33301 65.001 28
c8 8 14.333 17.5 19 28.5s7 22.5 7 34.5c0 25.333 -8.66699 47.333 -26 66c-18.667 17.333 -40.334 26 -65.001 26h-368v381h544c26 0 47.333 9 64 27c8 8 14.333 17.5 19 28.5s7 22.5 7 34.5c0 26 -8.66699 47.833 -26 65.5s-38.666 26.5 -63.999 26.5h-635
c-25.333 0 -46.666 -8.66699 -63.999 -26c-18 -18 -27 -40 -27 -66v-1136z" />
    <glyph glyph-name="F" unicode="F" horiz-adv-x="976" 
d="M110 90c0 -25.333 8.83203 -46.833 26.499 -64.5s39.167 -26.5 64.5 -26.5s46.833 8.83301 64.5 26.5s26.5 39.167 26.5 64.5v394l403 -1c25.333 0 47 9 65 27c8 8 14.333 17.667 19 29s7 23.333 7 36c0 25.333 -8.66699 47.333 -26 66
c-18.667 17.333 -40.334 26 -65.001 26h-403v469h583c26 0 47.333 9 64 27c8 8 14.333 17.5 19 28.5s7 22.5 7 34.5c0 26 -8.66699 48 -26 66s-38.666 27 -63.999 27h-674c-25.333 0 -46.666 -8.66699 -63.999 -26c-18 -18 -27 -40 -27 -66v-1137z" />
    <glyph glyph-name="G" unicode="G" horiz-adv-x="1297" 
d="M34 652c0 -59.333 7.83398 -117.332 23.501 -173.999s38.167 -110 67.5 -160c28.667 -49.333 63.167 -94.333 103.5 -135s84.833 -75.334 133.5 -104.001c49.333 -29.333 101.666 -51.833 156.999 -67.5s112 -23.5 170 -23.5c186 0 347.667 63 485 189
c20.667 20.667 31 43 31 67v314c0 25.333 -8.83301 46.166 -26.5 62.499s-39.5 24.5 -65.5 24.5l-289 2c-24 0 -44.5 -8.83301 -61.5 -26.5s-25.5 -38.5 -25.5 -62.5s8.5 -44.667 25.5 -62s37.5 -26 61.5 -26h202v-188c-90 -78.667 -200.667 -118 -332 -118
c-66 0 -128.667 13 -188 39s-111.333 62 -156 108c-44 45.333 -78.167 97.5 -102.5 156.5s-36.5 120.833 -36.5 185.5c0 68 12.833 131.833 38.5 191.5s61.167 112.167 106.5 157.5c44.667 44 96.5 78.333 155.5 103s120.833 37 185.5 37c65.333 0 128 -12.167 188 -36.5
s114 -60.166 162 -107.499c16.667 -16.667 36.667 -25 60 -25c24 0 45.333 8.66699 64 26c18 18 27 38.333 27 61c0 22 -8.66699 42.667 -26 62c-134 132.667 -292.667 199 -476 199c-120.667 0 -233 -31 -337 -93c-99.333 -59.333 -178 -139.333 -236 -240
c-59.333 -104 -89 -216 -89 -336z" />
    <glyph glyph-name="H" unicode="H" horiz-adv-x="1193" 
d="M110 90c0 -25.333 8.83301 -46.667 26.5 -64s39.167 -26 64.5 -26s46.833 8.66699 64.5 26s26.5 38.666 26.5 63.999v431h608v-431c0 -25.333 8.83301 -46.666 26.5 -63.999s39.167 -26 64.5 -26c24.667 0 46.334 8.66699 65.001 26c18 18 27 39.333 27 64v1137
c0 24 -9 45.667 -27 65c-18.667 17.333 -40.334 26 -65.001 26c-25.333 0 -46.833 -8.83301 -64.5 -26.5s-26.5 -39.167 -26.5 -64.5v-523h-608v523c0 25.333 -8.83301 46.833 -26.5 64.5s-39.167 26.5 -64.5 26.5s-46.833 -8.83301 -64.5 -26.5s-26.5 -39.167 -26.5 -64.5
v-1137z" />
    <glyph glyph-name="I" unicode="I" horiz-adv-x="426" 
d="M129 87c0 -24 8.66699 -44.502 26 -61.502s38 -25.5 62 -25.5c24.667 0 45.5 8.33301 62.5 25s25.5 37.334 25.5 62.001v1147c0 24.667 -8.5 45.334 -25.5 62.001s-37.833 25 -62.5 25c-24 0 -44.667 -8.5 -62 -25.5s-26 -37.5 -26 -61.5v-1147z" />
    <glyph glyph-name="J" unicode="J" horiz-adv-x="452" 
d="M-214 -196c0 -25.333 8.99609 -46.333 26.9961 -63c8 -8 17.5 -14.5 28.5 -19.5s22.5 -7.5 34.5 -7.5h6c59.333 0.666992 115.333 12.334 168 35.001s99 54 139 94c40 40.667 71.167 87.5 93.5 140.5s33.833 109.5 34.5 169.5v1075c0 25.333 -8.66699 47 -26 65
s-38.666 27 -63.999 27c-12.667 0 -24.667 -2.33301 -36 -7s-21 -11 -29 -19c-8.66699 -8.66699 -15.5 -18.834 -20.5 -30.501s-7.5 -23.5 -7.5 -35.5v-1080c-1.33301 -35.333 -8.66602 -68.333 -21.999 -99s-31 -57 -53 -79c-23.333 -23.333 -50.166 -41.5 -80.499 -54.5
s-63.166 -19.833 -98.499 -20.5h-4c-12 0 -23.5 -2.33301 -34.5 -7s-20.5 -11 -28.5 -19c-18 -18 -27 -39.667 -27 -65z" />
    <glyph glyph-name="K" unicode="K" horiz-adv-x="1051" 
d="M110 87c0 -24 8.66699 -44.501 26 -61.501s38 -25.5 62 -25.5c24.667 0 45.667 8.33301 63 25s26 37.334 26 62.001v474l582 -534c18 -18 38.667 -27 62 -27s44.333 8.66699 63 26c17.333 17.333 26 38 26 62c0 22.667 -8.66699 43.667 -26 63l-580 534l540 482
c18.667 16 28 37.333 28 64c0 24.667 -9 46 -27 64c-18.667 17.333 -39.667 26 -63 26c-21.333 0 -41.333 -8.33301 -60 -25l-545 -490v428c0 24 -8.66699 44.5 -26 61.5s-38.333 25.5 -63 25.5c-24 0 -44.667 -8.5 -62 -25.5s-26 -37.5 -26 -61.5v-1147z" />
    <glyph glyph-name="L" unicode="L" horiz-adv-x="982" 
d="M110 87c0 -22 7 -41.001 21 -57.001s31.667 -25.667 53 -29h2c0 -0.666992 0.333008 -1 1 -1h656c24.667 0 45.334 8.16699 62.001 24.5s25 37.5 25 63.5c0 24.667 -8.33301 45.334 -25 62.001s-37.334 25 -62.001 25l-556 1v1055c0 25.333 -8.66699 46.333 -26 63
s-38.333 25 -63 25s-45.5 -8.33301 -62.5 -25s-25.5 -37.667 -25.5 -63v-1144z" />
    <glyph glyph-name="M" unicode="M" horiz-adv-x="1560" 
d="M110 90c0 -25.333 8.66895 -46.6641 26.002 -63.9971s38.666 -26 63.999 -26s46.833 8.66699 64.5 26s26.5 38.666 26.5 63.999v840c0 27.333 5 53 15 77s24.333 45.333 43 64c18 18 39.167 32.167 63.5 42.5s50.166 15.5 77.499 15.5s53 -5 77 -15
s45.333 -24.333 64 -43c18 -18 32.167 -39.167 42.5 -63.5s15.5 -49.5 15.5 -75.5v-171c0 -25.333 8.66699 -46.833 26 -64.5s38.666 -26.5 63.999 -26.5c26 0 47.833 8.83301 65.5 26.5s26.5 39.167 26.5 64.5v169c0 26.667 5 52.167 15 76.5s24 45.5 42 63.5
c18 18.667 38.833 33.167 62.5 43.5s49.167 15.5 76.5 15.5s53.333 -5 78 -15s46 -24.333 64 -43c18.667 -18.667 33 -40 43 -64s15 -49.667 15 -77v-840c0 -25.333 9 -46.666 27 -63.999s39.667 -26 65 -26s46.833 8.66699 64.5 26s26.5 38.666 26.5 63.999v847
c0 51.333 -9.83301 100.166 -29.5 146.499s-46.834 87.166 -81.501 122.499c-35.333 35.333 -76.5 62.833 -123.5 82.5s-96.167 29.5 -147.5 29.5c-57.333 0 -110.833 -12.167 -160.5 -36.5s-92.167 -57.833 -127.5 -100.5c-36.667 43.333 -80 77 -130 101
s-103.667 36 -161 36c-51.333 0 -100.166 -9.83301 -146.499 -29.5s-86.833 -47.167 -121.5 -82.5c-35.333 -35.333 -62.666 -76 -81.999 -122s-29 -95 -29 -147v-847z" />
    <glyph glyph-name="N" unicode="N" horiz-adv-x="1193" 
d="M110 83c0 -25.333 9 -46.333 27 -63c17.333 -17.333 38.666 -26 63.999 -26s46.833 8.5 64.5 25.5s26.5 38.167 26.5 63.5v730c0 50 6.66699 95.333 20 136s33 75.334 59 104.001c26 28 56.833 49.5 92.5 64.5s75.167 22.5 118.5 22.5c44 0 84.5 -8 121.5 -24
s68.833 -39 95.5 -69c26.667 -30.667 47 -66.5 61 -107.5s21 -85.833 21 -134.5v-722c0 -26 9 -47.333 27 -64c16.667 -16.667 37.667 -25 63 -25c26 0 47.833 8.5 65.5 25.5s26.5 38.167 26.5 63.5v725c0 72 -11 139.167 -33 201.5s-53.667 116.833 -95 163.5
c-42.667 47.333 -94.167 83.833 -154.5 109.5s-127.833 38.5 -202.5 38.5c-72.667 0 -138.167 -12.833 -196.5 -38.5s-108.166 -61.834 -149.499 -108.501c-39.333 -44.667 -69.5 -97 -90.5 -157s-31.5 -123.667 -31.5 -191v-743z" />
    <glyph glyph-name="O" unicode="O" horiz-adv-x="1412" 
d="M43 651c0 -119.333 29.9971 -230.668 89.9971 -334.001c28.667 -48.667 63 -93.167 103 -133.5s84.667 -75.166 134 -104.499c102.667 -60.667 214.334 -91 335.001 -91c90.667 0 176.167 17 256.5 51s151.5 82 213.5 144c61.333 61.333 109.166 132.166 143.499 212.499
s51.5 165.5 51.5 255.5c0 60.667 -7.83301 119.334 -23.5 176.001s-38.167 110 -67.5 160c-29.333 49.333 -64.166 94.333 -104.499 135s-85.166 75 -134.499 103c-105.333 60.667 -217 91 -335 91c-119.333 0 -231 -30.333 -335 -91
c-48.667 -28.667 -93.167 -63.167 -133.5 -103.5s-74.833 -85.166 -103.5 -134.499c-29.333 -50 -51.666 -103.333 -66.999 -160s-23 -115.334 -23 -176.001zM218.997 650.998c0 66 12.5 128.667 37.5 188s59.833 111.333 104.5 156s96.667 79.5 156 104.5
s122 37.5 188 37.5c66.667 0 129.667 -12.5 189 -37.5s111.333 -59.833 156 -104.5s79.5 -96.667 104.5 -156s37.5 -122 37.5 -188c0 -66.667 -12.5 -129.667 -37.5 -189s-59.833 -111.333 -104.5 -156s-96.667 -79.5 -156 -104.5s-122.333 -37.5 -189 -37.5
c-66 0 -128.667 12.5 -188 37.5s-111.333 59.833 -156 104.5s-79.5 96.667 -104.5 156s-37.5 122.333 -37.5 189z" />
    <glyph glyph-name="P" unicode="P" horiz-adv-x="1095" 
d="M90 90c0 -26 8.83203 -47.833 26.499 -65.5s39.167 -26.5 64.5 -26.5s46.166 8.66699 62.499 26s24.833 39.333 25.5 66l4 371c88 -84.667 184.667 -127 290 -127c88.667 0 170.334 22.333 245.001 67s133 103 175 175c44 75.333 66 157.333 66 246
c0 66 -12.833 130.333 -38.5 193s-60.5 116 -104.5 160c-44.667 44.667 -96.667 79.667 -156 105s-121.666 38 -186.999 38c-66 0 -128 -12.5 -186 -37.5s-108.333 -60.167 -151 -105.5c-42.667 -44 -76 -97.167 -100 -159.5s-36 -126.833 -36 -193.5v-732zM265.999 820
c0 80 29.667 153 89 219c27.333 30.667 59.333 54 96 70s76 24 118 24c42.667 0 82.834 -7.66699 120.501 -23s70.167 -37.666 97.5 -66.999c60.667 -64.667 91 -137.334 91 -218.001c0 -42 -8 -81.667 -24 -119s-38.333 -70.333 -67 -99s-61.834 -51 -99.501 -67
s-77.167 -24 -118.5 -24s-80.333 7.83301 -117 23.5s-69 37.5 -97 65.5s-49.833 60.5 -65.5 97.5s-23.5 76.167 -23.5 117.5z" />
    <glyph glyph-name="Q" unicode="Q" horiz-adv-x="1412" 
d="M43 653c0 -120 29.999 -231.667 89.999 -335c28.667 -49.333 63.167 -94.5 103.5 -135.5s85.166 -75.5 134.499 -103.5c105.333 -60.667 217.666 -91 336.999 -91c102.667 0 199 22 289 66c25.333 -38 57 -68.333 95 -91s79.333 -34 124 -34c18.667 0 40 3.16699 64 9.5
s46 15.833 66 28.5c52.667 32 79 76.667 79 134c0 27.333 -9.33301 49 -28 65c-16.667 14 -36.334 21 -59.001 21c-16.667 0 -27.667 -2 -33 -6c-14 -46 -45.333 -69 -94 -69c-24 0 -45.333 13.333 -64 40c70.667 62.667 126 136.334 166 221.001
c41.333 88 62 181.333 62 280c0 121.333 -30.333 233.666 -91 336.999c-29.333 50 -64.166 95.333 -104.499 136s-85.166 75 -134.499 103c-106.667 60.667 -219 91 -337 91c-119.333 0 -231.666 -30.333 -336.999 -91c-49.333 -28.667 -94.166 -63.167 -134.499 -103.5
s-74.833 -85.5 -103.5 -135.5c-60 -104 -90 -216.333 -90 -337zM220.999 653c0 66.667 12.4971 129.834 37.4971 189.501s59.833 111.834 104.5 156.501c45.333 45.333 97.5 80.5 156.5 105.5s121.833 37.5 188.5 37.5s129.834 -12.667 189.501 -38
s111.834 -60.333 156.501 -105s79.667 -96.834 105 -156.501s38 -122.834 38 -189.501c0 -63.333 -10.833 -122.666 -32.5 -177.999s-52.834 -105.333 -93.501 -150c-23.333 51.333 -57.666 92.666 -102.999 123.999c-46.667 32 -99.334 48 -158.001 48
c-38 0 -74.167 -7.16699 -108.5 -21.5s-64.5 -34.5 -90.5 -60.5c-26 -26.667 -46.333 -57.167 -61 -91.5s-22 -70.833 -22 -109.5v-15c-45.333 18 -86.666 42 -123.999 72s-69.666 64.667 -96.999 104c-57.333 84 -86 176.667 -86 278zM664.996 202
c0 34 11.8359 61.668 35.5029 83.001s54.5 32 92.5 32c27.333 0 52.666 -7.33301 75.999 -22s39.666 -33.334 48.999 -56.001h-1l9 -23c-66.667 -34 -139.334 -51 -218.001 -51h-19c-8 0 -14 0.333008 -18 1c-4 12 -6 24 -6 36z" />
    <glyph glyph-name="R" unicode="R" horiz-adv-x="1038" 
d="M90 90c0 -26 8.83301 -47.834 26.5 -65.501s39.167 -26.5 64.5 -26.5s46 8.66699 62 26s24.333 39.333 25 66l4 385l461 -447c18.667 -18.667 41.334 -28 68.001 -28c25.333 0 46.666 9.33301 63.999 28s26 40 26 64c0 10.667 -2.16699 21.334 -6.5 32.001
s-10.5 20 -18.5 28l-257 248c56 8.66699 108.5 25 157.5 49s91.833 54.667 128.5 92c38 38.667 67.333 83.167 88 133.5s31 105.5 31 165.5c0 64 -12.167 126.167 -36.5 186.5s-57.833 111.833 -100.5 154.5c-43.333 42.667 -93.5 76.167 -150.5 100.5
s-117.167 36.5 -180.5 36.5s-123 -12.167 -179 -36.5s-104.667 -57.833 -146 -100.5c-40.667 -42.667 -72.667 -94.167 -96 -154.5s-35 -122.5 -35 -186.5v-750zM278 841.999c0 73.333 27.002 140.668 81.002 202.001c25.333 28 54.666 49.333 87.999 64
s69.666 22 108.999 22c38.667 0 75 -7.16699 109 -21.5s63.667 -35.166 89 -62.499c55.333 -60.667 83 -127.334 83 -200.001c0 -38.667 -7.33301 -75.167 -22 -109.5s-35 -64.5 -61 -90.5c-26 -26.667 -56 -47.334 -90 -62.001s-70 -22 -108 -22
c-38.667 0 -74.834 7.16699 -108.501 21.5s-63.167 34.5 -88.5 60.5s-45.166 56 -59.499 90s-21.5 70 -21.5 108z" />
    <glyph glyph-name="S" unicode="S" horiz-adv-x="1021" 
d="M60 287c0 -14.667 3.99902 -30.665 11.999 -47.998c16 -35.333 38.5 -68.333 67.5 -99s62.833 -57.334 101.5 -80.001c38.667 -23.333 81.334 -41.333 128.001 -54s94.334 -19 143.001 -19c61.333 0 119.333 9.83301 174 29.5s102.334 47.5 143.001 83.5
c41.333 36.667 73.666 79.5 96.999 128.5s35 101.833 35 158.5c0 102 -40 184.667 -120 248c-33.333 26 -72.333 48.667 -117 68s-95 37 -151 53c-47.333 10.667 -87.333 20.667 -120 30s-61.667 20.666 -87 33.999c-62.667 31.333 -94 76.333 -94 135
c0 28.667 6.83301 55 20.5 79s32.167 44.333 55.5 61c22 16 47.833 28.167 77.5 36.5s59.834 12.5 90.501 12.5c56 0 103.333 -8.66699 142 -26c36 -16 74 -44.667 114 -86c17.333 -12 35.333 -18 54 -18c24 0 43.833 8 59.5 24s23.5 35 23.5 57c0 12 -3 23.333 -9 34
c-36 61.333 -89.667 109 -161 143c-68.667 32.667 -144 49 -226 49c-53.333 0 -104.833 -8.66699 -154.5 -26s-94.167 -42 -133.5 -74c-40.667 -33.333 -72.5 -72.666 -95.5 -117.999s-34.5 -95 -34.5 -149c0 -100.667 42 -183.334 126 -248.001
c69.333 -52.667 168.666 -92.667 297.999 -120l24 -7c35.333 -10 65.333 -19.5 90 -28.5s47 -19.5 67 -31.5c27.333 -16.667 48.333 -36.334 63 -59.001s22 -50 22 -82c0 -33.333 -7.5 -63.5 -22.5 -90.5s-35.5 -49.833 -61.5 -68.5
c-24.667 -18 -52.834 -31.667 -84.501 -41s-64.167 -14 -97.5 -14c-64 0 -121.333 13.5 -172 40.5s-90 64.833 -118 113.5c-28 35.333 -55.333 53 -82 53c-10 0 -20.167 -2.16699 -30.5 -6.5s-19.5 -10.166 -27.5 -17.499c-19.333 -17.333 -29 -37.333 -29 -60z" />
    <glyph glyph-name="T" unicode="T" horiz-adv-x="1011" 
d="M19 1231c0 -24.667 8.5 -45.499 25.5 -62.499s37.833 -25.5 62.5 -25.5h312v-1063c0 -24.667 8.16699 -45.5 24.5 -62.5s36.5 -25.5 60.5 -25.5c24.667 0 45.667 8.5 63 25.5s26 37.833 26 62.5v1063h316c24.667 0 45.667 8.16699 63 24.5s26 37.166 26 62.499
c0 23.333 -8.66699 44.333 -26 63c-8 8 -17.5 14.333 -28.5 19s-22.5 7 -34.5 7h-802c-24.667 0 -45.5 -8.5 -62.5 -25.5s-25.5 -37.833 -25.5 -62.5z" />
    <glyph glyph-name="U" unicode="U" horiz-adv-x="1133" 
d="M90 483c0 -68 10.334 -131.667 31.001 -191s51 -111.333 91 -156c41.333 -46.667 91.166 -82.834 149.499 -108.501s123.5 -38.5 195.5 -38.5c74.667 0 142.167 12.833 202.5 38.5s112.166 62.167 155.499 109.5c41.333 46 73 100.167 95 162.5s33 129.5 33 201.5v728
c0 24.667 -9 46 -27 64c-18.667 17.333 -40 26 -64 26c-26 0 -47.833 -8.66699 -65.5 -26s-26.5 -38.666 -26.5 -63.999v-725c0 -48.667 -7 -93.5 -21 -134.5s-34.333 -76.5 -61 -106.5c-26 -30 -57.667 -53.167 -95 -69.5s-78 -24.5 -122 -24.5
c-87.333 0 -157.333 29 -210 87c-26 28 -45.667 62.333 -59 103s-20 86 -20 136v734c0 25.333 -8.83301 46.666 -26.5 63.999s-39.5 26 -65.5 26c-25.333 0 -46.666 -8.66699 -63.999 -26s-26 -38.666 -26 -63.999v-746z" />
    <glyph glyph-name="V" unicode="V" horiz-adv-x="1195" 
d="M43 1232c0 -9.33301 2.66602 -21.002 7.99902 -35.002l465 -1155c7.33301 -17.333 18 -30.666 32 -39.999s30 -14 48 -14c16.667 0 32.167 4.16699 46.5 12.5s25.5 20.166 33.5 35.499l4 8l3 7l461 1146c4.66699 9.33301 7 20.666 7 33.999c0 10.667 -2 21.334 -6 32.001
s-9.66699 20.334 -17 29.001c-18 18 -39.333 27 -64 27c-18 0 -34.167 -4.66699 -48.5 -14s-25.166 -22.666 -32.499 -39.999l-384 -956l-384 956c-7.33301 17.333 -18.5 30.5 -33.5 39.5s-31.5 13.5 -49.5 13.5c-26 0 -47.333 -9 -64 -27
c-8 -8 -14.167 -17.167 -18.5 -27.5s-6.5 -20.833 -6.5 -31.5z" />
    <glyph glyph-name="W" unicode="W" horiz-adv-x="1520" 
d="M90 370c0 -52 9.66504 -100.998 28.998 -146.998s46.666 -86.667 81.999 -122c34.667 -35.333 75.167 -62.833 121.5 -82.5s95.166 -29.5 146.499 -29.5c57.333 0 111 12 161 36s93.333 57.667 130 101c35.333 -42.667 77.833 -76.167 127.5 -100.5
s103.167 -36.5 160.5 -36.5c51.333 0 100.5 9.83301 147.5 29.5s88.167 47.167 123.5 82.5c34.667 35.333 61.834 76.166 81.501 122.499s29.5 95.166 29.5 146.499v858c0 25.333 -8.83301 46.666 -26.5 63.999s-39.167 26 -64.5 26s-47 -8.66699 -65 -26
s-27 -38.666 -27 -63.999v-851c0 -27.333 -5 -53 -15 -77s-24.333 -45.333 -43 -64c-18 -18 -39.333 -32.167 -64 -42.5s-50.667 -15.5 -78 -15.5s-52.833 5.16699 -76.5 15.5s-44.5 24.833 -62.5 43.5c-18 18 -32 39.167 -42 63.5s-15 49.833 -15 76.5v169
c0 25.333 -8.83301 46.833 -26.5 64.5s-39.5 26.5 -65.5 26.5c-25.333 0 -46.666 -8.83301 -63.999 -26.5s-26 -39.167 -26 -64.5v-171c0 -26 -5.16699 -51.167 -15.5 -75.5s-24.5 -45.5 -42.5 -63.5c-18.667 -18.667 -40 -33 -64 -43s-49.667 -15 -77 -15
s-53.166 5.16699 -77.499 15.5s-45.5 24.5 -63.5 42.5c-18.667 18.667 -33 40 -43 64s-15 49.667 -15 77v851c0 25.333 -8.83301 46.666 -26.5 63.999s-39.167 26 -64.5 26s-46.666 -8.66699 -63.999 -26s-26 -38.666 -26 -63.999v-858z" />
    <glyph glyph-name="X" unicode="X" horiz-adv-x="1047" 
d="M41 1229c0 -20 6.99902 -40.332 20.999 -60.999l354 -516l-353 -505c-14 -20 -21 -39 -21 -57c0 -25.333 9.33301 -47 28 -65c18 -18 39 -27 63 -27c26.667 0 47.334 10.333 62.001 31l328 469l329 -469c14.667 -20.667 35 -31 61 -31c24 0 45.333 8.66699 64 26
c18 18 27 38.667 27 62c0 20.667 -7 41 -21 61l-353 505l354 516c13.333 20 20 39.333 20 58c0 26.667 -8.83301 48.5 -26.5 65.5s-38.834 25.5 -63.501 25.5c-25.333 0 -45.666 -10 -60.999 -30l-330 -482l-329 482c-16 20 -37.333 30 -64 30
c-24 0 -44.667 -8.66699 -62 -26c-18 -16.667 -27 -37.334 -27 -62.001z" />
    <glyph glyph-name="Y" unicode="Y" horiz-adv-x="1211" 
d="M22 1227c0 -21.333 7.33301 -40.667 22 -58l475 -608v-474c0 -24.667 8.66699 -45.334 26 -62.001s38.333 -25 63 -25s45.5 8.33301 62.5 25s25.5 37.334 25.5 62.001v475l471 608c14.667 18.667 22 38.667 22 60c0 22 -9 42.667 -27 62c-18 18 -38.333 27 -61 27
c-24.667 0 -46.667 -10 -66 -30l-428 -553l-429 551c-8 10 -18 17.667 -30 23s-24.333 8 -37 8c-24.667 0 -46 -9.66699 -64 -29c-8 -8.66699 -14.167 -18.5 -18.5 -29.5s-6.5 -21.833 -6.5 -32.5z" />
    <glyph glyph-name="Z" unicode="Z" horiz-adv-x="1081" 
d="M40 88c0 -24.667 8.66602 -45.5 25.999 -62.5s38 -25.5 62 -25.5h822c24.667 0 45.334 8.5 62.001 25.5s25 37.833 25 62.5s-8.33301 45.5 -25 62.5s-37.334 25.5 -62.001 25.5h-650l679 994l4 8c10.667 14.667 16 31.667 16 51c0 24.667 -8.16699 45.667 -24.5 63
s-37.166 26.333 -62.499 27h-756c-12 0 -23.5 -2.33301 -34.5 -7s-20.5 -11 -28.5 -19c-18.667 -17.333 -28 -38 -28 -62c0 -25.333 8.66699 -46.666 26 -63.999s38 -26 62 -26h578l-671 -994c-7.33301 -10.667 -12.5 -20.334 -15.5 -29.001s-4.5 -18.667 -4.5 -30z" />
    <glyph glyph-name="bracketleft" unicode="[" horiz-adv-x="581" 
d="M133 -242c0 -25.333 8.66797 -46.833 26.001 -64.5s38.666 -26.5 63.999 -26.5h247c25.333 0 46.666 8.83301 63.999 26.5s26 39.167 26 64.5s-8.5 46 -25.5 62s-38.5 24 -64.5 24h-160v1289h159c26 0 47.333 7.83301 64 23.5s25 36.167 25 61.5c0 26 -8.33301 48 -25 66
c-18 18 -39.333 27 -64 27h-246c-25.333 0 -46.666 -8.83301 -63.999 -26.5s-26 -39.167 -26 -64.5v-1462z" />
    <glyph glyph-name="backslash" unicode="\" horiz-adv-x="587" 
d="M-21 1212c0 -8 1.66699 -17.9971 5 -29.9971l363 -1118c6.66699 -19.333 18 -34.5 34 -45.5s34 -16.833 54 -17.5c12 0 23.5 2.66699 34.5 8s20.5 12.333 28.5 21c16 17.333 24 37.666 24 60.999c0 11.333 -1.33301 20.666 -4 27.999l-363 1128
c-6.66699 19.333 -18 34.5 -34 45.5s-34 16.5 -54 16.5c-26 0 -47 -9.66699 -63 -29c-16.667 -18.667 -25 -41.334 -25 -68.001z" />
    <glyph glyph-name="bracketright" unicode="]" horiz-adv-x="581" 
d="M-22 -242c0 -26 9.00195 -47.333 27.002 -64c17.333 -18.667 38.666 -28 63.999 -28h246c25.333 0 46.666 9 63.999 27s26 39.667 26 65v1458v4c0 24 -8.66699 45.333 -26 64c-18 18 -39.333 27 -64 27h-245c-24.667 0 -46 -9 -64 -27
c-17.333 -18.667 -26 -40.667 -26 -66s8.5 -45.833 25.5 -61.5s38.5 -23.5 64.5 -23.5h158v-1289h-159c-25.333 0 -46.833 -8.16699 -64.5 -24.5s-26.5 -36.833 -26.5 -61.5z" />
    <glyph glyph-name="asciicircum" unicode="^" horiz-adv-x="1178" 
d="M43 547c0 -8.66699 2 -17.332 6 -25.999s9.33301 -16.334 16 -23.001c14.667 -14.667 32 -22 52 -22c22.667 0 42 10.333 58 31l397 563l396 -562c14.667 -20.667 34 -31 58 -31c20 0 37.167 7.16699 51.5 21.5s21.5 31.5 21.5 51.5c0 15.333 -5 30 -15 44l-452 645
c-16 19.333 -35.667 29 -59 29c-26.667 0 -47 -10 -61 -30l-454 -648c-10 -14.667 -15 -29 -15 -43z" />
    <glyph glyph-name="underscore" unicode="_" horiz-adv-x="1070" 
d="M61 -91c0 -26.667 8.66699 -48.332 26 -64.999s40 -25 68 -25h754c26.667 0 49.5 8.5 68.5 25.5s28.5 38.5 28.5 64.5c0 25.333 -9.33301 46.166 -28 62.499s-41.667 24.5 -69 24.5h-754c-28 0 -50.667 -8 -68 -24s-26 -37 -26 -63z" />
    <glyph glyph-name="grave" unicode="`" horiz-adv-x="510" 
d="M41 1667c0 -19.333 5.83203 -36.499 17.499 -51.499s27.5 -25.167 47.5 -30.5l193 -82c8.66699 -2 17 -3 25 -3c24.667 0 45.334 8.33301 62.001 25c17.333 16 26 37.333 26 64c0 20 -5.83301 37.833 -17.5 53.5s-27.5 26.167 -47.5 31.5l-192 82c-8 2 -16 3 -24 3
c-12 0 -23.5 -2.33301 -34.5 -7s-20.5 -11 -28.5 -19c-8 -8.66699 -14.5 -18.834 -19.5 -30.501s-7.5 -23.5 -7.5 -35.5z" />
    <glyph glyph-name="a" unicode="a" 
d="M48 476c0 -66.667 12.502 -129.67 37.502 -189.003s59.833 -111.333 104.5 -156c44.667 -45.333 96.334 -80.5 155.001 -105.5s121 -37.5 187 -37.5c57.333 0 112.166 9.5 164.499 28.5s99.833 46.167 142.5 81.5l1 -14c0 -26 8 -47.667 24 -65s36.667 -26 62 -26
s46.666 8.83301 63.999 26.5s26 39.167 26 64.5v398c-1.33301 66 -14.5 128.333 -39.5 187s-59.5 110.334 -103.5 155.001c-44.667 44.667 -96.167 79.334 -154.5 104.001s-120.5 37 -186.5 37s-128.333 -12.5 -187 -37.5s-110.334 -60.167 -155.001 -105.5
s-79.5 -97.666 -104.5 -156.999s-37.5 -122.333 -37.5 -189zM225.002 475.997c0 42 7.83008 81.833 23.4971 119.5s37.5 70.834 65.5 99.501s60.667 51 98 67s77.333 24 120 24s82.834 -8 120.501 -24s70.834 -38.333 99.501 -67c28 -28.667 49.667 -61.834 65 -99.501
s23 -77.5 23 -119.5s-7.66699 -81.833 -23 -119.5s-37 -70.834 -65 -99.501c-28.667 -29.333 -61.667 -52 -99 -68s-77.666 -24 -120.999 -24c-42.667 0 -82.667 8 -120 24s-70 38.667 -98 68c-28 28.667 -49.833 61.834 -65.5 99.501s-23.5 77.5 -23.5 119.5z" />
    <glyph glyph-name="b" unicode="b" 
d="M89 476c0 -66 12.666 -128.665 37.999 -187.998s60.666 -111.333 105.999 -156c44.667 -44.667 96.834 -79.667 156.501 -105s122.5 -38 188.5 -38s128.833 12.667 188.5 38s111.834 60.333 156.501 105s79.5 96.667 104.5 156s37.5 122 37.5 188
c0 66.667 -12.5 129.667 -37.5 189s-59.833 111.666 -104.5 156.999c-44.667 44.667 -96.834 79.667 -156.501 105s-122.5 38 -188.5 38c-32.667 0 -65.167 -4.66699 -97.5 -14s-62.5 -22.333 -90.5 -39s-52.833 -36.5 -74.5 -59.5s-38.5 -47.833 -50.5 -74.5v448
c0 26 -8.16699 47.667 -24.5 65s-37.166 26 -62.499 26c-24.667 0 -45.667 -8.66699 -63 -26c-17.333 -18.667 -26 -40.334 -26 -65.001v-750zM265.999 476.002c0 42.667 8 82.834 24 120.501s38.333 70.834 67 99.501s62 50.834 100 66.501s78.333 23.5 121 23.5
s83 -7.83301 121 -23.5s71.333 -37.834 100 -66.501s50.834 -61.834 66.501 -99.501s23.5 -77.834 23.5 -120.501c0 -42 -7.83301 -81.833 -23.5 -119.5s-37.834 -70.834 -66.501 -99.501s-62 -51 -100 -67s-78.333 -24 -121 -24s-83 8 -121 24s-71.333 38.333 -100 67
s-51 61.834 -67 99.501s-24 77.5 -24 119.5z" />
    <glyph glyph-name="c" unicode="c" horiz-adv-x="944" 
d="M44 471c0 -66 12.667 -128.334 38 -187.001s60.666 -110.334 105.999 -155.001c45.333 -44 97.833 -78.333 157.5 -103s122.834 -37 189.501 -37c64 0 125 11.333 183 34s107.667 54.667 149 96c10 10 17.667 21.5 23 34.5s8 25.833 8 38.5c0 24 -10 45.333 -30 64
c-8 7.33301 -17.333 13 -28 17s-20.334 6 -29.001 6c-14 0 -28.333 -4 -43 -12l-70 -49c-26.667 -18.667 -53.667 -31.667 -81 -39s-57.333 -11 -90 -11c-42.667 0 -82.334 8.33301 -119.001 25s-69 40 -97 70c-27.333 28 -48.5 60.667 -63.5 98s-22.5 76 -22.5 116
c0 39.333 7.5 77.333 22.5 114s35.833 69.334 62.5 98.001s58 51.5 94 68.5s74.333 26.167 115 27.5c34 0 65.167 -3.66699 93.5 -11s56.833 -20.333 85.5 -39l70 -50c13.333 -7.33301 27.333 -11 42 -11c8.66699 0 18.334 2 29.001 6s20.334 9.66699 29.001 17
c20.667 17.333 31 38.666 31 63.999s-10.667 49.666 -32 72.999c-42 42 -91.833 74.333 -149.5 97s-118.5 34 -182.5 34c-67.333 0 -131 -12.667 -191 -38s-112.333 -60.666 -157 -105.999c-45.333 -45.333 -80.5 -98.166 -105.5 -158.499s-37.5 -124.166 -37.5 -191.499z
" />
    <glyph glyph-name="d" unicode="d" 
d="M44 476c0 -66 12.668 -128.831 38.001 -188.498s60.666 -111.834 105.999 -156.501c45.333 -45.333 97.5 -80.5 156.5 -105.5s121.5 -37.5 187.5 -37.5s128.667 12.5 188 37.5s111.333 59.833 156 104.5s79.667 96.167 105 154.5s38.333 120.166 39 185.499v755
c0 26 -8.5 47.833 -25.5 65.5s-38.167 26.5 -63.5 26.5s-46.333 -8.83301 -63 -26.5s-25 -39.5 -25 -65.5v-438c-30 57.333 -69 101 -117 131c-50.667 31.333 -115.334 47 -194.001 47c-66 0 -128.5 -12.5 -187.5 -37.5s-111.167 -60.167 -156.5 -105.5
s-80.666 -97.833 -105.999 -157.5s-38 -122.5 -38 -188.5zM221.001 476.002c0 42 8 81.833 24 119.5s38.333 70.834 67 99.501s61.834 51 99.501 67s77.834 24 120.501 24c43.333 0 83.833 -8 121.5 -24s70.834 -38.333 99.501 -67s50.834 -61.834 66.501 -99.501
s23.5 -77.5 23.5 -119.5s-7.83301 -81.833 -23.5 -119.5s-37.834 -70.834 -66.501 -99.501c-28.667 -29.333 -61.834 -52 -99.501 -68s-78.167 -24 -121.5 -24c-42.667 0 -82.834 8 -120.501 24s-70.834 38.667 -99.501 68c-28.667 28.667 -51 61.834 -67 99.501
s-24 77.5 -24 119.5z" />
    <glyph glyph-name="e" unicode="e" horiz-adv-x="1068" 
d="M44 476c0 -66 12.668 -128.83 38.001 -188.497s60.666 -111.834 105.999 -156.501c44.667 -44.667 97 -79.667 157 -105s123 -38 189 -38c39.333 0 76.833 3 112.5 9s66.834 14.667 93.501 26c58.667 24.667 88 57.334 88 98.001c0 12 -2.33301 23.667 -7 35
s-11 21.333 -19 30c-18 18 -38.333 27 -61 27c-16.667 0 -34.334 -5.33301 -53.001 -16c-23.333 -14 -46.5 -24 -69.5 -30s-51.167 -9 -84.5 -9c-35.333 0 -69.166 5.83301 -101.499 17.5s-61.833 28.5 -88.5 50.5c-26 22 -48 47.333 -66 76s-30.667 60 -38 94h698
c25.333 0 46 8 62 24s24 36 24 60c-0.666992 65.333 -13.834 127.666 -39.501 186.999s-60.834 111.333 -105.501 156c-45.333 44.667 -97.833 79.5 -157.5 104.5s-122.167 37.5 -187.5 37.5c-66 0 -129 -12.667 -189 -38s-112.333 -60.333 -157 -105
c-45.333 -44.667 -80.666 -96.834 -105.999 -156.501s-38 -122.834 -38 -189.501zM235.001 544.003c6 34.667 17.667 67.501 35 98.501s39.333 57.833 66 80.5c26.667 23.333 57.167 41.333 91.5 54s70.833 19 109.5 19c38 0 74.333 -6.33301 109 -19
s65.667 -30.334 93 -53.001s50 -49.5 68 -80.5s30 -64.167 36 -99.5h-608z" />
    <glyph glyph-name="f" unicode="f" horiz-adv-x="703" 
d="M22 -205c0 -25.333 8.66895 -46.668 26.002 -64.001s38 -26 62 -26c43.333 0 84.333 8.33301 123 25s72.667 40 102 70s52.166 64.333 68.499 103s24.5 79.667 24.5 123v487h120c25.333 0 46.666 8.66699 63.999 26s26 38.333 26 63c0 24 -8.66699 44.667 -26 62
s-38.666 26 -63.999 26h-120v313c0.666992 18 4.83398 35.667 12.501 53s17.834 32.333 30.501 45c12 12.667 26.5 22.667 43.5 30s35.167 11 54.5 11h1c24.667 0 45.667 8.5 63 25.5s26 37.5 26 61.5c0 25.333 -8.66699 46.666 -26 63.999s-38.666 26 -63.999 26
c-43.333 0 -84.333 -8.16699 -123 -24.5s-72.334 -39.166 -101.001 -68.499s-51.334 -63.333 -68.001 -102s-25.334 -79 -26.001 -121v-313h-72c-24.667 0 -45.667 -8.66699 -63 -26s-26 -38 -26 -62c0 -25.333 8.33301 -46.333 25 -63
c17.333 -17.333 38.666 -26 63.999 -26h72v-487c0 -38 -13 -71 -39 -99c-28 -29.333 -61 -44.333 -99 -45h-3c-24 0 -44.667 -8.66699 -62 -26s-26 -37.666 -26 -60.999z" />
    <glyph glyph-name="g" unicode="g" horiz-adv-x="1067" 
d="M44 476c0 -66 12.667 -128.832 38 -188.499s60.666 -111.834 105.999 -156.501c45.333 -45.333 97.5 -80.5 156.5 -105.5s121.5 -37.5 187.5 -37.5c102 0 194 28.667 276 86l11 -17c4.66699 -7.33301 8.33398 -14.333 11.001 -21c6.66699 -18 10 -40 10 -66
c0 -118.667 -79 -178 -237 -178c-22 0 -38 0.333008 -48 1h-46c-26.667 0 -49.167 -0.666992 -67.5 -2s-37.166 -4.33301 -56.499 -9c-48.667 -12.667 -87.334 -28.667 -116.001 -48c-34 -23.333 -51 -50.333 -51 -81c0 -11.333 2.66699 -22.666 8 -33.999
s12.333 -21 21 -29c18 -18 39.333 -27 64 -27c20.667 0 38.334 7 53.001 21c38.667 28.667 86 43 142 43c23.333 0 50 -1.66699 80 -5c26.667 -4 52.667 -6 78 -6c46 0 90 7.66699 132 23s79 38 111 68c34 31.333 60.333 69.333 79 114s28 95 28 151
c0 97.333 -26 174 -78 230c56 84.667 84 176 84 274c0 66.667 -12.5 129.667 -37.5 189s-59.833 111.666 -104.5 156.999c-44.667 44.667 -96.834 79.667 -156.501 105s-122.834 38 -189.501 38c-66 0 -128.5 -12.5 -187.5 -37.5s-111.167 -60.167 -156.5 -105.5
s-80.666 -97.833 -105.999 -157.5s-38 -122.5 -38 -188.5zM221 476.001c0 42 8 81.833 24 119.5s38.333 70.834 67 99.501s61.834 51 99.501 67s77.834 24 120.501 24c43.333 0 84 -8 122 -24s71.333 -38.333 100 -67s50.834 -61.834 66.501 -99.501s23.5 -77.5 23.5 -119.5
s-7.83301 -81.833 -23.5 -119.5s-37.834 -70.834 -66.501 -99.501c-28.667 -29.333 -62 -52 -100 -68s-78.667 -24 -122 -24c-42.667 0 -82.834 8 -120.501 24s-70.834 38.667 -99.501 68c-28.667 28.667 -51 61.834 -67 99.501s-24 77.5 -24 119.5z" />
    <glyph glyph-name="h" unicode="h" horiz-adv-x="1133" 
d="M94 88c0 -24.667 8.49902 -45.502 25.499 -62.502s38.167 -25.5 63.5 -25.5c24.667 0 45.5 8.5 62.5 25.5s25.5 37.833 25.5 62.5v412c0 39.333 8.66699 76.833 26 112.5s41 66.834 71 93.501c30 26 63.833 46.333 101.5 61s76.5 22 116.5 22s76.5 -7.5 109.5 -22.5
s61.5 -36.167 85.5 -63.5c23.333 -26.667 41.333 -58.167 54 -94.5s19 -74.833 19 -115.5v-407c0 -25.333 8.33301 -46.166 25 -62.499s37.334 -24.5 62.001 -24.5s45.667 8.16699 63 24.5s26 37.166 26 62.499v408c0 64 -10.833 124.833 -32.5 182.5
s-52.167 107.834 -91.5 150.501c-40 43.333 -87.5 77.166 -142.5 101.499s-114.167 36.5 -177.5 36.5c-61.333 0 -119 -13.667 -173 -41s-101.333 -65.666 -142 -114.999v418c0 25.333 -8.66699 46.666 -26 63.999s-38 26 -62 26c-12 0 -23.5 -2.33301 -34.5 -7
s-20.5 -11 -28.5 -19c-17.333 -17.333 -26 -38.666 -26 -63.999v-1139z" />
    <glyph glyph-name="i" unicode="i" horiz-adv-x="383" 
d="M91 1183c0 -26.667 10.001 -50.001 30.001 -70.001s43.667 -30 71 -30c26 0 49.667 10 71 30c20 18.667 30 42 30 70c0 28.667 -10 52.334 -30 71.001c-20.667 19.333 -44.334 29 -71.001 29c-28 0 -51.667 -9.66699 -71 -29c-20 -20 -30 -43.667 -30 -71z
M102.001 80.999c0 -24.667 8.83105 -45.5 26.498 -62.5s38.834 -25.5 63.501 -25.5c24 0 44.5 8.5 61.5 25.5s25.5 37.833 25.5 62.5v795c0 24.667 -8.33301 45.667 -25 63s-37 26 -61 26c-25.333 0 -46.666 -8.66699 -63.999 -26c-18 -16.667 -27 -37.667 -27 -63v-795z
" />
    <glyph glyph-name="j" unicode="j" horiz-adv-x="443" 
d="M-105 -205c0 -25.333 8.66504 -46.6689 25.998 -64.002c16.667 -16.667 37.667 -25 63 -25h7c42.667 0 83.5 8.33301 122.5 25s73.167 39.667 102.5 69s52.333 63.5 69 102.5s25 80.167 25 123.5v848c0 25.333 -8.66699 46.666 -26 63.999s-38 26 -62 26
s-44.667 -8.66699 -62 -26c-18 -16.667 -27 -38 -27 -64v-848c0 -39.333 -13.667 -72.666 -41 -99.999c-13.333 -13.333 -28.666 -23.666 -45.999 -30.999s-35.666 -11 -54.999 -11h-7c-25.333 0 -46.333 -8.33301 -63 -25c-17.333 -17.333 -26 -38.666 -26 -63.999z
M122.998 1181c0 -28 9.16602 -51.834 27.499 -71.501s41.5 -29.5 69.5 -29.5s52 10 72 30s30 43.667 30 71c0 28.667 -9.33301 52.667 -28 72s-42.334 29 -71.001 29c-27.333 0 -50.666 -9.66699 -69.999 -29c-9.33301 -9.33301 -16.666 -20.166 -21.999 -32.499
s-8 -25.5 -8 -39.5z" />
    <glyph glyph-name="k" unicode="k" horiz-adv-x="867" 
d="M94 87c0 -24.667 8.66699 -45.333 26 -62s38.333 -25 63 -25c24 -0 44.5 8.33301 61.5 25s25.5 37.334 25.5 62.001v316l397 -374c18 -18 40 -27 66 -27c22.667 0 43 9 61 27c8 8 14.333 17.5 19 28.5s7 22.5 7 34.5c0 24 -8 43.333 -24 58l-376 353l319 296
c18.667 16.667 28 37.667 28 63c0 23.333 -9 44 -27 62c-17.333 17.333 -38 26 -62 26s-44 -7.66699 -60 -23l-348 -323l1 620c0 24 -8.33301 44.5 -25 61.5s-37.667 25.5 -63 25.5c-23.333 0 -44 -8.33301 -62 -25s-27 -37.334 -27 -62.001v-1137z" />
    <glyph glyph-name="l" unicode="l" horiz-adv-x="564" 
d="M122 334c0 -49.333 8.33203 -94.5 24.999 -135.5s40.334 -76.5 71.001 -106.5c30 -30 65.333 -53 106 -69s84.667 -24 132 -24c25.333 0 46 8.16699 62 24.5s24 37.166 24 62.499c0 24.667 -8.16699 45.334 -24.5 62.001s-37.166 25 -62.499 25
c-48.667 0 -86.834 14 -114.501 42s-41.5 67.667 -41.5 119v888c0 24.667 -9 46 -27 64c-18 16.667 -39.333 25 -64 25c-24 0 -44.333 -8.5 -61 -25.5s-25 -38.167 -25 -63.5v-888z" />
    <glyph glyph-name="m" unicode="m" horiz-adv-x="1318" 
d="M94 88c0 -25.333 8.67188 -46.335 26.0049 -63.002s38.333 -25 63 -25c24 0 44.5 8.33301 61.5 25s25.5 37.667 25.5 63l3 545c0 2 -0.666992 7.66699 -2 17c2.66699 18.667 8.5 36.167 17.5 52.5s20.5 30.5 34.5 42.5c29.333 26 63.333 39 102 39
c21.333 0 41.166 -4.16699 59.499 -12.5s34.833 -19.833 49.5 -34.5c29.333 -31.333 44 -68.666 44 -111.999v-200c0 -25.333 8.5 -46.5 25.5 -63.5s37.833 -25.5 62.5 -25.5c24 0 44.667 8.66699 62 26s26 38.333 26 63v204c0 6.66699 -0.333008 10.667 -1 12
c1.33301 19.333 6.16602 37.833 14.499 55.5s19.5 32.834 33.5 45.501c28.667 27.333 63 41 103 41c21.333 0 41.666 -4 60.999 -12s36.333 -19.333 51 -34s26 -31.667 34 -51s12 -39.333 12 -60v-538c0 -25.333 8.5 -46.333 25.5 -63s37.833 -25 62.5 -25
s45.5 8.33301 62.5 25s25.5 37.667 25.5 63v548c0 44 -8.83301 86.167 -26.5 126.5s-41.834 75.833 -72.501 106.5c-31.333 30 -67.333 53.5 -108 70.5s-83.334 25.5 -128.001 25.5c-46.667 0 -90.667 -9.33301 -132 -28s-77.333 -44.667 -108 -78
c-31.333 33.333 -67.666 59.333 -108.999 78s-85.333 28 -132 28c-44.667 0 -86.834 -8.5 -126.501 -25.5s-74.5 -40.5 -104.5 -70.5c-30.667 -30.667 -54.5 -66 -71.5 -106s-25.5 -82.333 -25.5 -127v-548z" />
    <glyph glyph-name="n" unicode="n" horiz-adv-x="1088" 
d="M69 87c0 -24.667 9.33105 -45.333 27.998 -62c16.667 -16.667 37.667 -25 63 -25c24.667 0 45.167 8.16699 61.5 24.5s24.5 37.166 24.5 62.499v407c0 40 7 78 21 114s34 67.333 60 94c26 27.333 56.167 48.333 90.5 63s71.5 22 111.5 22
c39.333 0 76.5 -7.66699 111.5 -23s65.833 -36.666 92.5 -63.999c26 -26.667 46.167 -58 60.5 -94s21.833 -74 22.5 -114v-405c0 -25.333 8.66699 -46.166 26 -62.499s38.333 -24.5 63 -24.5s45.334 8.16699 62.001 24.5s25 37.166 25 62.499v407
c0 64 -11.667 124.667 -35 182s-56 107.666 -98 150.999c-43.333 43.333 -93.166 77.166 -149.499 101.499s-116.5 36.5 -180.5 36.5c-63.333 0 -123 -12.167 -179 -36.5s-105.333 -58.166 -148 -101.499c-42 -43.333 -74.667 -93.666 -98 -150.999s-35 -118 -35 -182v-407z
" />
    <glyph glyph-name="o" unicode="o" horiz-adv-x="1064" 
d="M44 476c0 -66 12.667 -128.831 38 -188.498s60.666 -111.834 105.999 -156.501c45.333 -45.333 97.5 -80.5 156.5 -105.5s121.5 -37.5 187.5 -37.5c66.667 0 129.834 12.667 189.501 38s111.834 60.333 156.501 105s79.5 96.667 104.5 156s37.5 122.333 37.5 189
s-12.5 129.667 -37.5 189s-59.833 111.666 -104.5 156.999c-44.667 44.667 -96.834 79.667 -156.501 105s-122.834 38 -189.501 38c-66 0 -128.5 -12.5 -187.5 -37.5s-111.167 -60.167 -156.5 -105.5s-80.666 -97.833 -105.999 -157.5s-38 -122.5 -38 -188.5zM221 476.002
c0 42 8 81.833 24 119.5s38.333 70.834 67 99.501s61.834 51 99.501 67s77.834 24 120.501 24c43.333 0 83.833 -8 121.5 -24s70.834 -38.333 99.501 -67s50.834 -61.834 66.501 -99.501s23.5 -77.5 23.5 -119.5s-7.83301 -81.833 -23.5 -119.5
s-37.834 -70.834 -66.501 -99.501c-28.667 -29.333 -61.834 -52 -99.501 -68s-78.167 -24 -121.5 -24c-42.667 0 -82.834 8 -120.501 24s-70.834 38.667 -99.501 68c-28.667 28.667 -51 61.834 -67 99.501s-24 77.5 -24 119.5z" />
    <glyph glyph-name="p" unicode="p" 
d="M89 -255c0 -26 8.83203 -47.832 26.499 -65.499s38.834 -26.5 63.501 -26.5c25.333 0 46 8.83301 62 26.5s24 39.5 24 65.5v356c43.333 -36.667 91.333 -64.667 144 -84s109 -29 169 -29c66 0 128.833 12.667 188.5 38s111.834 60.333 156.501 105s79.5 96.667 104.5 156
s37.5 122.333 37.5 189s-12.5 129.667 -37.5 189s-59.833 111.666 -104.5 156.999c-44.667 44.667 -96.834 79.667 -156.501 105s-122.5 38 -188.5 38s-128.833 -12.667 -188.5 -38s-111.834 -60.333 -156.501 -105c-45.333 -45.333 -80.666 -97.833 -105.999 -157.5
s-38 -122.5 -38 -188.5v-731zM265.999 476.001c0 42 8 81.833 24 119.5s38.333 70.834 67 99.501s62 51 100 67s78.333 24 121 24s83 -8 121 -24s71.333 -38.333 100 -67s50.834 -61.834 66.501 -99.501s23.5 -77.5 23.5 -119.5s-7.83301 -81.833 -23.5 -119.5
s-37.834 -70.834 -66.501 -99.501c-28.667 -29.333 -62 -52 -100 -68s-78.333 -24 -121 -24s-83 8 -121 24s-71.333 38.667 -100 68c-28.667 28.667 -51 61.834 -67 99.501s-24 77.5 -24 119.5z" />
    <glyph glyph-name="q" unicode="q" 
d="M44 476c0 -66 12.666 -128.83 37.999 -188.497s60.666 -111.834 105.999 -156.501c45.333 -45.333 97.5 -80.5 156.5 -105.5s121.5 -37.5 187.5 -37.5c58.667 0 114.334 9.66699 167.001 29s100.667 46.666 144 81.999v-354c0 -26 8.16699 -47.833 24.5 -65.5
s37.166 -26.5 62.499 -26.5c24.667 0 45.834 8.83301 63.501 26.5s26.5 39.5 26.5 65.5v735c-0.666992 65.333 -13.667 127.666 -39 186.999s-60.333 111.333 -105 156s-96.667 79.5 -156 104.5s-122 37.5 -188 37.5s-128.5 -12.5 -187.5 -37.5
s-111.167 -60.167 -156.5 -105.5s-80.666 -97.833 -105.999 -157.5s-38 -122.5 -38 -188.5zM220.999 476.003c0 42 8 81.833 24 119.5s38.333 70.834 67 99.501s61.834 51 99.501 67s77.834 24 120.501 24c43.333 0 83.833 -8 121.5 -24s70.834 -38.333 99.501 -67
s50.834 -61.834 66.501 -99.501s23.5 -77.5 23.5 -119.5s-7.83301 -81.833 -23.5 -119.5s-37.834 -70.834 -66.501 -99.501c-28.667 -29.333 -61.834 -52 -99.501 -68s-78.167 -24 -121.5 -24c-42.667 0 -82.834 8 -120.501 24s-70.834 38.667 -99.501 68
c-28.667 28.667 -51 61.834 -67 99.501s-24 77.5 -24 119.5z" />
    <glyph glyph-name="r" unicode="r" horiz-adv-x="716" 
d="M89 88c0 -24.667 9.33496 -45.6689 28.002 -63.002c16.667 -16.667 37.667 -25 63 -25c24 0 44.167 8.33301 60.5 25s24.5 37.667 24.5 63v366c0 45.333 8.66699 88.333 26 129s41.666 76.667 72.999 108c30.667 30.667 66 54.667 106 72s82.333 26 127 26h5
c26 0 47.833 8.33301 65.5 25s26.5 37.667 26.5 63c0 26 -8 47.167 -24 63.5s-38.667 24.5 -68 24.5h-5c-68.667 0 -133.834 -13.167 -195.501 -39.5s-116.167 -63.166 -163.5 -110.499c-46.667 -47.333 -83.167 -102.166 -109.5 -164.499s-39.5 -127.833 -39.5 -196.5v-366
z" />
    <glyph glyph-name="s" unicode="s" horiz-adv-x="883" 
d="M55 90c0 -26.667 7.66602 -48.334 22.999 -65.001s34.666 -25 57.999 -25h415c40 0 77.5 7.5 112.5 22.5s65.5 36.167 91.5 63.5c26 26 46 56.5 60 91.5s21 72.167 21 111.5c0 38 -7 74.833 -21 110.5s-33.667 66.834 -59 93.501
c-25.333 27.333 -55.666 48.666 -90.999 63.999s-72.666 23 -111.999 23h-201c-26.667 0 -50.667 10 -72 30c-20.667 18.667 -31 43.334 -31 74.001c0 27.333 10 51.666 30 72.999c20.667 20.667 45 31 73 31h351c22.667 0 42.334 9 59.001 27
c16 17.333 24 38.666 24 63.999c0 26.667 -8.33301 47.667 -25 63s-37.667 23 -63 23h-347c-38 0 -74 -7 -108 -21s-63.667 -33.667 -89 -59s-45.333 -54.833 -60 -88.5s-22 -69.167 -22 -106.5c0 -38 7 -74.5 21 -109.5s33.667 -65.5 59 -91.5
c26 -27.333 56 -48.666 90 -63.999s70.333 -23 109 -23h181h5c32 -1.33301 60.333 -10.666 85 -27.999c25.333 -18.667 38 -45.667 38 -81c0 -36 -13.333 -65 -40 -87c-12 -10 -25.333 -17.5 -40 -22.5s-29.334 -7.5 -44.001 -7.5h-400c-24 0 -43.5 -7.83301 -58.5 -23.5
s-22.5 -36.5 -22.5 -62.5z" />
    <glyph glyph-name="t" unicode="t" horiz-adv-x="949" 
d="M89 470c0 -66.667 12.6709 -129.333 38.0039 -188s60.666 -110.334 105.999 -155.001c44.667 -44 96.667 -78.167 156 -102.5s122.666 -36.5 189.999 -36.5c126 0 231 40 315 120c10 10 17.833 21.833 23.5 35.5s8.5 27.167 8.5 40.5c0 23.333 -8 43 -24 59
c-16.667 15.333 -35.334 23 -56.001 23c-23.333 0 -45.666 -10 -66.999 -30c-52 -48 -118.667 -72 -200 -72c-42.667 0 -82.834 7.66699 -120.501 23s-70.5 37 -98.5 65c-28.667 28 -50.834 60.5 -66.501 97.5s-23.5 76.5 -23.5 118.5v326h397
c25.333 0 46.5 8.16699 63.5 24.5s25.5 36.5 25.5 60.5c0 24.667 -8.66699 45.834 -26 63.501s-38.333 26.5 -63 26.5h-397v196c0 24.667 -9 46 -27 64c-8.66699 8 -18.667 14.333 -30 19s-23 7 -35 7c-24 0 -44.667 -8.66699 -62 -26c-18 -18 -27 -39.333 -27 -64v-695z
" />
    <glyph glyph-name="u" unicode="u" horiz-adv-x="1088" 
d="M89 458c0 -63.333 11.8311 -123.669 35.498 -181.002s56.834 -107.666 99.501 -150.999s92.167 -77.166 148.5 -101.499s116.5 -36.5 180.5 -36.5c63.333 0 122.333 12.167 177 36.5s102.334 58.166 143.001 101.499c40 43.333 71 93.5 93 150.5s33 117.5 33 181.5v419
c0 24.667 -8.16699 45.5 -24.5 62.5s-37.166 25.5 -62.499 25.5c-12 0 -23.5 -2.33301 -34.5 -7s-20.5 -11 -28.5 -19c-18 -18 -27 -38.667 -27 -62v-418c0 -40 -6.5 -78 -19.5 -114s-31.167 -67.333 -54.5 -94c-24 -27.333 -52.667 -48.5 -86 -63.5
s-69.666 -22.5 -108.999 -22.5c-40 0 -77.333 7.33301 -112 22s-65 35.334 -91 62.001c-26.667 26.667 -47.334 57.5 -62.001 92.5s-22.334 72.167 -23.001 111.5v424c0 24.667 -8.66699 45.5 -26 62.5s-38 25.5 -62 25.5c-24.667 0 -45.5 -8.5 -62.5 -25.5
s-25.5 -37.833 -25.5 -62.5v-419z" />
    <glyph glyph-name="v" unicode="v" horiz-adv-x="929" 
d="M43 876c0 -13.333 2.66797 -25.999 8.00098 -37.999l332 -789c6.66699 -16 17 -29 31 -39s31.667 -15 53 -15c17.333 0 32.666 4.83301 45.999 14.5s24.333 22.834 33 39.501l332 789c6 14.667 8.66699 27 8 37c0 23.333 -8.66699 43.666 -26 60.999
c-18 18 -38.667 27 -62 27c-16.667 0 -32.5 -4.83301 -47.5 -14.5s-26.167 -22.5 -33.5 -38.5l-252 -615l-254 615c-7.33301 17.333 -18 30.666 -32 39.999s-30 14 -48 14c-25.333 0 -46.333 -9 -63 -27c-16.667 -16.667 -25 -37 -25 -61z" />
    <glyph glyph-name="w" unicode="w" horiz-adv-x="1318" 
d="M94 319c0 -44.667 8.49512 -87.002 25.4951 -127.002s40.833 -75 71.5 -105c30 -30.667 64.833 -54.5 104.5 -71.5s81.834 -25.5 126.501 -25.5c46.667 0 90.667 9.33301 132 28s77.666 44.667 108.999 78c30.667 -33.333 66.667 -59.333 108 -78s85.333 -28 132 -28
c44.667 0 87.334 8.5 128.001 25.5s76.667 40.833 108 71.5c30.667 30.667 54.834 65.834 72.501 105.501s26.5 81.834 26.5 126.501v558c0 25.333 -8.5 46.333 -25.5 63s-37.833 25 -62.5 25s-45.5 -8.33301 -62.5 -25s-25.5 -37.667 -25.5 -63v-548
c0 -21.333 -4 -41.333 -12 -60s-19.333 -35.334 -34 -50.001s-31.667 -26.167 -51 -34.5s-39.666 -12.5 -60.999 -12.5c-39.333 0 -73.666 14 -102.999 42c-28.667 26.667 -44.667 60 -48 100c0.666992 1.33301 1 5.33301 1 12v204c0 24.667 -8.66699 45.667 -26 63
s-38 26 -62 26c-24.667 0 -45.5 -8.5 -62.5 -25.5s-25.5 -38.167 -25.5 -63.5v-200c0 -43.333 -14.667 -80.666 -44 -111.999c-14.667 -14.667 -31.167 -26.167 -49.5 -34.5s-38.166 -12.5 -59.499 -12.5c-38.667 0 -72.667 13 -102 39c-14 12 -25.5 26.167 -34.5 42.5
s-14.833 33.833 -17.5 52.5c1.33301 9.33301 2 15 2 17l-3 555c0 25.333 -8.5 46.333 -25.5 63s-37.5 25 -61.5 25c-24.667 0 -45.667 -8.33301 -63 -25s-26 -37.667 -26 -63v-558z" />
    <glyph glyph-name="x" unicode="x" horiz-adv-x="1019" 
d="M54 25c8 -8 17.5 -14.334 28.5 -19.001s22.5 -7 34.5 -7c25.333 0 47 9 65 27l327 332l329 -332c17.333 -17.333 38 -26 62 -26s44.5 8.5 61.5 25.5s25.5 38.167 25.5 63.5c0 26.667 -8.66699 47.334 -26 62.001l-328 333l327 331c16 16 24 36.667 24 62
c0 24 -8.33301 44.333 -25 61c-18 18 -38.333 27 -61 27c-28 0 -50 -9 -66 -27l-323 -328l-324 330c-8.66699 8.66699 -18.5 15.167 -29.5 19.5s-22.5 6.5 -34.5 6.5c-23.333 0 -44 -9 -62 -27c-17.333 -17.333 -26 -37.666 -26 -60.999
c0 -24.667 8.33301 -45.334 25 -62.001l327 -332l-330 -336c-18 -18 -27 -38.333 -27 -61c0 -24 8.66699 -44.667 26 -62z" />
    <glyph glyph-name="y" unicode="y" horiz-adv-x="1101" 
d="M80 465c0 -56.667 9.33496 -110.67 28.002 -162.003s45.667 -97.666 81 -138.999c34.667 -42 75.167 -76.833 121.5 -104.5s96.166 -46.5 149.499 -56.5v-254c0 -25.333 8.5 -46.5 25.5 -63.5s38.167 -25.5 63.5 -25.5s46 8.66699 62 26c8 8 14.333 17.5 19 28.5
s7 22.5 7 34.5v253c54 10 104.5 28.833 151.5 56.5s87.833 62.167 122.5 103.5c34.667 42 61.5 88.833 80.5 140.5s28.5 105.834 28.5 162.501v412c0 24.667 -8.16699 45.5 -24.5 62.5s-37.166 25.5 -62.499 25.5c-24.667 0 -45.834 -8.5 -63.501 -25.5
s-26.5 -37.833 -26.5 -62.5v-408c0 -40.667 -7.5 -79 -22.5 -115s-35.833 -68 -62.5 -96c-26.667 -27.333 -57.834 -48.666 -93.501 -63.999s-73.5 -23 -113.5 -23s-78 7.5 -114 22.5s-67.333 35.833 -94 62.5c-27.333 26.667 -48.5 57.667 -63.5 93s-22.5 73.333 -22.5 114
v414c0 24.667 -8.66699 45.667 -26 63c-18 16.667 -39 25 -63 25c-24.667 0 -45.5 -8.5 -62.5 -25.5s-25.5 -37.833 -25.5 -62.5v-412z" />
    <glyph glyph-name="z" unicode="z" horiz-adv-x="1026" 
d="M70 26c8 -8 17.5 -14.333 28.5 -19s22.5 -7 34.5 -7h759c25.333 0 46.666 8.66699 63.999 26s26 38 26 62s-8.66699 44 -26 60s-38.666 24 -63.999 24h-574l607 639c19.333 16.667 29.333 37 30 61v8c-0.666992 24 -11 44.667 -31 62c-8 7.33301 -17.167 13 -27.5 17
s-19.833 6 -28.5 6h-721c-24.667 0 -45.5 -8.33301 -62.5 -25s-25.5 -37.334 -25.5 -62.001s8.5 -45.5 25.5 -62.5s37.833 -25.5 62.5 -25.5h531l-607 -641c-18 -19.333 -27 -39 -27 -59c0 -25.333 8.66699 -46.666 26 -63.999z" />
    <glyph glyph-name="braceleft" unicode="{" horiz-adv-x="752" 
d="M44 506c0 -26 9.33203 -48.999 27.999 -68.999s41.334 -30 68.001 -30h51v-310c0 -58.667 11 -113.834 33 -165.501s52.667 -96.834 92 -135.501c39.333 -39.333 84.833 -69.833 136.5 -91.5s106.834 -32.5 165.501 -32.5h17c7.33301 0 13 0.333008 17 1
c25.333 0 46 8.33301 62 25s24 37.334 24 62.001c0 26 -8 47.333 -24 64s-36.667 25 -62 25h-54c-31.333 0 -60.833 6.66699 -88.5 20s-52.5 31.666 -74.5 54.999c-21.333 22.667 -38 49 -50 79s-18 60.667 -18 92v797c0.666992 32 7.16699 62.667 19.5 92
s29.166 55.333 50.499 78s45.833 40.167 73.5 52.5s56.834 18.5 87.501 18.5h54c25.333 0 46.166 8.5 62.499 25.5s24.5 37.833 24.5 62.5c0 25.333 -8.16699 46.5 -24.5 63.5s-37.166 25.5 -62.499 25.5c-3.33301 0.666992 -8.33301 1 -15 1h-15
c-58 0 -112.833 -10.5 -164.5 -31.5s-97.167 -50.167 -136.5 -87.5s-70.333 -81.166 -93 -131.499s-35 -103.833 -37 -160.5v-299h-51c-26.667 0 -49.334 -9.16699 -68.001 -27.5s-28 -40.833 -28 -67.5z" />
    <glyph glyph-name="bar" unicode="|" horiz-adv-x="443" 
d="M133 -173c0 -26 8.33203 -47.333 24.999 -64c16.667 -18 37.334 -27 62.001 -27c25.333 0 46.666 8.83301 63.999 26.5s26 39.167 26 64.5v1393c0 25.333 -8.66699 46.833 -26 64.5s-38.666 26.5 -63.999 26.5c-24 0 -44.667 -8.66699 -62 -26
c-16.667 -18 -25 -39.667 -25 -65v-1393z" />
    <glyph glyph-name="braceright" unicode="}" horiz-adv-x="753" 
d="M-16 1217c0 -24.667 8.16797 -45.5 24.501 -62.5s37.166 -25.5 62.499 -25.5h54c30.667 0 60.167 -6.33301 88.5 -19s53.166 -30.334 74.499 -53.001s38 -48.834 50 -78.501s18 -60.834 18 -93.501v-798c-0.666992 -30.667 -7.16699 -60.667 -19.5 -90
s-28.833 -55.333 -49.5 -78c-21.333 -23.333 -45.833 -41.5 -73.5 -54.5s-57.167 -19.5 -88.5 -19.5h-54c-25.333 0 -46 -8.33301 -62 -25s-24 -38 -24 -64c0 -24.667 8 -45.334 24 -62.001s36.667 -25 62 -25c3.33301 -0.666992 9 -1 17 -1h17
c57.333 0 112.166 10.833 164.499 32.5s98.166 51.834 137.499 90.501s70 83.834 92 135.501s33 106.167 33 163.5v313h51c26.667 0 49.334 10 68.001 30c18 20 27 43 27 69c0 26.667 -9.16699 49.167 -27.5 67.5s-40.833 27.5 -67.5 27.5h-51v288
c0 57.333 -11.333 111.833 -34 163.5s-54 96.834 -94 135.501s-86.167 68.834 -138.5 90.501s-107.166 32.5 -164.499 32.5h-15c-6.66699 0 -11.667 -0.333008 -15 -1c-25.333 0 -46.166 -8.5 -62.499 -25.5s-24.5 -38.167 -24.5 -63.5z" />
    <glyph glyph-name="asciitilde" unicode="~" horiz-adv-x="1008" 
d="M52 550c0 -24 8.5 -44.3311 25.5 -60.998s37.5 -25 61.5 -25c17.333 0 33.166 4.16699 47.499 12.5s25.166 20.833 32.499 37.5c38 48.667 77.333 73 118 73c20.667 0 43.334 -7 68.001 -21c20.667 -12 38 -24.333 52 -37c64 -49.333 124.667 -74 182 -74
c36 0 69.333 7 100 21c29.333 13.333 55.5 29 78.5 47s41.833 36.667 56.5 56c13.333 17.333 20 29.666 20 36.999c10.667 14.667 16 31.334 16 50.001c0 23.333 -7.83301 43.333 -23.5 60s-35.167 25 -58.5 25c-21.333 0 -39.666 -7.66699 -54.999 -23l-2 -2l-4 3
c-20.667 -31.333 -42 -55.333 -64 -72s-45.667 -25 -71 -25c-18.667 0 -41 7.66699 -67 23c-19.333 11.333 -38 24.666 -56 39.999c-30 22.667 -59 40 -87 52s-58.667 18 -92 18c-56 0 -112 -20.333 -168 -61c-20 -14.667 -37.5 -30.5 -52.5 -47.5
s-26.167 -31.833 -33.5 -44.5c-16 -16.667 -24 -37.334 -24 -62.001z" />
    <glyph glyph-name="uni00A0" unicode="&#xa0;" horiz-adv-x="461" 
 />
    <glyph glyph-name="cent" unicode="&#xa2;" horiz-adv-x="944" 
d="M44 471c0 67.333 12.501 131.167 37.501 191.5s60.167 113.166 105.5 158.499c34.667 35.333 73.834 64.666 117.501 87.999s90.5 39.333 140.5 48v196c0 25.333 8.66699 46.666 26 63.999s38 26 62 26c25.333 0 46.666 -8.66699 63.999 -26s26 -38.666 26 -63.999v-196
c47.333 -8 91.833 -22.5 133.5 -43.5s78.5 -47.5 110.5 -79.5c21.333 -23.333 32 -47.666 32 -72.999s-10.333 -46.666 -31 -63.999c-8.66699 -7.33301 -18.334 -13 -29.001 -17s-20.334 -6 -29.001 -6c-14.667 0 -28.667 3.66699 -42 11l-70 50
c-28.667 18.667 -57.167 31.667 -85.5 39s-59.5 11 -93.5 11c-40.667 -1.33301 -79 -10.5 -115 -27.5s-67.333 -39.833 -94 -68.5s-47.5 -61.334 -62.5 -98.001s-22.5 -74.667 -22.5 -114c0 -40 7.5 -78.667 22.5 -116s36.167 -70 63.5 -98c28 -30 60.333 -53.333 97 -70
s76.334 -25 119.001 -25c32.667 0 62.667 3.66699 90 11s54.333 20.333 81 39l70 49c14.667 8 29 12 43 12c8.66699 0 18.334 -2 29.001 -6s20 -9.66699 28 -17c20 -18.667 30 -40 30 -64c0 -12.667 -2.66699 -25.5 -8 -38.5s-13 -24.5 -23 -34.5
c-31.333 -31.333 -68 -57.5 -110 -78.5s-86.667 -35.833 -134 -44.5v-173c0 -24.667 -9 -46 -27 -64c-16.667 -18 -37.667 -27 -63 -27s-46.333 9 -63 27c-17.333 17.333 -26 38.666 -26 63.999v174c-48.667 8.66699 -94.834 24.334 -138.501 47.001s-82.834 51 -117.501 85
c-45.333 44.667 -80.666 96.334 -105.999 155.001s-38 121 -38 187z" />
    <glyph glyph-name="sterling" unicode="&#xa3;" horiz-adv-x="994" 
d="M43 562c0 -22.667 7.66699 -41.8311 23 -57.498s34.333 -23.5 57 -23.5h38v-393c0 -25.333 8.5 -46.333 25.5 -63s38.167 -25 63.5 -25h608c24 0 44.667 8.66699 62 26s26 38.666 26 63.999c0 24 -8.33301 44.333 -25 61s-37.334 25 -62.001 25h-521v305h84
c22 0 40.667 7.83301 56 23.5s23 34.5 23 56.5c0 21.333 -7.66699 39.833 -23 55.5s-34 23.5 -56 23.5h-84v329h1c0 50 17 90.333 51 121c33.333 30 75.333 45 126 45h4c24.667 0 45.5 8.5 62.5 25.5s25.5 38.167 25.5 63.5c0 22.667 -8.33301 43 -25 61
c-17.333 17.333 -38 26 -62 26h-24c-45.333 0 -88.333 -8.83301 -129 -26.5s-76.667 -42.5 -108 -74.5c-31.333 -31.333 -55.666 -67.833 -72.999 -109.5s-26 -85.167 -26 -130.5v-330h-38c-22.667 0 -41.667 -7.33301 -57 -22s-23 -33.334 -23 -56.001z" />
    <glyph glyph-name="yen" unicode="&#xa5;" horiz-adv-x="1223" 
d="M23 1217c0 -21.333 7.33301 -40.6689 22 -58.002l454 -571h-158c-15.333 0 -28.5 -5.16699 -39.5 -15.5s-16.5 -23.166 -16.5 -38.499s5.5 -28.666 16.5 -39.999s24.167 -17 39.5 -17h180v-105h-180c-15.333 0 -28.5 -5.33301 -39.5 -16s-16.5 -23.667 -16.5 -39
s5.5 -28.333 16.5 -39s24.167 -16 39.5 -16h180v-175c0 -24.667 8.5 -45.334 25.5 -62.001s37.833 -25 62.5 -25s45.5 8.33301 62.5 25s25.5 37.334 25.5 62.001v175h191c15.333 0 28.5 5.33301 39.5 16s16.5 23.667 16.5 39c0 14.667 -5.5 27.5 -16.5 38.5
s-24.167 16.5 -39.5 16.5h-191v105h191c15.333 0 28.5 5.66699 39.5 17s16.5 24.666 16.5 39.999c0 14.667 -5.5 27.334 -16.5 38.001s-24.167 16 -39.5 16h-171l451 572c14.667 18.667 22 38.667 22 60c0 22 -9 42.667 -27 62c-18 18 -38.333 27 -61 27
c-24.667 0 -46.667 -10 -66 -30l-428 -543l-429 541c-8 10 -18 17.667 -30 23s-24.333 8 -37 8c-24.667 0 -46 -9.66699 -64 -29c-8 -8.66699 -14.167 -18.5 -18.5 -29.5s-6.5 -21.833 -6.5 -32.5z" />
    <glyph glyph-name="dieresis" unicode="&#xa8;" horiz-adv-x="799" 
d="M126 1243c0 -27.333 10.002 -51 30.002 -71c19.333 -19.333 43 -29 71 -29c14 0 27.167 2.5 39.5 7.5s23.166 12.167 32.499 21.5c19.333 19.333 29 43 29 71c0 27.333 -9.66699 51.333 -29 72c-18.667 20 -42.667 30 -72 30c-28.667 0 -52.334 -10 -71.001 -30
c-20 -21.333 -30 -45.333 -30 -72zM490.002 1243c0 -28.667 10 -52.333 30 -71c20.667 -19.333 44.334 -29 71.001 -29c14 0 27.167 2.5 39.5 7.5s23.166 12.167 32.499 21.5c19.333 19.333 29 43 29 71c0 27.333 -9.66699 51.333 -29 72c-18.667 20 -42.667 30 -72 30
c-27.333 0 -51 -10 -71 -30s-30 -44 -30 -72z" />
    <glyph glyph-name="copyright" unicode="&#xa9;" horiz-adv-x="1455" 
d="M45 606c0 -124 31 -239.668 93 -347.001c29.333 -50.667 64.833 -97 106.5 -139s88.167 -78 139.5 -108c106.667 -62.667 222.334 -94 347.001 -94c62.667 0 123.334 8 182.001 24s114 39.333 166 70c51.333 30 97.833 65.833 139.5 107.5s77.5 88.167 107.5 139.5
c62.667 106.667 94 222.334 94 347.001c0 62.667 -8 123.334 -24 182.001s-39.333 114 -70 166c-60.667 102.667 -143 184.667 -247 246c-52 30.667 -107.333 54 -166 70s-119.334 24 -182.001 24c-124.667 0 -240.334 -31.333 -347.001 -94
c-104.667 -61.333 -186.667 -143.333 -246 -246c-30 -52 -53 -107.333 -69 -166s-24 -119.334 -24 -182.001zM227 605.999c0 68.667 12.833 133.67 38.5 195.003s61.834 115.333 108.501 162c46 46 100 82 162 108s127.333 39 196 39s133.834 -12.833 195.501 -38.5
s115.834 -61.834 162.501 -108.501c46.667 -46 83 -99.833 109 -161.5s39 -126.834 39 -195.501c0 -69.333 -13 -134.833 -39 -196.5s-62.333 -115.5 -109 -161.5c-46.667 -46.667 -100.834 -83 -162.501 -109s-126.834 -39 -195.501 -39s-134 13 -196 39
s-116 62.333 -162 109c-46.667 46.667 -82.834 100.667 -108.501 162s-38.5 126.666 -38.5 195.999zM355 582.002c0 -52.667 9.83203 -102.003 29.499 -148.003s47.5 -86.333 83.5 -121s77 -61.667 123 -81s95.333 -29 148 -29c50 0 97.5 8.83301 142.5 26.5
s84.167 42.834 117.5 75.501c14.667 14.667 22 31 22 49c0 16 -7 30.333 -21 43c-11.333 10.667 -24.333 16 -39 16c-16 0 -34.333 -8.33301 -55 -25c-25.333 -22 -52 -38 -80 -48s-59 -15 -93 -15c-35.333 0 -68.666 7 -99.999 21s-59 33.333 -83 58
c-23.333 24 -41.5 52 -54.5 84s-19.5 65 -19.5 99l1 2c0 34.667 6.66699 67.834 20 99.501s32.333 59.834 57 84.501c24.667 24 53 42.833 85 56.5s66 20.5 102 20.5c62.667 0 117.667 -21.333 165 -64c19.333 -16.667 37.333 -25 54 -25c12.667 0 26 5.33301 40 16
c14 12 21 26.333 21 43c0 18.667 -7.33301 35.334 -22 50.001c-32 33.333 -70.5 58.666 -115.5 75.999s-93.167 26 -144.5 26c-52 0 -101.167 -9.83301 -147.5 -29.5s-87.5 -47.167 -123.5 -82.5c-35.333 -35.333 -63 -76.333 -83 -123s-30 -96 -30 -148
c0 -1.33301 0.333008 -2.33301 1 -3c-0.666992 -0.666992 -1 -1.66699 -1 -3v-1z" />
    <glyph glyph-name="guillemotleft" unicode="&#xab;" horiz-adv-x="1249" 
d="M35 482c0 -23.333 8.99902 -44.002 26.999 -62.002l394 -395c18 -18 39 -27 63 -27s45 9 63 27s27 38.667 27 62c0 22.667 -8.66699 43.667 -26 63l-335 333l336 330c17.333 15.333 26 36.333 26 63c0 23.333 -9 44 -27 62c-19.333 18 -40.333 27 -63 27
c-24 0 -45 -9 -63 -27l-393 -389l-5 -5c-7.33301 -7.33301 -13.166 -16.666 -17.499 -27.999s-6.5 -22.666 -6.5 -33.999zM601.999 485.998c0 -7.33301 1 -13.667 3 -19l4 -15v-2l12 -19l2 -3l6 -6c0 -0.666992 0.333008 -1 1 -1l394 -394c16 -18 36.667 -27 62 -27
c23.333 0 44.333 8.66699 63 26c8 8 14.5 17.5 19.5 28.5s7.5 22.5 7.5 34.5c0 24 -8.66699 44.667 -26 62l-334 334l335 329c17.333 15.333 26 36.333 26 63c0 24 -8.66699 44.667 -26 62c-19.333 18 -40.333 27 -63 27c-24.667 0 -46 -9 -64 -27l-394 -389l-4 -4
c-16 -16.667 -24 -36.667 -24 -60z" />
    <glyph glyph-name="uni00AD" unicode="&#xad;" horiz-adv-x="932" 
d="M68 581c0 -24 8.66602 -44.667 25.999 -62s38.666 -26 63.999 -26h597c24.667 0 46.334 8.66699 65.001 26c17.333 17.333 26 38 26 62s-8.66699 45.333 -26 64c-19.333 18 -41 27 -65 27h-597c-25.333 0 -46.666 -8.83301 -63.999 -26.5s-26 -39.167 -26 -64.5z" />
    <glyph glyph-name="registered" unicode="&#xae;" horiz-adv-x="1422" 
d="M23 639c0 -92 17 -178.831 51 -260.498s82 -153.5 144 -215.5c62 -62.667 134 -111.334 216 -146.001s169 -52 261 -52c122.667 0 236 30.667 340 92c50 29.333 95.667 64.5 137 105.5s76.666 86.5 105.999 136.5c61.333 104 92 217.333 92 340s-30.667 236 -92 340
c-29.333 50 -64.666 95.667 -105.999 137s-87 76.666 -137 105.999c-104 61.333 -217.333 92 -340 92c-62 0 -121.833 -7.83301 -179.5 -23.5s-111.5 -38.5 -161.5 -68.5c-100.667 -59.333 -180.667 -140.333 -240 -243c-60.667 -104.667 -91 -218 -91 -340zM201 639.002
c0 67.333 12.667 131.166 38 191.499s60.666 113.166 105.999 158.499s98.166 80.833 158.499 106.5s124.166 38.5 191.499 38.5s131.5 -12.833 192.5 -38.5s114.167 -61.167 159.5 -106.5s80.833 -98.166 106.5 -158.499s38.5 -124.166 38.5 -191.499
c0 -68 -12.833 -132.333 -38.5 -193s-61.167 -113.667 -106.5 -159s-98.5 -80.666 -159.5 -105.999s-125.167 -38 -192.5 -38s-131.166 12.667 -191.499 38s-113.166 60.666 -158.499 105.999s-80.666 98.333 -105.999 159s-38 125 -38 193zM489 305.002
c0 -17.333 6.00293 -31.498 18.0029 -42.498s26.333 -16.5 43 -16.5c16 0 29.5 5.5 40.5 16.5s16.5 25.167 16.5 42.5v296c0 38 7.16699 74 21.5 108s34.5 63.667 60.5 89s55.833 45.166 89.5 59.499s68.834 21.5 105.501 21.5h5c17.333 0 31.833 5.5 43.5 16.5
s17.5 24.833 17.5 41.5c0 17.333 -5.33301 31.333 -16 42s-25.667 16 -45 16h-5c-52.667 0 -102.834 -9.83301 -150.501 -29.5s-89.834 -47.5 -126.501 -83.5c-36.667 -35.333 -65.334 -76.833 -86.001 -124.5s-31.334 -97.834 -32.001 -150.501v-302z" />
    <glyph glyph-name="acute" unicode="&#xb4;" horiz-adv-x="510" 
d="M43 1600c0 -24.667 8.66699 -45.667 26 -63c15.333 -16.667 35 -25 59 -25c11.333 0 20.666 1.33301 27.999 4l194 81c19.333 6 34.833 16.667 46.5 32s17.5 33 17.5 53c0 25.333 -8.66699 46.5 -26 63.5s-38.666 25.5 -63.999 25.5c-8 0 -16 -1 -24 -3l-191 -82
c-20 -5.33301 -36 -16 -48 -32s-18 -34 -18 -54z" />
    <glyph glyph-name="cedilla" unicode="&#xb8;" horiz-adv-x="481" 
d="M69 -296c0 -29.333 5.49805 -56.834 16.498 -82.501s26.5 -48.167 46.5 -67.5s43 -34.5 69 -45.5s53.333 -16.5 82 -16.5s56 5.5 82 16.5s49 26.167 69 45.5s35.5 41.833 46.5 67.5s16.5 53.167 16.5 82.5c0 53.333 -16.667 100 -50 140
c-33.333 38.667 -75.666 62 -126.999 70v127c0 13.333 -6.16699 24.666 -18.5 33.999s-25.5 14 -39.5 14s-27 -4.66699 -39 -14s-18 -20.666 -18 -33.999v-188c0 -14.667 5.16699 -26.334 15.5 -35.001s26.5 -13 48.5 -13c36 0 64.333 -9.16699 85 -27.5s31 -42.5 31 -72.5
c0 -27.333 -9.66699 -50.666 -29 -69.999c-9.33301 -9.33301 -20.166 -16.666 -32.499 -21.999s-25.5 -8 -39.5 -8c-28 0 -51.667 9.66699 -71 29s-29 43 -29 71c0 16.667 -5.5 30.5 -16.5 41.5s-24.167 16.5 -39.5 16.5c-16.667 0 -30.667 -5.66699 -42 -17
s-17 -25.333 -17 -42z" />
    <glyph glyph-name="guillemotright" unicode="&#xbb;" horiz-adv-x="1249" 
d="M31 89c0 -12 2.50098 -23.5 7.50098 -34.5s11.833 -20.5 20.5 -28.5c17.333 -17.333 38 -26 62 -26s45 9 63 27l395 395c17.333 17.333 26 38 26 62c0 24.667 -8 45.334 -24 62.001l-2 3l-396 390c-16.667 16.667 -38.334 25.667 -65.001 27c-22.667 0 -43 -9 -61 -27
c-17.333 -18.667 -26 -39.334 -26 -62.001c0 -26.667 8.66699 -47.667 26 -63l334 -330l-333 -333c-18 -18 -27 -38.667 -27 -62zM597.001 876c0 -24 9 -44.999 27 -62.999l334 -330l-333 -333c-18 -18 -27 -39 -27 -63s9.33301 -44.667 28 -62
c19.333 -18 40.333 -27 63 -27c23.333 0 44 9 62 27l394 395c18 18 27 39 27 63c0 23.333 -8.66699 44.666 -26 63.999l-9 7l-387 384c-18 18 -39.333 27 -64 27c-22.667 0 -43 -9 -61 -27c-18.667 -17.333 -28 -38 -28 -62z" />
    <glyph glyph-name="circumflex" unicode="&#x2c6;" horiz-adv-x="748" 
d="M55 1233c0 18 7.66699 34.668 23 50.001l222 225c15.333 15.333 33 23 53 23c18.667 0 35.334 -7.33301 50.001 -22l224 -226c14.667 -14.667 22 -31 22 -49c0 -20.667 -7.33301 -37.667 -22 -51c-16 -14.667 -33.333 -22 -52 -22s-35 7 -49 21l-174 175l-174 -175
c-12.667 -12.667 -29.334 -19.667 -50.001 -21c-19.333 0 -36.333 7.16699 -51 21.5s-22 31.166 -22 50.499z" />
    <glyph glyph-name="ring" unicode="&#x2da;" horiz-adv-x="485" 
d="M9 1310c0 -27.333 5.33301 -53.5 16 -78.5s25.667 -47.167 45 -66.5c18.667 -19.333 40.667 -34.5 66 -45.5s51.666 -16.5 78.999 -16.5c28 0 54.5 5.5 79.5 16.5s46.833 26.167 65.5 45.5s33.334 41.5 44.001 66.5s16 51.167 16 78.5c0 28 -5.33301 54.5 -16 79.5
s-25.334 46.833 -44.001 65.5s-40.5 33.334 -65.5 44.001s-51.5 16 -79.5 16c-27.333 0 -53.666 -5.33301 -78.999 -16s-47.333 -25.334 -66 -44.001c-19.333 -19.333 -34.333 -41.333 -45 -66s-16 -51 -16 -79zM132 1310c0 23.333 8 43 24 59s35.667 24 59 24
s42.833 -8 58.5 -24s23.5 -35.667 23.5 -59s-7.83301 -43 -23.5 -59s-35.167 -24 -58.5 -24s-43 8 -59 24s-24 35.667 -24 59z" />
    <glyph glyph-name="tilde" unicode="&#x2dc;" horiz-adv-x="825" 
d="M34 1228c0 -20 6.83398 -37.1641 20.501 -51.4971s30.834 -21.5 51.501 -21.5c14 0 27 4 39 12s21 18.667 27 32c32.667 46 69 69 109 69c8.66699 0 18.667 -1.66699 30 -5c21.333 -8.66699 39.666 -18.667 54.999 -30c5.33301 -4.66699 12.666 -10.334 21.999 -17.001
c27.333 -20.667 54.166 -37.167 80.499 -49.5s53.5 -18.5 81.5 -18.5c52 0 101 18 147 54c28.667 23.333 52.334 51 71.001 83v1c13.333 17.333 20 34.666 20 51.999c0 19.333 -7.16699 35.833 -21.5 49.5s-31.5 20.5 -51.5 20.5c-14 0 -27 -3.83301 -39 -11.5
s-21 -18.5 -27 -32.5c-16 -22.667 -32.167 -39.834 -48.5 -51.501s-34.5 -17.5 -54.5 -17.5c-18 0 -38.667 7 -62 21c-18.667 11.333 -36 23.666 -52 36.999c-28 20.667 -53.833 36.334 -77.5 47.001s-50.167 16 -79.5 16c-53.333 0 -102.333 -18 -147 -54
c-30 -24 -55 -52 -75 -84l-1 -1c-12 -14 -18 -30.333 -18 -49z" />
    <glyph glyph-name="uni0401" unicode="&#x401;" horiz-adv-x="971" 
d="M110 90c0 -24.667 8.33008 -45.498 24.9971 -62.498s37.334 -26.167 62.001 -27.5h639c25.333 0 46.666 8.66699 63.999 26s26 38.666 26 63.999s-8.66699 46.666 -26 63.999s-38.666 26 -63.999 26l-544 1v391h368c24.667 0 46.334 9.33301 65.001 28
c8 8 14.333 17.5 19 28.5s7 22.5 7 34.5c0 25.333 -8.66699 47.333 -26 66c-18.667 17.333 -40.334 26 -65.001 26h-368v381h544c26 0 47.333 9 64 27c8 8 14.333 17.5 19 28.5s7 22.5 7 34.5c0 26 -8.66699 47.833 -26 65.5s-38.666 26.5 -63.999 26.5h-635
c-25.333 0 -46.666 -8.66699 -63.999 -26c-18 -18 -27 -40 -27 -66v-1136zM289.997 1535c0 -27.333 10.002 -51 30.002 -71c19.333 -19.333 43 -29 71 -29c14 0 27.167 2.5 39.5 7.5s23.166 12.167 32.499 21.5c19.333 19.333 29 43 29 71c0 27.333 -9.66699 51.333 -29 72
c-18.667 20 -42.667 30 -72 30c-28.667 0 -52.334 -10 -71.001 -30c-20 -21.333 -30 -45.333 -30 -72zM653.999 1535c0 -28.667 10 -52.333 30 -71c20.667 -19.333 44.334 -29 71.001 -29c14 0 27.167 2.5 39.5 7.5s23.166 12.167 32.499 21.5c19.333 19.333 29 43 29 71
c0 27.333 -9.66699 51.333 -29 72c-18.667 20 -42.667 30 -72 30c-27.333 0 -51 -10 -71 -30s-30 -44 -30 -72z" />
    <glyph glyph-name="uni0402" unicode="&#x402;" horiz-adv-x="1140" 
d="M8 1151c0 23.333 8.33301 42.3359 25 57.0029s37.334 22 62.001 22h7c1.33301 24.667 10 45 26 61c8 8 17.5 14.333 28.5 19s22.5 7 34.5 7c24 0 44.667 -8.66699 62 -26c16 -16 24.667 -36.333 26 -61h294c24.667 0 45.167 -7.5 61.5 -22.5s24.5 -34.167 24.5 -57.5
s-7.66699 -42.5 -23 -57.5s-34.333 -22.5 -57 -22.5h-300v-261c40.667 49.333 88 87.666 142 114.999s111.667 41 173 41c63.333 0 122.5 -12.167 177.5 -36.5s102.5 -58.166 142.5 -101.499c39.333 -42.667 69.833 -92.834 91.5 -150.501s32.5 -118.5 32.5 -182.5v-95v-413
c0 -122 -33.667 -217.667 -101 -287c-32.667 -33.333 -72.667 -58.833 -120 -76.5s-101 -26.834 -161 -27.501h-6c-24.667 0 -45.834 8.83301 -63.501 26.5s-26.5 38.834 -26.5 63.501s8.83301 45.667 26.5 63s38.834 26 63.501 26h3c72 0.666992 124.667 18 158 52
s50 87.333 50 160v405h1v102c0 40.667 -6.33301 79.167 -19 115.5s-30.667 67.833 -54 94.5c-24 27.333 -52.5 48.5 -85.5 63.5s-69.5 22.5 -109.5 22.5s-78.833 -7.33301 -116.5 -22s-71.5 -35 -101.5 -61c-30 -26.667 -53.667 -57.834 -71 -93.501s-26 -73.167 -26 -112.5
v-412c0 -24.667 -8.5 -45.5 -25.5 -62.5s-37.833 -25.5 -62.5 -25.5c-25.333 0 -46.5 8.5 -63.5 25.5s-25.5 37.833 -25.5 62.5v982h-7c-24.667 0 -45.334 7.66699 -62.001 23s-25 34.666 -25 57.999z" />
    <glyph glyph-name="uni0403" unicode="&#x403;" horiz-adv-x="1047" 
d="M134 90c0 -25.333 8.83301 -46.834 26.5 -64.501s39.167 -26.5 64.5 -26.5s46 8.66699 62 26s24 39 24 65v1043h633c26 0 47.333 8 64 24s25 36.667 25 62c0 26 -8.5 47.833 -25.5 65.5s-38.167 26.5 -63.5 26.5h-723c-24 -1.33301 -44.333 -10.666 -61 -27.999
c-17.333 -18.667 -26 -39.667 -26 -63v-1130zM513 1546c0 -24.667 8.66699 -45.667 26 -63c15.333 -16.667 35 -25 59 -25c11.333 0 20.666 1.33301 27.999 4l194 81c19.333 6 34.833 16.667 46.5 32s17.5 33 17.5 53c0 25.333 -8.66699 46.5 -26 63.5
s-38.666 25.5 -63.999 25.5c-8 0 -16 -1 -24 -3l-191 -82c-20 -5.33301 -36 -16 -48 -32s-18 -34 -18 -54z" />
    <glyph glyph-name="uni0404" unicode="&#x404;" horiz-adv-x="1253" 
d="M21 653c0 -59.333 8 -117.501 24 -174.501s39 -110.5 69 -160.5c29.333 -49.333 64.333 -94.333 105 -135s85.334 -75.334 134.001 -104.001c49.333 -29.333 101.833 -51.833 157.5 -67.5s111.834 -23.5 168.501 -23.5c90.667 0 176.667 16 258 48s154.333 81 219 147
c18 18 27 39 27 63c0 23.333 -8.66699 43.666 -26 60.999c-8.66699 8 -18.834 14.5 -30.501 19.5s-23.5 7.5 -35.5 7.5c-26 0 -47 -7.66699 -63 -23c-94.667 -94.667 -209.334 -142 -344.001 -142c-59.333 0 -115.666 10.333 -168.999 31s-101.333 49.667 -144 87
c-42 36 -77 78.5 -105 127.5s-47 101.167 -57 156.5h507c25.333 0 46.666 9.33301 63.999 28c8 8 14.333 17.5 19 28.5s7 22.5 7 34.5s-2.33301 23.5 -7 34.5s-11 20.5 -19 28.5c-17.333 17.333 -38.666 26 -63.999 26h-504c11.333 54.667 31.666 105.834 60.999 153.501
s65.666 88.834 108.999 123.501c42.667 34.667 90.167 61.667 142.5 81s105.833 29 160.5 29c64.667 0 126.5 -12 185.5 -36s112.167 -59.667 159.5 -107c17.333 -17.333 38.333 -26 63 -26c24 0 45.333 9.33301 64 28c8 8 14.5 17.5 19.5 28.5s7.5 22.5 7.5 34.5
c0 22.667 -8.66699 43.667 -26 63l-3 2c0 0.666992 -0.333008 1 -1 1c-65.333 64 -137.833 112.167 -217.5 144.5s-163.167 48.5 -250.5 48.5c-60 0 -118.5 -8.16699 -175.5 -24.5s-110.5 -39.5 -160.5 -69.5c-48.667 -30 -93.167 -65.667 -133.5 -107
s-75.166 -86.666 -104.499 -135.999c-29.333 -50 -51.833 -102.833 -67.5 -158.5s-23.5 -112.5 -23.5 -170.5z" />
    <glyph glyph-name="uni0405" unicode="&#x405;" horiz-adv-x="992" 
d="M47 287c0 -14.667 3.99902 -30.665 11.999 -47.998c16 -35.333 38.5 -68.333 67.5 -99s62.833 -57.334 101.5 -80.001c38.667 -23.333 81.334 -41.333 128.001 -54s94.334 -19 143.001 -19c61.333 0 119.333 9.83301 174 29.5s102.334 47.5 143.001 83.5
c41.333 36.667 73.666 79.5 96.999 128.5s35 101.833 35 158.5c0 102 -40 184.667 -120 248c-33.333 26 -72.333 48.667 -117 68s-95 37 -151 53c-47.333 10.667 -87.333 20.667 -120 30s-61.667 20.666 -87 33.999c-62.667 31.333 -94 76.333 -94 135
c0 28.667 6.83301 55 20.5 79s32.167 44.333 55.5 61c22 16 47.833 28.167 77.5 36.5s59.834 12.5 90.501 12.5c56 0 103.333 -8.66699 142 -26c36 -16 74 -44.667 114 -86c16.667 -12 34.667 -18 54 -18c24 0 43.833 8 59.5 24s23.5 35 23.5 57c0 12 -3 23.333 -9 34
c-36 61.333 -89.667 109 -161 143c-68.667 32.667 -144 49 -226 49c-53.333 0 -104.833 -8.66699 -154.5 -26s-94.167 -42 -133.5 -74c-40.667 -33.333 -72.5 -72.666 -95.5 -117.999s-34.5 -95 -34.5 -149c0 -100.667 42 -183.334 126 -248.001
c69.333 -52.667 168.666 -92.667 297.999 -120l24 -7c35.333 -10 65.333 -19.5 90 -28.5s47 -19.5 67 -31.5c27.333 -16.667 48.333 -36.334 63 -59.001s22 -50 22 -82c0 -33.333 -7.5 -63.5 -22.5 -90.5s-35.5 -49.833 -61.5 -68.5
c-24.667 -18 -52.834 -31.667 -84.501 -41s-64.167 -14 -97.5 -14c-64 0 -121.333 13.5 -172 40.5s-90 64.833 -118 113.5c-28 35.333 -55.333 53 -82 53c-10 0 -20.167 -2.16699 -30.5 -6.5s-19.5 -10.166 -27.5 -17.499c-19.333 -17.333 -29 -37.333 -29 -60z" />
    <glyph glyph-name="uni0406" unicode="&#x406;" horiz-adv-x="426" 
d="M129 87c0 -24 8.66699 -44.502 26 -61.502s38 -25.5 62 -25.5c24.667 0 45.5 8.33301 62.5 25s25.5 37.334 25.5 62.001v1147c0 24.667 -8.5 45.334 -25.5 62.001s-37.833 25 -62.5 25c-24 0 -44.667 -8.5 -62 -25.5s-26 -37.5 -26 -61.5v-1147z" />
    <glyph glyph-name="uni0407" unicode="&#x407;" horiz-adv-x="426" 
d="M-52 1524c0 -27.333 10.002 -51 30.002 -71c19.333 -19.333 43 -29 71 -29c14 0 27.167 2.5 39.5 7.5s23.166 12.167 32.499 21.5c19.333 19.333 29 43 29 71c0 27.333 -9.66699 51.333 -29 72c-18.667 20 -42.667 30 -72 30c-28.667 0 -52.334 -10 -71.001 -30
c-20 -21.333 -30 -45.333 -30 -72zM129.002 87c0 -24 8.66699 -44.502 26 -61.502s38 -25.5 62 -25.5c24.667 0 45.5 8.33301 62.5 25s25.5 37.334 25.5 62.001v1147c0 24.667 -8.5 45.334 -25.5 62.001s-37.833 25 -62.5 25c-24 0 -44.667 -8.5 -62 -25.5
s-26 -37.5 -26 -61.5v-1147zM312.002 1524c0 -28.667 10 -52.333 30 -71c20.667 -19.333 44.334 -29 71.001 -29c14 0 27.167 2.5 39.5 7.5s23.166 12.167 32.499 21.5c19.333 19.333 29 43 29 71c0 27.333 -9.66699 51.333 -29 72c-18.667 20 -42.667 30 -72 30
c-27.333 0 -51 -10 -71 -30s-30 -44 -30 -72z" />
    <glyph glyph-name="uni0408" unicode="&#x408;" horiz-adv-x="467" 
d="M-170 93c0 -24 8.66797 -44.667 26.001 -62c16.667 -18 37.667 -27 63 -27h7c58.667 0.666992 114.167 12.334 166.5 35.001s98.166 54 137.499 94c38.667 40.667 69.167 87.5 91.5 140.5s33.833 109.167 34.5 168.5v776c0 26 -8 47.833 -24 65.5s-36.667 26.5 -62 26.5
s-46.833 -8.83301 -64.5 -26.5s-26.5 -39.5 -26.5 -65.5v-774c-0.666992 -34.667 -7.5 -67.5 -20.5 -98.5s-30.833 -58.5 -53.5 -82.5c-23.333 -24 -50.5 -42.833 -81.5 -56.5s-64.5 -20.834 -100.5 -21.501h-4c-24.667 0 -45.667 -8.83301 -63 -26.5s-26 -39.5 -26 -65.5z
" />
    <glyph glyph-name="uni0409" unicode="&#x409;" horiz-adv-x="2022" 
d="M39 88c0 -12 2.49902 -23.499 7.49902 -34.499s11.5 -20.5 19.5 -28.5c16.667 -18 37.667 -27 63 -27h6c59.333 0.666992 112.666 9.83398 159.999 27.501s87.333 43.167 120 76.5c67.333 68 101.333 162.667 102 284v742h551v-1038
c0 -25.333 8.83301 -46.666 26.5 -63.999s39.167 -26 64.5 -26h439c52 0 100.833 9.33301 146.5 28s85.834 44.667 120.501 78c34.667 34 61.667 73.167 81 117.5s29 91.833 29 142.5s-9.66699 99.167 -29 145.5s-46.333 87.166 -81 122.499s-75 63 -121 83
s-94.667 30 -146 30h-347v473c0 25.333 -8.33301 46.333 -25 63c-17.333 18 -38.666 27.333 -63.999 28h-741c-17.333 -0.666992 -32.5 -5.5 -45.5 -14.5s-23.5 -20.833 -31.5 -35.5c-2.66699 -2.66699 -4.33398 -6 -5.00098 -10l-2 -6l-2 -9
c-0.666992 -2 -1 -4.66699 -1 -8v-8v-830c-0.666992 -72.667 -16.667 -125.834 -48 -159.501s-82.666 -50.834 -153.999 -51.501h-3c-12 0 -23.5 -2.33301 -34.5 -7s-20.5 -11 -28.5 -19c-18 -19.333 -27 -41 -27 -65zM1251 183.001v380.001h346
c27.333 0 53 -4.83301 77 -14.5s45.333 -23.5 64 -41.5c18 -18 31.833 -38.5 41.5 -61.5s14.5 -47.167 14.5 -72.5c0 -24.667 -4.83301 -48.334 -14.5 -71.001s-23.167 -42.667 -40.5 -60c-18 -18.667 -38.833 -33 -62.5 -43s-49.167 -15 -76.5 -15z" />
    <glyph glyph-name="uni040A" unicode="&#x40a;" horiz-adv-x="1860" 
d="M133 90c0 -25.333 8.83203 -46.6689 26.499 -64.002s39.167 -26 64.5 -26c24.667 0 46.334 8.66699 65.001 26c18 18 27 39.333 27 64v468h590v-468c0 -25.333 8.83301 -46.666 26.5 -63.999s39.167 -26 64.5 -26h447c51.333 0 99.5 9 144.5 27s84.833 43.667 119.5 77
c34 33.333 60.5 72 79.5 116s28.5 91.333 28.5 142s-9.5 98.834 -28.5 144.501s-45.5 86.167 -79.5 121.5c-34.667 34.667 -74.667 61.834 -120 81.501s-93.333 29.5 -144 29.5h-355v493c0 25.333 -8.83301 46.833 -26.5 64.5s-39.5 26.5 -65.5 26.5
c-25.333 0 -46.833 -8.83301 -64.5 -26.5s-26.5 -39.167 -26.5 -64.5v-494h-590v481c0 25.333 -8.83301 46.833 -26.5 64.5s-39.167 26.5 -64.5 26.5c-12 0 -23.667 -2.33301 -35 -7s-21 -11 -29 -19c-18.667 -18.667 -28 -40.334 -28 -65.001v-1129zM1089 182.997v372.999
h355c26 0 50.833 -4.83301 74.5 -14.5s44.5 -23.167 62.5 -40.5s31.833 -37.333 41.5 -60s14.5 -46.667 14.5 -72c0 -24 -4.66699 -47 -14 -69s-22.666 -41.667 -39.999 -59s-37.833 -31.166 -61.5 -41.499s-48.834 -15.5 -75.501 -15.5z" />
    <glyph glyph-name="uni040B" unicode="&#x40b;" horiz-adv-x="1247" 
d="M-8 1196c0 -22.667 7.66602 -42.001 22.999 -58.001s34.333 -24 57 -24h115v-1025c0 -25.333 9.33301 -46.666 28 -63.999c16.667 -16.667 37.667 -25 63 -25c24 0 44.667 8.66699 62 26s26 38.333 26 63v447c0 41.333 8 80.333 24 117s38.333 69 67 97
s61.5 49.833 98.5 65.5s75.833 23.5 116.5 23.5s79.5 -7.83301 116.5 -23.5s69.833 -37.5 98.5 -65.5s51 -60.333 67 -97s24 -75.667 24 -117v-447c0 -26 9 -47.333 27 -64c16.667 -16.667 37.667 -25 63 -25s46.5 8.5 63.5 25.5s25.5 38.167 25.5 63.5v447
c-0.666992 65.333 -13.5 127.5 -38.5 186.5s-59.833 110.833 -104.5 155.5c-44.667 44 -96.5 78.333 -155.5 103s-121.167 37 -186.5 37c-57.333 0 -111.833 -9.5 -163.5 -28.5s-99.167 -45.833 -142.5 -80.5v205h240c22.667 0 41.5 7.5 56.5 22.5s22.5 34.5 22.5 58.5
c0 22 -7.66699 40.667 -23 56s-34 23 -56 23h-263c-17.333 19.333 -38.666 29 -63.999 29c-27.333 0 -50 -9.66699 -68 -29h-139c-22.667 0 -41.667 -7.5 -57 -22.5s-23 -33.5 -23 -55.5z" />
    <glyph glyph-name="uni040C" unicode="&#x40c;" horiz-adv-x="1051" 
d="M110 90c0 -26 9.00098 -47.334 27.001 -64.001c8 -8 17.5 -14.333 28.5 -19s22.5 -7 34.5 -7c25.333 0 46.166 8.66699 62.499 26s24.5 39 24.5 65v504h44l536 -565c18 -18.667 40.667 -28.667 68 -30c22.667 0 42.667 9.33301 60 28c7.33301 8 13.166 17.5 17.499 28.5
s6.5 22.167 6.5 33.5c0 22.667 -8.66699 43.667 -26 63l-487 515l391 466h66c25.333 0 46.666 8.33301 63.999 25s26 37.667 26 63c0 12 -2.33301 23.5 -7 34.5s-11 20.5 -19 28.5c-17.333 17.333 -38.666 26 -63.999 26h-104c-22 0 -41.667 -7 -59 -21l-6 -5
c-5.33301 -5.33301 -9 -9.66602 -11 -12.999l-417 -498h-79v448c0 24.667 -8.16699 45.5 -24.5 62.5s-37.166 25.5 -62.499 25.5c-12 0 -23.5 -2.33301 -34.5 -7s-20.5 -11 -28.5 -19c-18 -16.667 -27 -38 -27 -64v-1130zM440.001 1542c0 -24.667 8.66699 -45.667 26 -63
c15.333 -16.667 35 -25 59 -25c11.333 0 20.666 1.33301 27.999 4l194 81c19.333 6 34.833 16.667 46.5 32s17.5 33 17.5 53c0 25.333 -8.66699 46.5 -26 63.5s-38.666 25.5 -63.999 25.5c-8 0 -16 -1 -24 -3l-191 -82c-20 -5.33301 -36 -16 -48 -32s-18 -34 -18 -54z" />
    <glyph glyph-name="uni040E" unicode="&#x40e;" horiz-adv-x="1014" 
d="M47 1221c0 -14 2.33301 -25.6641 7 -34.9971l373 -798l-8 -20c-19.333 -40.667 -35.333 -72.5 -48 -95.5s-26.667 -42.5 -42 -58.5c-16.667 -18 -36.334 -31.167 -59.001 -39.5s-49.667 -12.5 -81 -12.5c-4 0 -6.66699 0.333008 -8 1h-11c-12 0 -23.5 -2.33301 -34.5 -7
s-20.5 -11 -28.5 -19c-17.333 -18.667 -26 -40.334 -26 -65.001c0 -24 8.5 -43.333 25.5 -58s38.167 -22 63.5 -22h7c52.667 0 98.5 7 137.5 21s74.167 36 105.5 66c30 28.667 58.333 65.167 85 109.5s56 100.833 88 169.5l22 48h-1l353 780
c4.66699 9.33301 7 20.666 7 33.999c0 24 -8 45 -24 63c-18.667 18.667 -40 28 -64 28c-18 0 -34.667 -4.83301 -50 -14.5s-26.666 -23.167 -33.999 -40.5l-286 -654l-297 654c-7.33301 17.333 -18.333 30.666 -33 39.999s-31 14 -49 14c-26.667 0 -48.667 -9.33301 -66 -28
c-16 -16.667 -24 -37 -24 -61zM318 1639c0 -30.667 5.8291 -59.498 17.4961 -86.498s27.834 -50.833 48.501 -71.5s44.667 -36.834 72 -48.501s56.333 -17.5 87 -17.5c29.333 0 57.666 5.66699 84.999 17s51.333 27 72 47s36.834 43.333 48.501 70s17.834 55 18.501 85v5
c0 17.333 -5.83301 32.166 -17.5 44.499s-26.167 18.5 -43.5 18.5s-31.666 -6 -42.999 -18s-17 -27 -17 -45v-4c-0.666992 -26.667 -11 -50 -31 -70c-9.33301 -9.33301 -20.166 -16.5 -32.499 -21.5s-25.5 -7.5 -39.5 -7.5c-28.667 0 -52.667 10.333 -72 31
c-20 21.333 -30 45.333 -30 72c0 17.333 -6 32.166 -18 44.499s-26.667 18.5 -44 18.5s-31.833 -6.16699 -43.5 -18.5s-17.5 -27.166 -17.5 -44.499z" />
    <glyph glyph-name="uni040F" unicode="&#x40f;" horiz-adv-x="1278" 
d="M133 80c0 -2.66699 0.333008 -4.33203 1 -4.99902c0.666992 -1.33301 1 -3.33301 1 -6c6 -20 16.667 -36.5 32 -49.5s33.333 -19.5 54 -19.5h339v-174c0 -25.333 9 -46.333 27 -63c17.333 -17.333 38.666 -26 63.999 -26s47 8.33301 65 25c18 18 27 39.333 27 64v174h311
c25.333 0 46.833 9 64.5 27s26.5 39.333 26.5 64v1126c0 26 -8.83301 47.833 -26.5 65.5s-39.167 26.5 -64.5 26.5s-45.833 -8.83301 -61.5 -26.5s-23.5 -39.5 -23.5 -65.5v-1035h-658v1035c0 26 -8 47.833 -24 65.5s-36.667 26.5 -62 26.5s-46.666 -8.66699 -63.999 -26
c-8.66699 -8.66699 -15.5 -18.834 -20.5 -30.501s-7.5 -23.5 -7.5 -35.5v-1137z" />
    <glyph glyph-name="uni0410" unicode="&#x410;" horiz-adv-x="1125" 
d="M25 85c0 -24 8.00098 -44.667 24.001 -62c17.333 -18.667 39.666 -28 66.999 -28c17.333 0 33.5 5.16699 48.5 15.5s26.167 24.166 33.5 41.499l48 124h620l49 -124c6.66699 -17.333 17.667 -31.166 33 -41.499s32 -15.5 50 -15.5c26 0 48.333 9.33301 67 28
c17.333 17.333 26 38 26 62c0 9.33301 -2.33301 21 -7 35l-442 1146c-6 16 -17 29 -33 39s-34.333 15 -55 15c-20 0 -37.5 -6 -52.5 -18s-25.5 -26 -31.5 -42l-439 -1140c-4 -12 -6 -23.667 -6 -35zM318.001 359l239 621l238 -621h-477z" />
    <glyph glyph-name="uni0411" unicode="&#x411;" horiz-adv-x="1127" 
d="M110 90c0 -25.333 8.83398 -46.667 26.501 -64s39.167 -26 64.5 -26h463c53.333 0 104.166 9.66699 152.499 29s90.5 46.333 126.5 81s64 75.334 84 122.001s30 96.667 30 150s-10 103.666 -30 150.999s-48 89.333 -84 126c-36 36 -78.167 64.167 -126.5 84.5
s-99.166 30.5 -152.499 30.5l-377 -1v360h573c26 0 47.667 8.5 65 25.5s26 38.5 26 64.5c0 24 -8.66699 44.667 -26 62c-18.667 17.333 -40.334 26 -65.001 26h-658c-8 0 -18 -1.66699 -30 -5l-4 -2c-17.333 -6.66699 -31.333 -17.5 -42 -32.5s-16 -32.167 -16 -51.5v-1130z
M287.001 175.999l-0.000976562 431.999l374 1c30 0 58.333 -5.66699 85 -17s50 -27 70 -47c20 -20.667 35.5 -44.167 46.5 -70.5s16.5 -54.166 16.5 -83.499c0 -28.667 -5.16699 -56 -15.5 -82s-25.166 -48.667 -44.499 -68c-19.333 -20.667 -42.333 -36.667 -69 -48
s-55 -17 -85 -17h-378z" />
    <glyph glyph-name="uni0412" unicode="&#x412;" horiz-adv-x="1127" 
d="M110 91c0 -24.667 8.16699 -45.666 24.5 -62.999s37.166 -26.666 62.499 -27.999h499c51.333 0 99.833 9.83301 145.5 29.5s85.834 47.167 120.501 82.5c34.667 34.667 61.834 75.167 81.501 121.5s29.5 94.833 29.5 145.5c0 58.667 -12.333 113.167 -37 163.5
s-58.667 94.166 -102 131.499c37.333 35.333 66.166 75.166 86.499 119.499s30.5 92.833 30.5 145.5c0 50.667 -9.5 100 -28.5 148s-44.833 88.667 -77.5 122c-33.333 34 -72.333 60.667 -117 80s-91.667 29 -141 29h-487c-24.667 0 -45.667 -8 -63 -24
c-18 -18 -27 -38 -27 -60v-1143zM292 182.001l0.00195312 954.001h379c27.333 0 53.166 -4.66699 77.499 -14s45.166 -23.333 62.499 -42c39.333 -44 59 -91 59 -141c0 -24 -4.5 -46.667 -13.5 -68s-21.5 -40 -37.5 -56c-16.667 -16.667 -35.667 -29.667 -57 -39
s-44 -14.333 -68 -15h-24c-24.667 0 -46 -9 -64 -27s-27 -39.333 -27 -64c0 -25.333 8.83301 -46.833 26.5 -64.5s39.167 -26.5 64.5 -26.5h26c25.333 0 49.833 -5.33301 73.5 -16s44.167 -25.334 61.5 -44.001s30.833 -40.167 40.5 -64.5s14.5 -49.5 14.5 -75.5
s-4.83301 -51 -14.5 -75s-23.167 -45 -40.5 -63c-17.333 -18.667 -37.833 -33.167 -61.5 -43.5s-48.167 -15.5 -73.5 -15.5h-404z" />
    <glyph glyph-name="uni0413" unicode="&#x413;" horiz-adv-x="1047" 
d="M130 90c0 -25.333 8.83301 -46.834 26.5 -64.501s39.167 -26.5 64.5 -26.5s46 8.66699 62 26s24 39 24 65v1043h633c26 0 47.333 8 64 24s25 36.667 25 62c0 26 -8.5 47.833 -25.5 65.5s-38.167 26.5 -63.5 26.5h-723c-24 -1.33301 -44.333 -10.666 -61 -27.999
c-17.333 -18.667 -26 -39.667 -26 -63v-1130z" />
    <glyph glyph-name="uni0414" unicode="&#x414;" horiz-adv-x="1321" 
d="M56 91v-279c0 -25.333 8.66699 -46.666 26 -63.999s38.666 -26 63.999 -26c24.667 0 45.334 8.66699 62.001 26s25 38.666 25 63.999v188h843v-188c0 -25.333 8.66699 -46.666 26 -63.999s38.666 -26 63.999 -26c24 0 44.667 8.66699 62 26s26 38.666 26 63.999v278
c0 23.333 -8.66699 43.666 -26 60.999c-18 18 -39.333 27 -64 27h-32v1044c0 24.667 -8.66699 45.5 -26 62.5s-38.333 25.833 -63 26.5h-481c-20 0 -38 -5.5 -54 -16.5s-27 -25.5 -33 -43.5v-1l-312 -1072h-20c-25.333 -1.33301 -46.166 -10.166 -62.499 -26.499
s-24.5 -36.5 -24.5 -60.5zM348 178l280 954h325v-954h-605z" />
    <glyph glyph-name="uni0415" unicode="&#x415;" horiz-adv-x="971" 
d="M110 90c0 -24.667 8.33008 -45.498 24.9971 -62.498s37.334 -26.167 62.001 -27.5h639c25.333 0 46.666 8.66699 63.999 26s26 38.666 26 63.999s-8.66699 46.666 -26 63.999s-38.666 26 -63.999 26l-544 1v391h368c24.667 0 46.334 9.33301 65.001 28
c8 8 14.333 17.5 19 28.5s7 22.5 7 34.5c0 25.333 -8.66699 47.333 -26 66c-18.667 17.333 -40.334 26 -65.001 26h-368v381h544c26 0 47.333 9 64 27c8 8 14.333 17.5 19 28.5s7 22.5 7 34.5c0 26 -8.66699 47.833 -26 65.5s-38.666 26.5 -63.999 26.5h-635
c-25.333 0 -46.666 -8.66699 -63.999 -26c-18 -18 -27 -40 -27 -66v-1136z" />
    <glyph glyph-name="uni0416" unicode="&#x416;" horiz-adv-x="1779" 
d="M41 1222c0 -25.333 8.66992 -46.667 26.0029 -64c8 -8 17.5 -14.333 28.5 -19s22.5 -7 34.5 -7h62l388 -428l-484 -551c-17.333 -17.333 -26 -39 -26 -65c0 -24 8.33301 -44.333 25 -61c16.667 -18.667 36.667 -28 60 -28c24.667 0 46.667 9.66699 66 29l532 604h42v-542
c0 -26 9 -47.333 27 -64c8 -8 17.5 -14.333 28.5 -19s22.5 -7 34.5 -7c25.333 0 46.166 8.66699 62.499 26s24.5 39 24.5 65v542h44l536 -603c20 -20 42.667 -30 68 -30c22.667 -0 42.667 9.33301 60 28c7.33301 8 13.166 17.5 17.499 28.5s6.5 22.167 6.5 33.5
c0 22.667 -8.66699 43.667 -26 63l-488 549l391 432h66c26 0 47.667 8.33301 65 25s26 37.667 26 63c0 12 -2.33301 23.5 -7 34.5s-11 20.5 -19 28.5c-18.667 17.333 -40.334 26 -65.001 26h-104c-22.667 0 -41.334 -6.33301 -56.001 -19l-8 -7l-429 -474h-78v411
c0 24.667 -8.16699 45.5 -24.5 62.5s-37.166 25.5 -62.499 25.5c-12 0 -23.5 -2.33301 -34.5 -7s-20.5 -11 -28.5 -19c-18 -16.667 -27 -38 -27 -64v-410h-69l-428 475c-16.667 16.667 -37.667 25 -63 25h-105c-12 0 -23.5 -2.33301 -34.5 -7s-20.5 -11 -28.5 -19
c-17.333 -17.333 -26 -38 -26 -62z" />
    <glyph glyph-name="uni0417" unicode="&#x417;" horiz-adv-x="942" 
d="M45 92c0 -25.333 8.66602 -46.834 25.999 -64.501s38.666 -26.5 63.999 -26.5h368c50 0 97.333 9.33301 142 28s83.667 45 117 79c34 34.667 60.333 74 79 118s28 91.333 28 142c0 56.667 -12.167 110.334 -36.5 161.001s-57.833 94.334 -100.5 131.001
c42.667 34.667 76.167 76.667 100.5 126s36.5 102.333 36.5 159c0 50.667 -9.5 98.334 -28.5 143.001s-45.167 83.667 -78.5 117s-72.333 59.166 -117 77.499s-92 27.5 -142 27.5h-368c-25.333 0 -46.666 -9 -63.999 -27s-26 -39.667 -26 -65s8.66699 -46.833 26 -64.5
s38.666 -26.5 63.999 -26.5h358c25.333 -0.666992 49.5 -5.83398 72.5 -15.501s43.167 -23.167 60.5 -40.5s30.833 -37.166 40.5 -59.499s14.5 -46.166 14.5 -71.499s-4.83301 -49.333 -14.5 -72s-23.167 -42.667 -40.5 -60c-16.667 -16.667 -36.5 -29.834 -59.5 -39.501
s-46.5 -14.5 -70.5 -14.5h-221c-25.333 0 -46.666 -8.66699 -63.999 -26c-18 -18 -27 -40 -27 -66c0 -25.333 8.83301 -46.833 26.5 -64.5s39.167 -26.5 64.5 -26.5h218c24.667 0 48.334 -5.5 71.001 -16.5s43 -25.833 61 -44.5c17.333 -18.667 30.666 -40.167 39.999 -64.5
s14 -49.5 14 -75.5c0 -24.667 -4.66699 -48.334 -14 -71.001s-22.333 -42.667 -39 -60s-36.5 -31 -59.5 -41s-47.167 -15 -72.5 -15h-359c-25.333 0 -46.666 -8.83301 -63.999 -26.5s-26 -39.167 -26 -64.5z" />
    <glyph glyph-name="uni0418" unicode="&#x418;" horiz-adv-x="1193" 
d="M110 87c0 -23.333 7.99902 -43.666 23.999 -60.999s36 -26 60 -26h14c28.667 4 49.334 16 62.001 36l762 938v-887c0 -24.667 8.5 -45.334 25.5 -62.001s37.833 -25 62.5 -25s45.5 8.33301 62.5 25s25.5 37.334 25.5 62.001v1134c0 24 -7.66699 44.667 -23 62
c-17.333 18.667 -39 28 -65 28c-26.667 0 -50.334 -11.333 -71.001 -34l-763 -940v887c0 24 -8.5 44.5 -25.5 61.5s-38.167 25.5 -63.5 25.5s-46.166 -8.33301 -62.499 -25s-24.5 -37.334 -24.5 -62.001v-1137z" />
    <glyph glyph-name="uni0419" unicode="&#x419;" horiz-adv-x="1193" 
d="M110 87c0 -23.333 7.99902 -43.666 23.999 -60.999s36 -26 60 -26h14c28.667 4 49.334 16 62.001 36l762 938v-887c0 -24.667 8.5 -45.334 25.5 -62.001s37.833 -25 62.5 -25s45.5 8.33301 62.5 25s25.5 37.334 25.5 62.001v1134c0 24 -7.66699 44.667 -23 62
c-17.333 18.667 -39 28 -65 28c-26.667 0 -50.334 -11.333 -71.001 -34l-763 -940v887c0 24 -8.5 44.5 -25.5 61.5s-38.167 25.5 -63.5 25.5s-46.166 -8.33301 -62.499 -25s-24.5 -37.334 -24.5 -62.001v-1137zM453.999 1635c0 -30.667 5.8291 -59.498 17.4961 -86.498
s27.834 -50.833 48.501 -71.5s44.667 -36.834 72 -48.501s56.333 -17.5 87 -17.5c29.333 0 57.666 5.66699 84.999 17s51.333 27 72 47s36.834 43.333 48.501 70s17.834 55 18.501 85v5c0 17.333 -5.83301 32.166 -17.5 44.499s-26.167 18.5 -43.5 18.5
s-31.666 -6 -42.999 -18s-17 -27 -17 -45v-4c-0.666992 -26.667 -11 -50 -31 -70c-9.33301 -9.33301 -20.166 -16.5 -32.499 -21.5s-25.5 -7.5 -39.5 -7.5c-28.667 0 -52.667 10.333 -72 31c-20 21.333 -30 45.333 -30 72c0 17.333 -6 32.166 -18 44.499
s-26.667 18.5 -44 18.5s-31.833 -6.16699 -43.5 -18.5s-17.5 -27.166 -17.5 -44.499z" />
    <glyph glyph-name="uni041A" unicode="&#x41a;" horiz-adv-x="1051" 
d="M110 90c0 -26 9.00098 -47.334 27.001 -64.001c8 -8 17.5 -14.333 28.5 -19s22.5 -7 34.5 -7c25.333 0 46.166 8.66699 62.499 26s24.5 39 24.5 65v504h44l536 -565c18 -18.667 40.667 -28.667 68 -30c22.667 0 42.667 9.33301 60 28c7.33301 8 13.166 17.5 17.499 28.5
s6.5 22.167 6.5 33.5c0 22.667 -8.66699 43.667 -26 63l-487 515l391 466h66c25.333 0 46.666 8.33301 63.999 25s26 37.667 26 63c0 12 -2.33301 23.5 -7 34.5s-11 20.5 -19 28.5c-17.333 17.333 -38.666 26 -63.999 26h-104c-22 0 -41.667 -7 -59 -21l-6 -5
c-5.33301 -5.33301 -9 -9.66602 -11 -12.999l-417 -498h-79v448c0 24.667 -8.16699 45.5 -24.5 62.5s-37.166 25.5 -62.499 25.5c-12 0 -23.5 -2.33301 -34.5 -7s-20.5 -11 -28.5 -19c-18 -16.667 -27 -38 -27 -64v-1130z" />
    <glyph glyph-name="uni041B" unicode="&#x41b;" horiz-adv-x="1196" 
d="M22 88c0 -10.667 2.16797 -21.333 6.50098 -32s10.5 -20 18.5 -28c16.667 -18.667 38.667 -28 66 -28c18 0 34.5 4.66699 49.5 14s26.167 22.666 33.5 39.999l400 934l404 -934c7.33301 -17.333 18.166 -30.666 32.499 -39.999s30.5 -14 48.5 -14
c28 -0 50.667 9.33301 68 28c16.667 18 25 38.667 25 62c0 14.667 -2.33301 27 -7 37l-488 1128c-7.33301 17.333 -18.5 30.5 -33.5 39.5s-31.833 13.5 -50.5 13.5c-26 0 -48 -9.66699 -66 -29l-12 -16l-8 -17l-479 -1119c-5.33301 -12 -8 -25 -8 -39z" />
    <glyph glyph-name="uni041C" unicode="&#x41c;" horiz-adv-x="1560" 
d="M110 90c0 -25.333 8.66895 -46.6641 26.002 -63.9971s38.666 -26 63.999 -26s46.833 8.66699 64.5 26s26.5 38.666 26.5 63.999v840c0 27.333 5 53 15 77s24.333 45.333 43 64c18 18 39.167 32.167 63.5 42.5s50.166 15.5 77.499 15.5s53 -5 77 -15
s45.333 -24.333 64 -43c18 -18 32.167 -39.167 42.5 -63.5s15.5 -49.5 15.5 -75.5v-171c0 -25.333 8.66699 -46.833 26 -64.5s38.666 -26.5 63.999 -26.5c26 0 47.833 8.83301 65.5 26.5s26.5 39.167 26.5 64.5v169c0 26.667 5 52.167 15 76.5s24 45.5 42 63.5
c18 18.667 38.833 33.167 62.5 43.5s49.167 15.5 76.5 15.5s53.333 -5 78 -15s46 -24.333 64 -43c18.667 -18.667 33 -40 43 -64s15 -49.667 15 -77v-840c0 -25.333 9 -46.666 27 -63.999s39.667 -26 65 -26s46.833 8.66699 64.5 26s26.5 38.666 26.5 63.999v847
c0 51.333 -9.83301 100.166 -29.5 146.499s-46.834 87.166 -81.501 122.499c-35.333 35.333 -76.5 62.833 -123.5 82.5s-96.167 29.5 -147.5 29.5c-57.333 0 -110.833 -12.167 -160.5 -36.5s-92.167 -57.833 -127.5 -100.5c-36.667 43.333 -80 77 -130 101
s-103.667 36 -161 36c-51.333 0 -100.166 -9.83301 -146.499 -29.5s-86.833 -47.167 -121.5 -82.5c-35.333 -35.333 -62.666 -76 -81.999 -122s-29 -95 -29 -147v-847z" />
    <glyph glyph-name="uni041D" unicode="&#x41d;" horiz-adv-x="1193" 
d="M110 90c0 -25.333 8.83301 -46.667 26.5 -64s39.167 -26 64.5 -26s46.833 8.66699 64.5 26s26.5 38.666 26.5 63.999v431h608v-431c0 -25.333 8.83301 -46.666 26.5 -63.999s39.167 -26 64.5 -26c24.667 0 46.334 8.66699 65.001 26c18 18 27 39.333 27 64v1137
c0 24 -9 45.667 -27 65c-18.667 17.333 -40.334 26 -65.001 26c-25.333 0 -46.833 -8.83301 -64.5 -26.5s-26.5 -39.167 -26.5 -64.5v-523h-608v523c0 25.333 -8.83301 46.833 -26.5 64.5s-39.167 26.5 -64.5 26.5s-46.833 -8.83301 -64.5 -26.5s-26.5 -39.167 -26.5 -64.5
v-1137z" />
    <glyph glyph-name="uni041E" unicode="&#x41e;" horiz-adv-x="1412" 
d="M43 651c0 -119.333 29.9971 -230.668 89.9971 -334.001c28.667 -48.667 63 -93.167 103 -133.5s84.667 -75.166 134 -104.499c102.667 -60.667 214.334 -91 335.001 -91c90.667 0 176.167 17 256.5 51s151.5 82 213.5 144c61.333 61.333 109.166 132.166 143.499 212.499
s51.5 165.5 51.5 255.5c0 60.667 -7.83301 119.334 -23.5 176.001s-38.167 110 -67.5 160c-29.333 49.333 -64.166 94.333 -104.499 135s-85.166 75 -134.499 103c-105.333 60.667 -217 91 -335 91c-119.333 0 -231 -30.333 -335 -91
c-48.667 -28.667 -93.167 -63.167 -133.5 -103.5s-74.833 -85.166 -103.5 -134.499c-29.333 -50 -51.666 -103.333 -66.999 -160s-23 -115.334 -23 -176.001zM218.997 650.998c0 66 12.5 128.667 37.5 188s59.833 111.333 104.5 156s96.667 79.5 156 104.5
s122 37.5 188 37.5c66.667 0 129.667 -12.5 189 -37.5s111.333 -59.833 156 -104.5s79.5 -96.667 104.5 -156s37.5 -122 37.5 -188c0 -66.667 -12.5 -129.667 -37.5 -189s-59.833 -111.333 -104.5 -156s-96.667 -79.5 -156 -104.5s-122.333 -37.5 -189 -37.5
c-66 0 -128.667 12.5 -188 37.5s-111.333 59.833 -156 104.5s-79.5 96.667 -104.5 156s-37.5 122.333 -37.5 189z" />
    <glyph glyph-name="uni041F" unicode="&#x41f;" horiz-adv-x="1340" 
d="M133 90c0 -25.333 8.83203 -46.668 26.499 -64.001s39.167 -26 64.5 -26s46 8.5 62 25.5s24 38.5 24 64.5v1038h718v-1038c0 -26 8.16699 -47.5 24.5 -64.5s37.166 -25.5 62.499 -25.5c24.667 0 46.334 8.66699 65.001 26c18 18 27 39.333 27 64v1133
c0 4.66699 -0.333008 7.33398 -1 8.00098l-3 14c-4.66699 18.667 -15 34 -31 46s-34 18.667 -54 20h-895c-25.333 0 -46.666 -9 -63.999 -27s-26 -39.333 -26 -64v-1130z" />
    <glyph glyph-name="uni0420" unicode="&#x420;" horiz-adv-x="1124" 
d="M68 90c0 -26 8.83203 -47.833 26.499 -65.5s39.167 -26.5 64.5 -26.5s46.166 8.66699 62.499 26s24.833 39.333 25.5 66l4 371c88 -84.667 184.667 -127 290 -127c88.667 0 170.334 22.333 245.001 67s133 103 175 175c44 75.333 66 157.333 66 246
c0 66 -12.833 130.333 -38.5 193s-60.5 116 -104.5 160c-44.667 44.667 -96.667 79.667 -156 105s-121.666 38 -186.999 38c-66 0 -128 -12.5 -186 -37.5s-108.333 -60.167 -151 -105.5c-42.667 -44 -76 -97.167 -100 -159.5s-36 -126.833 -36 -193.5v-732zM243.999 820
c0 80 29.667 153 89 219c27.333 30.667 59.333 54 96 70s76 24 118 24c42.667 0 82.834 -7.66699 120.501 -23s70.167 -37.666 97.5 -66.999c60.667 -64.667 91 -137.334 91 -218.001c0 -42 -8 -81.667 -24 -119s-38.333 -70.333 -67 -99s-61.834 -51 -99.501 -67
s-77.167 -24 -118.5 -24s-80.333 7.83301 -117 23.5s-69 37.5 -97 65.5s-49.833 60.5 -65.5 97.5s-23.5 76.167 -23.5 117.5z" />
    <glyph glyph-name="uni0421" unicode="&#x421;" horiz-adv-x="1254" 
d="M28 652c0 -59.333 7.83203 -117.334 23.499 -174.001s37.834 -110.334 66.501 -161.001c28 -49.333 62.333 -94.166 103 -134.499s85.334 -74.833 134.001 -103.5c49.333 -29.333 102.333 -51.833 159 -67.5s114.667 -23.5 174 -23.5c90 0 175.333 16.167 256 48.5
s153.667 81.166 219 146.499c16.667 16.667 25 37.334 25 62.001c0 22.667 -8 42.667 -24 60s-36.667 26 -62 26c-12 0 -23.667 -2.16699 -35 -6.5s-21 -10.5 -29 -18.5c-94 -94 -209 -141 -345 -141c-68 0 -131.833 12.833 -191.5 38.5s-111.834 61.5 -156.501 107.5
c-44.667 44.667 -79.167 96.667 -103.5 156s-36.5 121.666 -36.5 186.999c0 66.667 12.667 129.834 38 189.501s60.333 111.834 105 156.501s96.667 79.5 156 104.5s122 37.5 188 37.5c65.333 0 127.5 -12 186.5 -36s113.167 -60 162.5 -108c16 -16 36 -24 60 -24
c12 0 23.5 2.33301 34.5 7s20.5 11 28.5 19c18 18 27 38.333 27 61c0 21.333 -8.66699 41.666 -26 60.999c-65.333 65.333 -138.333 114.833 -219 148.5s-165 50.5 -253 50.5c-126 0 -240.667 -31.667 -344 -95c-49.333 -30.667 -93.833 -66.667 -133.5 -108
s-73.167 -86.666 -100.5 -135.999c-58 -103.333 -87 -213.333 -87 -330z" />
    <glyph glyph-name="uni0422" unicode="&#x422;" horiz-adv-x="1011" 
d="M19 1231c0 -24.667 8.5 -45.499 25.5 -62.499s37.833 -25.5 62.5 -25.5h312v-1063c0 -24.667 8.16699 -45.5 24.5 -62.5s36.5 -25.5 60.5 -25.5c24.667 0 45.667 8.5 63 25.5s26 37.833 26 62.5v1063h316c24.667 0 45.667 8.16699 63 24.5s26 37.166 26 62.499
c0 23.333 -8.66699 44.333 -26 63c-8 8 -17.5 14.333 -28.5 19s-22.5 7 -34.5 7h-802c-24.667 0 -45.5 -8.5 -62.5 -25.5s-25.5 -37.833 -25.5 -62.5z" />
    <glyph glyph-name="uni0423" unicode="&#x423;" horiz-adv-x="997" 
d="M36 1221c0 -14 2.33301 -25.6641 7 -34.9971l373 -798l-8 -20c-19.333 -40.667 -35.333 -72.5 -48 -95.5s-26.667 -42.5 -42 -58.5c-16.667 -18 -36.334 -31.167 -59.001 -39.5s-49.667 -12.5 -81 -12.5c-4 0 -6.66699 0.333008 -8 1h-11c-12 0 -23.5 -2.33301 -34.5 -7
s-20.5 -11 -28.5 -19c-17.333 -18.667 -26 -40.334 -26 -65.001c0 -24 8.5 -43.333 25.5 -58s38.167 -22 63.5 -22h7c52.667 0 98.5 7 137.5 21s74.167 36 105.5 66c30 28.667 58.333 65.167 85 109.5s56 100.833 88 169.5l22 48h-1l353 780
c4.66699 9.33301 7 20.666 7 33.999c0 24 -8 45 -24 63c-18.667 18.667 -40 28 -64 28c-18 0 -34.667 -4.83301 -50 -14.5s-26.666 -23.167 -33.999 -40.5l-286 -654l-297 654c-7.33301 17.333 -18.333 30.666 -33 39.999s-31 14 -49 14c-26.667 0 -48.667 -9.33301 -66 -28
c-16 -16.667 -24 -37 -24 -61z" />
    <glyph glyph-name="uni0424" unicode="&#x424;" horiz-adv-x="1265" 
d="M43 663c0 -72 12.5 -140.001 37.5 -204.001s60.5 -121.333 106.5 -172c45.333 -50.667 98.5 -91.834 159.5 -123.501s126.833 -52.167 197.5 -61.5v-31c0 -25.333 8.83301 -46.666 26.5 -63.999s39.167 -26 64.5 -26s46 8.5 62 25.5s24 38.5 24 64.5v32
c69.333 10.667 133.833 32 193.5 64s111.834 73 156.501 123s79 106.667 103 170s36 131 36 203c0 70.667 -12.167 137.834 -36.5 201.501s-58.5 120.5 -102.5 170.5c-44.667 50 -96.834 91 -156.501 123s-124.167 53.333 -193.5 64v14c0 26 -8 47.5 -24 64.5
s-36.667 25.5 -62 25.5c-26 0 -47.667 -8.5 -65 -25.5s-26 -38.5 -26 -64.5v-13c-70.667 -9.33301 -136.5 -29.833 -197.5 -61.5s-114.167 -72.5 -159.5 -122.5c-46 -50.667 -81.5 -108 -106.5 -172s-37.5 -132 -37.5 -204zM223 662.999c0 46.667 8 91.1699 24 133.503
s38.667 80.5 68 114.5c28 32.667 61.5 60.167 100.5 82.5s81.833 38.166 128.5 47.499v-757c-46 8.66699 -88.667 24.167 -128 46.5s-73 50.166 -101 83.499c-29.333 34 -52 72.167 -68 114.5s-24 87.166 -24 134.499zM721 285.002v754.003
c44 -9.33301 84.833 -25.333 122.5 -48s70.5 -50.334 98.5 -83.001c28 -33.333 49.667 -70.833 65 -112.5s23 -85.834 23 -132.501c0 -47.333 -7.66699 -91.833 -23 -133.5s-37 -79.167 -65 -112.5c-28 -32.667 -60.833 -60.334 -98.5 -83.001s-78.5 -39 -122.5 -49z" />
    <glyph glyph-name="uni0425" unicode="&#x425;" horiz-adv-x="1061" 
d="M44 92c0 -23.333 8.66699 -44.3301 26 -62.9971s38.333 -28 63 -28c15.333 0 29.333 3.5 42 10.5s23.334 16.5 32.001 28.5l317 451l317 -451c19.333 -26 42.666 -39 69.999 -39c26.667 0 48.667 9.33301 66 28c17.333 17.333 26 38 26 62c0 19.333 -5 36.333 -15 51
l-355 505l338 481c10 13.333 15 30 15 50c0 24 -8.66699 44.667 -26 62s-39.333 26 -66 26c-31.333 0 -55.333 -12.333 -72 -37l-299 -425l-297 424c-18 25.333 -43 38 -75 38c-24.667 0 -46 -9 -64 -27c-17.333 -18.667 -26 -39.334 -26 -62.001
c0 -18.667 5.33301 -35.334 16 -50.001l337 -480l-354 -505c-10.667 -14.667 -16 -31.334 -16 -50.001z" />
    <glyph glyph-name="uni0426" unicode="&#x426;" horiz-adv-x="1422" 
d="M133 91c0 -25.333 8.66699 -46.668 26 -64.001c16.667 -18 37.334 -27 62.001 -27h978v-146c0 -25.333 8.66699 -46.666 26 -63.999s38.666 -26 63.999 -26c12 0 23.5 2.33301 34.5 7s20.5 11 28.5 19c17.333 17.333 26 38.666 26 63.999v237
c0 6.66699 -0.333008 10.334 -1 11.001l-2 11l-6 17c-8 16 -19 28.667 -33 38s-30 14 -48 14h-51v1035c0 26 -8.83301 47.833 -26.5 65.5s-39.167 26.5 -64.5 26.5s-46 -8.83301 -62 -26.5s-24 -39.5 -24 -65.5v-1035h-750v1035c0 26 -8 47.833 -24 65.5
s-36.667 26.5 -62 26.5s-46.833 -8.83301 -64.5 -26.5s-26.5 -39.5 -26.5 -65.5v-1126z" />
    <glyph glyph-name="uni0427" unicode="&#x427;" horiz-adv-x="1190" 
d="M89 836c0 -66.667 11.8311 -129.498 35.498 -188.498s57.167 -110.833 100.5 -155.5s93.833 -79.5 151.5 -104.5s119.5 -37.5 185.5 -37.5c56.667 0 112.5 10.833 167.5 32.5s105.5 52.5 151.5 92.5v-386c0 -25.333 8.16699 -46.666 24.5 -63.999s36.833 -26 61.5 -26
c24 0 45.333 8.66699 64 26c17.333 17.333 26 38.666 26 63.999v1131c0 25.333 -8.66699 46.666 -26 63.999s-38.666 26 -63.999 26c-24.667 0 -45.167 -8.66699 -61.5 -26s-24.5 -38.666 -24.5 -63.999v-384c0 -42.667 -8.5 -82.834 -25.5 -120.501
s-40.5 -70.834 -70.5 -99.501s-64.167 -50.834 -102.5 -66.501s-78.5 -23.5 -120.5 -23.5s-81.167 8 -117.5 24s-67.833 38.333 -94.5 67s-47.5 61.834 -62.5 99.501s-22.5 77.5 -22.5 119.5v387c0 24.667 -8.66699 45.5 -26 62.5s-38.333 25.5 -63 25.5
c-25.333 0 -46.166 -8.5 -62.499 -25.5s-24.5 -37.833 -24.5 -62.5v-387z" />
    <glyph glyph-name="uni0428" unicode="&#x428;" horiz-adv-x="1711" 
d="M133 90c0 -25.333 8.83203 -46.667 26.499 -64s39.167 -26 64.5 -26h1264c23.333 -0 44 8.33301 62 25c18 18 27 39.667 27 65v1130c0 25.333 -8.83301 46.666 -26.5 63.999s-39.5 26 -65.5 26c-24.667 0 -45 -9.16699 -61 -27.5s-24 -40.833 -24 -67.5v-1040h-443v1045
c0 25.333 -8.66699 46.666 -26 63.999s-38.666 26 -63.999 26s-46.333 -8.66699 -63 -26s-25 -38.666 -25 -63.999v-1045h-469v1045c0 26 -8 47.5 -24 64.5s-36.667 25.5 -62 25.5s-46.833 -8.66699 -64.5 -26s-26.5 -38.666 -26.5 -63.999v-1130z" />
    <glyph glyph-name="uni0429" unicode="&#x429;" horiz-adv-x="1750" 
d="M133 90c0 -23.333 7.66699 -43.334 23 -60.001s34.333 -26.667 57 -30h1321v-146c0 -25.333 8.66699 -46.666 26 -63.999s38.666 -26 63.999 -26c24 0 44.667 8.66699 62 26s26 38.666 26 63.999v236c0 24.667 -8.66699 46.334 -26 65.001c-17.333 17.333 -38 26 -62 26
c-16 0 -31.333 -4.33301 -46 -13l-1 1v1051c0 25.333 -8.83301 46.666 -26.5 63.999s-39.5 26 -65.5 26c-24.667 0 -45 -9.16699 -61 -27.5s-24 -40.833 -24 -67.5v-1040h-443v1045c0 25.333 -8.66699 46.666 -26 63.999s-38.666 26 -63.999 26s-46.333 -8.66699 -63 -26
s-25 -38.666 -25 -63.999v-1045h-469v1045c0 26 -8 47.5 -24 64.5s-36.667 25.5 -62 25.5s-46.833 -8.66699 -64.5 -26s-26.5 -38.666 -26.5 -63.999v-1130z" />
    <glyph glyph-name="uni042A" unicode="&#x42a;" horiz-adv-x="1274" 
d="M26 1220c0 -25.333 8.66699 -46.167 26 -62.5s39 -24.5 65 -24.5h183v-1043c0 -25.333 9.33301 -46.666 28 -63.999c17.333 -17.333 38.666 -26 63.999 -26h455c51.333 0 99.833 9.33301 145.5 28s85.834 44.667 120.501 78c34.667 34 61.5 73.167 80.5 117.5
s28.5 91.833 28.5 142.5s-9.66699 99.167 -29 145.5s-46 87.166 -80 122.499c-34.667 35.333 -75 63 -121 83s-94.333 30 -145 30h-369v458c0.666992 1.33301 1 6.33301 1 15c0 26.667 -8 48.5 -24 65.5s-37 25.5 -63 25.5h-275c-25.333 0 -46.833 -8.83301 -64.5 -26.5
s-26.5 -39.167 -26.5 -64.5zM478 175.999l0.00195312 393.002h367c27.333 0 53.166 -5.16699 77.499 -15.5s46.166 -24.833 65.499 -43.5c18.667 -18.667 33.167 -39.834 43.5 -63.501s15.5 -48.167 15.5 -73.5c0 -24.667 -5.16699 -48.834 -15.5 -72.501
s-24.5 -44.5 -42.5 -62.5c-18.667 -19.333 -40 -34.5 -64 -45.5s-49.667 -16.5 -77 -16.5h-370z" />
    <glyph glyph-name="uni042B" unicode="&#x42b;" horiz-adv-x="1547" 
d="M133 90c0 -25.333 8.83203 -46.665 26.499 -63.998s39.167 -26 64.5 -26h454c51.333 0 99.833 9.33301 145.5 28s85.834 44.667 120.501 78c34.667 34 61.667 73.167 81 117.5s29 91.833 29 142.5s-9.66699 99.167 -29 145.5s-46.333 87.166 -81 122.499s-75 63 -121 83
s-94.333 30 -145 30h-368v477c0 25.333 -8 46.166 -24 62.499s-36.667 24.5 -62 24.5s-46.833 -8.83301 -64.5 -26.5s-26.5 -39.167 -26.5 -64.5v-1130zM309.999 176.001l0.000976562 393.001h367c27.333 0 53.166 -5.16699 77.499 -15.5s46.166 -24.833 65.499 -43.5
c18.667 -18.667 33.167 -39.834 43.5 -63.501s15.5 -48.167 15.5 -73.5c0 -24 -5 -48 -15 -72s-24 -45 -42 -63c-18.667 -19.333 -40.167 -34.5 -64.5 -45.5s-50.166 -16.5 -77.499 -16.5h-370zM1235 92.002c0 -25.333 8.33203 -46.5 24.999 -63.5
s37.334 -25.5 62.001 -25.5c25.333 0 46.833 8.5 64.5 25.5s26.5 38.167 26.5 63.5v1119c0 25.333 -8.66699 46.666 -26 63.999c-18.667 17.333 -39.667 26 -63 26c-12 0 -23.5 -2.33301 -34.5 -7s-20.5 -11 -28.5 -19c-17.333 -17.333 -26 -38.666 -26 -63.999v-1119z" />
    <glyph glyph-name="uni042C" unicode="&#x42c;" horiz-adv-x="1106" 
d="M133 90c0 -25.333 8.83203 -46.666 26.499 -63.999s39.167 -26 64.5 -26h454c51.333 0 99.833 9.33301 145.5 28s85.834 44.667 120.501 78c34.667 34 61.667 73.167 81 117.5s29 91.833 29 142.5s-9.66699 99.167 -29 145.5s-46.333 87.166 -81 122.499s-75 63 -121 83
s-94.333 30 -145 30h-368v479c0 25.333 -8 45.833 -24 61.5s-36.667 23.5 -62 23.5s-46.833 -8.83301 -64.5 -26.5s-26.5 -39.167 -26.5 -64.5v-1130zM309.999 176l0.000976562 393.001h367c27.333 0 53.166 -5.16699 77.499 -15.5s46.166 -24.833 65.499 -43.5
c18.667 -18.667 33.167 -39.834 43.5 -63.501s15.5 -48.167 15.5 -73.5c0 -24 -5 -48 -15 -72s-24 -45 -42 -63c-18.667 -19.333 -40.167 -34.5 -64.5 -45.5s-50.166 -16.5 -77.499 -16.5h-370z" />
    <glyph glyph-name="uni042D" unicode="&#x42d;" horiz-adv-x="1253" 
d="M45 1060c0 -12 2.50098 -23.5 7.50098 -34.5s11.5 -20.5 19.5 -28.5c8 -8.66699 17.5 -15.5 28.5 -20.5s22.5 -7.5 34.5 -7.5c24.667 0 45.667 8.66699 63 26c47.333 47.333 100.833 83 160.5 107s121.5 36 185.5 36c54.667 0 108.167 -9.66699 160.5 -29
s99.833 -46.333 142.5 -81c42.667 -35.333 78.667 -76.666 108 -123.999s50 -98.333 62 -153h-503c-25.333 0 -46.666 -8.66699 -63.999 -26c-18 -16.667 -27 -37.667 -27 -63s9 -46.333 27 -63c17.333 -18.667 38.666 -28 63.999 -28h505
c-10 -54.667 -28.833 -106.334 -56.5 -155.001s-62.167 -91.334 -103.5 -128.001c-42.667 -37.333 -90.334 -66.5 -143.001 -87.5s-108.334 -31.5 -167.001 -31.5c-137.333 0 -253 47.333 -347 142c-19.333 15.333 -40.666 23 -63.999 23
c-25.333 0 -46.833 -8.5 -64.5 -25.5s-26.5 -37.833 -26.5 -62.5s8.66699 -45.667 26 -63l2 -3c64.667 -64 137.167 -112 217.5 -144s164.5 -48 252.5 -48c58 0 115.167 7.83301 171.5 23.5s109.166 38.167 158.499 67.5c99.333 58.667 179.666 138 240.999 238
c30 50 53 103.333 69 160s24 115.334 24 176.001c0 58 -7.66699 114.833 -23 170.5s-37.666 108.5 -66.999 158.5c-59.333 101.333 -139 182.333 -239 243c-105.333 62.667 -217.666 94 -336.999 94c-87.333 0 -170.833 -16.167 -250.5 -48.5s-152.5 -80.5 -218.5 -144.5
l-3 -3c-17.333 -17.333 -26 -38.333 -26 -63z" />
    <glyph glyph-name="uni042E" unicode="&#x42e;" horiz-adv-x="1864" 
d="M133 90c0 -25.333 8.8291 -46.834 26.4961 -64.501s39.167 -26.5 64.5 -26.5s46 8.66699 62 26s24 39 24 65v470h185c11.333 -80 36 -154.833 74 -224.5s86.667 -130.5 146 -182.5c58.667 -52.667 125.834 -93.334 201.501 -122.001s155.167 -43 238.5 -43
c60 0 118.5 7.83301 175.5 23.5s110.5 38.167 160.5 67.5c48.667 28.667 93.334 63.334 134.001 104.001s75.334 85.667 104.001 135c60 103.333 90 215 90 335c0 120.667 -30 233 -90 337c-28.667 49.333 -63.167 94.333 -103.5 135s-85.166 75.334 -134.499 104.001
c-50 29.333 -103.5 51.833 -160.5 67.5s-115.5 23.5 -175.5 23.5c-111.333 0 -215.333 -25.667 -312 -77c-94.667 -50 -172.334 -118.333 -233.001 -205c-61.333 -88 -99.666 -186.333 -114.999 -295h-185v474c0 26 -8 47.833 -24 65.5s-36.667 26.5 -62 26.5
s-46.833 -8.83301 -64.5 -26.5s-26.5 -39.5 -26.5 -65.5v-1127zM671.996 652.999c0 88 22.0029 169.667 66.0029 245c43.333 73.333 101 131 173 173c73.333 43.333 154.666 65 243.999 65c65.333 0 127.5 -12.333 186.5 -37s110.833 -59.334 155.5 -104.001
c44 -44 78.333 -95.667 103 -155s37 -121.666 37 -186.999c0 -66.667 -12.333 -129.334 -37 -188.001s-59 -110 -103 -154c-44.667 -44.667 -96.5 -79.334 -155.5 -104.001s-121.167 -37 -186.5 -37c-66.667 0 -129.334 12.333 -188.001 37s-110 59.334 -154 104.001
c-44.667 44.667 -79.334 96.334 -104.001 155.001s-37 121 -37 187z" />
    <glyph glyph-name="uni042F" unicode="&#x42f;" horiz-adv-x="1134" 
d="M51 840c0 -97.333 27 -184.999 81 -262.999c52 -76.667 121.667 -133 209 -169l-243 -253c-18.667 -18.667 -28 -40.667 -28 -66c0 -23.333 9.66699 -44 29 -62c18 -18 39 -27 63 -27c25.333 0 47 9 65 27l332 343h260v-280c0 -25.333 8.83301 -46.666 26.5 -63.999
s39.167 -26 64.5 -26s46.833 8.66699 64.5 26s26.5 38.666 26.5 63.999v1130c0 25.333 -8.83301 46.833 -26.5 64.5s-39.167 26.5 -64.5 26.5h-376c-65.333 0 -127.5 -11.833 -186.5 -35.5s-110.5 -56.834 -154.5 -99.501c-44.667 -42.667 -79.5 -93 -104.5 -151
s-37.5 -119.667 -37.5 -185zM234 840.001c0 37.333 7.66992 73.501 23.0029 108.501s36.333 65.833 63 92.5c26.667 27.333 58.167 48.666 94.5 63.999s75.166 23 116.499 23h288v-575h-286c-42.667 0 -82.334 7.66699 -119.001 23s-68.334 36.666 -95.001 63.999
c-26.667 26.667 -47.5 57.334 -62.5 92.001s-22.5 70.667 -22.5 108z" />
    <glyph glyph-name="uni0430" unicode="&#x430;" 
d="M48 476c0 -66.667 12.502 -129.67 37.502 -189.003s59.833 -111.333 104.5 -156c44.667 -45.333 96.334 -80.5 155.001 -105.5s121 -37.5 187 -37.5c57.333 0 112.166 9.5 164.499 28.5s99.833 46.167 142.5 81.5l1 -14c0 -26 8 -47.667 24 -65s36.667 -26 62 -26
s46.666 8.83301 63.999 26.5s26 39.167 26 64.5v398c-1.33301 66 -14.5 128.333 -39.5 187s-59.5 110.334 -103.5 155.001c-44.667 44.667 -96.167 79.334 -154.5 104.001s-120.5 37 -186.5 37s-128.333 -12.5 -187 -37.5s-110.334 -60.167 -155.001 -105.5
s-79.5 -97.666 -104.5 -156.999s-37.5 -122.333 -37.5 -189zM225.002 475.997c0 42 7.83008 81.833 23.4971 119.5s37.5 70.834 65.5 99.501s60.667 51 98 67s77.333 24 120 24s82.834 -8 120.501 -24s70.834 -38.333 99.501 -67c28 -28.667 49.667 -61.834 65 -99.501
s23 -77.5 23 -119.5s-7.66699 -81.833 -23 -119.5s-37 -70.834 -65 -99.501c-28.667 -29.333 -61.667 -52 -99 -68s-77.666 -24 -120.999 -24c-42.667 0 -82.667 8 -120 24s-70 38.667 -98 68c-28 28.667 -49.833 61.834 -65.5 99.501s-23.5 77.5 -23.5 119.5z" />
    <glyph glyph-name="uni0431" unicode="&#x431;" horiz-adv-x="1080" 
d="M60 476c0 -66 12.6699 -128.829 38.0029 -188.496s60.666 -111.834 105.999 -156.501c45.333 -45.333 97.5 -80.5 156.5 -105.5s121.5 -37.5 187.5 -37.5c66.667 0 129.834 12.667 189.501 38s111.834 60.333 156.501 105s79.5 96.667 104.5 156s37.5 122.333 37.5 189
s-12.5 129.667 -37.5 189s-59.833 111.666 -104.5 156.999c-44.667 44.667 -96.834 79.667 -156.501 105s-122.834 38 -189.501 38c-59.333 0 -115.5 -9.83301 -168.5 -29.5s-101.167 -47.834 -144.5 -84.501c2 42.667 12.333 81.834 31 117.501s44 66.5 76 92.5
c31.333 25.333 67.166 44.666 107.499 57.999s83.166 20 128.499 20h171c24.667 0 45.5 8.16699 62.5 24.5s25.5 37.166 25.5 62.499c0 24 -8.66699 44.167 -26 60.5s-38 24.5 -62 24.5h-175c-70.667 -0.666992 -137.167 -12 -199.5 -34s-116.833 -53.667 -163.5 -95
c-48 -42 -85.167 -92.167 -111.5 -150.5s-39.5 -122.5 -39.5 -192.5v-363zM237.003 476.004c0 42 8.16797 81.833 24.501 119.5s38.833 70.834 67.5 99.501s61.834 51 99.501 67s77.5 24 119.5 24c43.333 0 84 -8 122 -24s71.333 -38.333 100 -67
s50.834 -61.834 66.501 -99.501s23.5 -77.5 23.5 -119.5s-7.83301 -81.833 -23.5 -119.5s-37.834 -70.834 -66.501 -99.501c-28.667 -29.333 -62 -52 -100 -68s-78.667 -24 -122 -24c-42.667 0 -82.834 8 -120.501 24s-70.834 38.667 -99.501 68
c-28.667 28.667 -51 61.834 -67 99.501s-24 77.5 -24 119.5z" />
    <glyph glyph-name="uni0432" unicode="&#x432;" horiz-adv-x="932" 
d="M133 86c0 -24 8.33398 -44.333 25.001 -61s37.334 -25 62.001 -25h364c42 -0 81.5 6.83301 118.5 20.5s69.5 32.834 97.5 57.501s49.667 54.334 65 89.001s23 72.667 23 114c0 51.333 -13.333 97.5 -40 138.5s-63.334 72.833 -110.001 95.5c31.333 23.333 56 51 74 83
s27 67.333 27 106c0 39.333 -7.33301 75.166 -22 107.499s-35.334 60.166 -62.001 83.499c-25.333 22.667 -54.833 40 -88.5 52s-68.834 18 -105.501 18h-341c-23.333 0 -43.666 -8.66699 -60.999 -26s-26 -38 -26 -62v-791zM308.001 169v262h281
c20 0 38.667 -3.66699 56 -11s32 -17.333 44 -30c24.667 -26 37 -58 37 -96c0 -36.667 -12.5 -66.667 -37.5 -90s-58.167 -35 -99.5 -35h-281zM308.001 563v237h250c36 0 65 -11.167 87 -33.5s33 -51.5 33 -87.5s-11.667 -64.667 -35 -86c-22 -20 -50.333 -30 -85 -30h-250z
" />
    <glyph glyph-name="uni0433" unicode="&#x433;" horiz-adv-x="848" 
d="M133 90c0 -25.333 8.83203 -46.834 26.499 -64.501s39.167 -26.5 64.5 -26.5s46 8.66699 62 26s24 39 24 65v696h417c26 0 47.5 8 64.5 24s25.5 36.667 25.5 62c0 26 -8.66699 47.667 -26 65s-38.666 26 -63.999 26h-503c-25.333 0 -46.833 -8.66699 -64.5 -26
s-26.5 -38.666 -26.5 -63.999v-783z" />
    <glyph glyph-name="uni0434" unicode="&#x434;" horiz-adv-x="1098" 
d="M47 92l0.00195312 -220.999c0 -26 9 -47.333 27 -64c8 -8 17.5 -14.333 28.5 -19s22.5 -7 34.5 -7c24 0 44.667 8.66699 62 26s26 38.666 26 63.999v129h660v-130c0 -12 2.33301 -23.5 7 -34.5s11 -20.5 19 -28.5c17.333 -17.333 38.666 -26 63.999 -26
c24.667 0 45.5 8.66699 62.5 26s25.5 38.333 25.5 63v221c0 24 -8.66699 44.667 -26 62c-17.333 16 -38 24 -62 24c-8.66699 0 -13.667 -0.333008 -15 -1h-31v698c0 25.333 -8.16699 46.666 -24.5 63.999s-36.833 26.333 -61.5 27h-417
c-14.667 0 -23.334 -1.33301 -26.001 -4c-19.333 -6 -35 -16.667 -47 -32s-18 -34 -18 -56v-486c0 -73.333 -14.833 -126.5 -44.5 -159.5s-79.5 -49.5 -149.5 -49.5h-3c-25.333 0 -46.333 -8.33301 -63 -25c-18.667 -17.333 -28 -37.666 -28 -60.999zM467.002 176.001
c29.333 56 44.333 125 45 207v403h241v-610h-286z" />
    <glyph glyph-name="uni0435" unicode="&#x435;" horiz-adv-x="1068" 
d="M44 476c0 -66 12.668 -128.83 38.001 -188.497s60.666 -111.834 105.999 -156.501c44.667 -44.667 97 -79.667 157 -105s123 -38 189 -38c39.333 0 76.833 3 112.5 9s66.834 14.667 93.501 26c58.667 24.667 88 57.334 88 98.001c0 12 -2.33301 23.667 -7 35
s-11 21.333 -19 30c-18 18 -38.333 27 -61 27c-16.667 0 -34.334 -5.33301 -53.001 -16c-23.333 -14 -46.5 -24 -69.5 -30s-51.167 -9 -84.5 -9c-35.333 0 -69.166 5.83301 -101.499 17.5s-61.833 28.5 -88.5 50.5c-26 22 -48 47.333 -66 76s-30.667 60 -38 94h698
c25.333 0 46 8 62 24s24 36 24 60c-0.666992 65.333 -13.834 127.666 -39.501 186.999s-60.834 111.333 -105.501 156c-45.333 44.667 -97.833 79.5 -157.5 104.5s-122.167 37.5 -187.5 37.5c-66 0 -129 -12.667 -189 -38s-112.333 -60.333 -157 -105
c-45.333 -44.667 -80.666 -96.834 -105.999 -156.501s-38 -122.834 -38 -189.501zM235.001 544.003c6 34.667 17.667 67.501 35 98.501s39.333 57.833 66 80.5c26.667 23.333 57.167 41.333 91.5 54s70.833 19 109.5 19c38 0 74.333 -6.33301 109 -19
s65.667 -30.334 93 -53.001s50 -49.5 68 -80.5s30 -64.167 36 -99.5h-608z" />
    <glyph glyph-name="uni0436" unicode="&#x436;" horiz-adv-x="1420" 
d="M10 88c0 -24 8.66797 -44.668 26.001 -62.001c16.667 -18 37.667 -27 63 -27c24.667 0 46.334 9.33301 65.001 28l367 384l86 -81v-241c0 -25.333 8.5 -46.5 25.5 -63.5s37.5 -25.5 61.5 -25.5c25.333 0 46.666 8.5 63.999 25.5s26 38.167 26 63.5v241l86 81l368 -384
c18 -18.667 39 -28 63 -28c26 0 47.333 9 64 27c17.333 17.333 26 38 26 62c0 23.333 -8.33301 43.666 -25 60.999l-367 384l319 301c19.333 18.667 29 41 29 67c0 24 -9 45 -27 63c-18 16.667 -38.667 25 -62 25c-21.333 0 -41.333 -8.33301 -60 -25l-414 -390v301
c0 25.333 -8.66699 46.666 -26 63.999c-18.667 17.333 -40 26 -64 26c-24.667 0 -45.334 -8.66699 -62.001 -26s-25 -38.666 -25 -63.999v-301l-414 390c-18 16 -38 24 -60 24c-23.333 0 -44 -8.33301 -62 -25c-18 -18 -27 -38.667 -27 -62
c0 -25.333 9.66699 -47.666 29 -66.999l319 -301l-367 -384c-16.667 -17.333 -25 -37.666 -25 -60.999z" />
    <glyph glyph-name="uni0437" unicode="&#x437;" horiz-adv-x="887" 
d="M50 177c0 -20 7 -39.6689 21 -59.002c25.333 -34 60.333 -61.333 105 -82c48 -23.333 99.333 -35.333 154 -36h202c40 0 77.667 7 113 21s66 34 92 60c26.667 26 47.167 56.333 61.5 91s21.5 72 21.5 112c0 46.667 -10.833 88.167 -32.5 124.5s-51.5 65.833 -89.5 88.5
c33.333 22.667 59.333 50.834 78 84.501s28 72.834 28 117.501c0 39.333 -6.66699 75.333 -20 108s-32.333 60.667 -57 84c-24 23.333 -52.833 41.333 -86.5 54s-70.167 19.334 -109.5 20.001h-177c-34.667 0 -69.334 -5 -104.001 -15s-65.334 -23.667 -92.001 -41
c-27.333 -17.333 -49 -36.5 -65 -57.5s-24 -42.167 -24 -63.5s7 -41 21 -59c16 -20.667 37 -31 63 -31c31.333 0 56.333 12.667 75 38c25.333 32.667 67.333 49.667 126 51h163c33.333 0 60.333 -9 81 -27s31 -43.667 31 -77c0 -32.667 -11.667 -59 -35 -79
c-21.333 -18.667 -49.666 -28 -84.999 -28h-159c-26 0 -47.833 -7.5 -65.5 -22.5s-26.5 -34.833 -26.5 -59.5s8.66699 -43.667 26 -57s39.333 -20 66 -20h175c32 -1.33301 59.667 -12.333 83 -33c24 -22 36 -49.667 36 -83c0 -34.667 -11.667 -63.667 -35 -87
c-11.333 -11.333 -24.333 -20.333 -39 -27s-29.667 -10.334 -45 -11.001h-195c-28 1.33301 -51.167 5.5 -69.5 12.5s-34.166 18.833 -47.499 35.5l-2 4c-16.667 24 -40.667 36 -72 36c-26.667 0 -49 -9.66699 -67 -29c-14.667 -16.667 -22 -36 -22 -58z" />
    <glyph glyph-name="uni0438" unicode="&#x438;" horiz-adv-x="1088" 
d="M69 91c0 -25.333 8.83398 -46.833 26.501 -64.5s39.5 -26.5 65.5 -26.5c14 0 27.5 3.5 40.5 10.5s23.833 15.5 32.5 25.5l503 613v-558c0 -26.667 7 -48.5 21 -65.5s33.333 -25.5 58 -25.5c25.333 -0 46.666 8.83301 63.999 26.5s26 39.167 26 64.5v783
c0 25.333 -8.83301 46.833 -26.5 64.5s-39.167 26.5 -64.5 26.5c-28.667 0 -52.667 -12 -72 -36l-497 -608v552c0 26 -8 47.833 -24 65.5s-36.667 26.5 -62 26.5c-26 0 -47.667 -8.83301 -65 -26.5s-26 -39.5 -26 -65.5v-782z" />
    <glyph glyph-name="uni0439" unicode="&#x439;" horiz-adv-x="1088" 
d="M69 91c0 -25.333 8.83398 -46.833 26.501 -64.5s39.5 -26.5 65.5 -26.5c14 0 27.5 3.5 40.5 10.5s23.833 15.5 32.5 25.5l503 613v-558c0 -26.667 7 -48.5 21 -65.5s33.333 -25.5 58 -25.5c25.333 -0 46.666 8.83301 63.999 26.5s26 39.167 26 64.5v783
c0 25.333 -8.83301 46.833 -26.5 64.5s-39.167 26.5 -64.5 26.5c-28.667 0 -52.667 -12 -72 -36l-497 -608v552c0 26 -8 47.833 -24 65.5s-36.667 26.5 -62 26.5c-26 0 -47.667 -8.83301 -65 -26.5s-26 -39.5 -26 -65.5v-782zM300.001 1305
c0 -30.667 5.8291 -59.498 17.4961 -86.498s27.834 -50.833 48.501 -71.5s44.667 -36.834 72 -48.501s56.333 -17.5 87 -17.5c29.333 0 57.666 5.66699 84.999 17s51.333 27 72 47s36.834 43.333 48.501 70s17.834 55 18.501 85v5c0 17.333 -5.83301 32.166 -17.5 44.499
s-26.167 18.5 -43.5 18.5s-31.666 -6 -42.999 -18s-17 -27 -17 -45v-4c-0.666992 -26.667 -11 -50 -31 -70c-9.33301 -9.33301 -20.166 -16.5 -32.499 -21.5s-25.5 -7.5 -39.5 -7.5c-28.667 0 -52.667 10.333 -72 31c-20 21.333 -30 45.333 -30 72
c0 17.333 -6 32.166 -18 44.499s-26.667 18.5 -44 18.5s-31.833 -6.16699 -43.5 -18.5s-17.5 -27.166 -17.5 -44.499z" />
    <glyph glyph-name="uni043A" unicode="&#x43a;" horiz-adv-x="948" 
d="M133 89c0 -25.333 8.66895 -46.498 26.002 -63.498s38.666 -25.5 63.999 -25.5c24 0 44.5 8.5 61.5 25.5s25.5 38.167 25.5 63.5v241l86 81l367 -384c18 -18.667 39.333 -28 64 -28c26 0 47.333 9 64 27c17.333 17.333 26 38 26 62c0 23.333 -8.33301 43.666 -25 60.999
l-367 384l319 301c19.333 18.667 29 41 29 67c0 24 -9 45 -27 63c-18 16.667 -38.667 25 -62 25c-21.333 0 -41.333 -8.33301 -60 -25l-414 -390v301c0 25.333 -8.33301 46.666 -25 63.999s-37.334 26 -62.001 26c-12 0 -23.5 -2.33301 -34.5 -7s-20.5 -11 -28.5 -19
c-18 -16.667 -27 -38 -27 -64v-786z" />
    <glyph glyph-name="uni043B" unicode="&#x43b;" horiz-adv-x="926" 
d="M21 86c0 -23.333 8.66602 -43.666 25.999 -60.999c17.333 -18.667 39.333 -28 66 -28c18 0 34.167 4.83301 48.5 14.5s25.166 23.167 32.499 40.5l270 657l268 -657c7.33301 -17.333 18.333 -30.833 33 -40.5s31 -14.5 49 -14.5c24.667 0 46 9 64 27
c17.333 17.333 26 38 26 62c0 9.33301 -2.66699 21 -8 35l-349 793c-6 14 -16.167 26.333 -30.5 37s-28.833 16 -43.5 16h-13c-17.333 0 -33.166 -4.83301 -47.499 -14.5s-25.166 -22.5 -32.499 -38.5l-351 -793c-5.33301 -12.667 -8 -24.334 -8 -35.001z" />
    <glyph glyph-name="uni043C" unicode="&#x43c;" horiz-adv-x="1318" 
d="M94 88c0 -25.333 8.67188 -46.335 26.0049 -63.002s38.333 -25 63 -25c24 0 44.5 8.33301 61.5 25s25.5 37.667 25.5 63l3 545c0 2 -0.666992 7.66699 -2 17c2.66699 18.667 8.5 36.167 17.5 52.5s20.5 30.5 34.5 42.5c29.333 26 63.333 39 102 39
c21.333 0 41.166 -4.16699 59.499 -12.5s34.833 -19.833 49.5 -34.5c29.333 -31.333 44 -68.666 44 -111.999v-200c0 -25.333 8.5 -46.5 25.5 -63.5s37.833 -25.5 62.5 -25.5c24 0 44.667 8.66699 62 26s26 38.333 26 63v204c0 6.66699 -0.333008 10.667 -1 12
c1.33301 19.333 6.16602 37.833 14.499 55.5s19.5 32.834 33.5 45.501c28.667 27.333 63 41 103 41c21.333 0 41.666 -4 60.999 -12s36.333 -19.333 51 -34s26 -31.667 34 -51s12 -39.333 12 -60v-538c0 -25.333 8.5 -46.333 25.5 -63s37.833 -25 62.5 -25
s45.5 8.33301 62.5 25s25.5 37.667 25.5 63v548c0 44 -8.83301 86.167 -26.5 126.5s-41.834 75.833 -72.501 106.5c-31.333 30 -67.333 53.5 -108 70.5s-83.334 25.5 -128.001 25.5c-46.667 0 -90.667 -9.33301 -132 -28s-77.333 -44.667 -108 -78
c-31.333 33.333 -67.666 59.333 -108.999 78s-85.333 28 -132 28c-44.667 0 -86.834 -8.5 -126.501 -25.5s-74.5 -40.5 -104.5 -70.5c-30.667 -30.667 -54.5 -66 -71.5 -106s-25.5 -82.333 -25.5 -127v-548z" />
    <glyph glyph-name="uni043D" unicode="&#x43d;" horiz-adv-x="1060" 
d="M114 90c0 -25.333 8.83203 -46.666 26.499 -63.999s39.167 -26 64.5 -26s46 8.5 62 25.5s24 38.5 24 64.5v305h432v-305c0 -26 7.83301 -47.5 23.5 -64.5s36.167 -25.5 61.5 -25.5c24.667 0 46.334 8.66699 65.001 26c18 18 27 39.333 27 64v783
c0 26 -8.83301 47.833 -26.5 65.5s-39.5 26.5 -65.5 26.5c-25.333 0 -45.833 -8.83301 -61.5 -26.5s-23.5 -39.5 -23.5 -65.5v-296h-432v296c0 26 -7.83301 47.833 -23.5 65.5s-36.167 26.5 -61.5 26.5c-12 0 -23.667 -2.33301 -35 -7s-21 -11 -29 -19
c-8.66699 -8.66699 -15.5 -18.834 -20.5 -30.501s-7.5 -23.5 -7.5 -35.5v-783z" />
    <glyph glyph-name="uni043E" unicode="&#x43e;" horiz-adv-x="1064" 
d="M44 476c0 -66 12.667 -128.831 38 -188.498s60.666 -111.834 105.999 -156.501c45.333 -45.333 97.5 -80.5 156.5 -105.5s121.5 -37.5 187.5 -37.5c66.667 0 129.834 12.667 189.501 38s111.834 60.333 156.501 105s79.5 96.667 104.5 156s37.5 122.333 37.5 189
s-12.5 129.667 -37.5 189s-59.833 111.666 -104.5 156.999c-44.667 44.667 -96.834 79.667 -156.501 105s-122.834 38 -189.501 38c-66 0 -128.5 -12.5 -187.5 -37.5s-111.167 -60.167 -156.5 -105.5s-80.666 -97.833 -105.999 -157.5s-38 -122.5 -38 -188.5zM221 476.002
c0 42 8 81.833 24 119.5s38.333 70.834 67 99.501s61.834 51 99.501 67s77.834 24 120.501 24c43.333 0 83.833 -8 121.5 -24s70.834 -38.333 99.501 -67s50.834 -61.834 66.501 -99.501s23.5 -77.5 23.5 -119.5s-7.83301 -81.833 -23.5 -119.5
s-37.834 -70.834 -66.501 -99.501c-28.667 -29.333 -61.834 -52 -99.501 -68s-78.167 -24 -121.5 -24c-42.667 0 -82.834 8 -120.501 24s-70.834 38.667 -99.501 68c-28.667 28.667 -51 61.834 -67 99.501s-24 77.5 -24 119.5z" />
    <glyph glyph-name="uni043F" unicode="&#x43f;" horiz-adv-x="1069" 
d="M133 90c0 -25.333 8.83301 -46.667 26.5 -64s39.167 -26 64.5 -26s46 8.5 62 25.5s24 38.5 24 64.5v691h447v-691c0 -26 8.16699 -47.5 24.5 -64.5s37.166 -25.5 62.499 -25.5c24 0 45.333 8.66699 64 26c18 18 27 39.333 27 64v768c0.666992 1.33301 1 6.33301 1 15
c0 25.333 -8.66699 46.833 -26 64.5s-38.666 26.5 -63.999 26.5h-626c-18 -1.33301 -33.667 -6.33301 -47 -15s-23.333 -20 -30 -34l-6 -13c-2.66699 -6 -4 -15.667 -4 -29v-783z" />
    <glyph glyph-name="uni0440" unicode="&#x440;" 
d="M89 -255c0 -26 8.83203 -47.832 26.499 -65.499s38.834 -26.5 63.501 -26.5c25.333 0 46 8.83301 62 26.5s24 39.5 24 65.5v356c43.333 -36.667 91.333 -64.667 144 -84s109 -29 169 -29c66 0 128.833 12.667 188.5 38s111.834 60.333 156.501 105s79.5 96.667 104.5 156
s37.5 122.333 37.5 189s-12.5 129.667 -37.5 189s-59.833 111.666 -104.5 156.999c-44.667 44.667 -96.834 79.667 -156.501 105s-122.5 38 -188.5 38s-128.833 -12.667 -188.5 -38s-111.834 -60.333 -156.501 -105c-45.333 -45.333 -80.666 -97.833 -105.999 -157.5
s-38 -122.5 -38 -188.5v-731zM265.999 476.001c0 42 8 81.833 24 119.5s38.333 70.834 67 99.501s62 51 100 67s78.333 24 121 24s83 -8 121 -24s71.333 -38.333 100 -67s50.834 -61.834 66.501 -99.501s23.5 -77.5 23.5 -119.5s-7.83301 -81.833 -23.5 -119.5
s-37.834 -70.834 -66.501 -99.501c-28.667 -29.333 -62 -52 -100 -68s-78.333 -24 -121 -24s-83 8 -121 24s-71.333 38.667 -100 68c-28.667 28.667 -51 61.834 -67 99.501s-24 77.5 -24 119.5z" />
    <glyph glyph-name="uni0441" unicode="&#x441;" horiz-adv-x="944" 
d="M44 471c0 -66 12.667 -128.334 38 -187.001s60.666 -110.334 105.999 -155.001c45.333 -44 97.833 -78.333 157.5 -103s122.834 -37 189.501 -37c64 0 125 11.333 183 34s107.667 54.667 149 96c10 10 17.667 21.5 23 34.5s8 25.833 8 38.5c0 24 -10 45.333 -30 64
c-8 7.33301 -17.333 13 -28 17s-20.334 6 -29.001 6c-14 0 -28.333 -4 -43 -12l-70 -49c-26.667 -18.667 -53.667 -31.667 -81 -39s-57.333 -11 -90 -11c-42.667 0 -82.334 8.33301 -119.001 25s-69 40 -97 70c-27.333 28 -48.5 60.667 -63.5 98s-22.5 76 -22.5 116
c0 39.333 7.5 77.333 22.5 114s35.833 69.334 62.5 98.001s58 51.5 94 68.5s74.333 26.167 115 27.5c34 0 65.167 -3.66699 93.5 -11s56.833 -20.333 85.5 -39l70 -50c13.333 -7.33301 27.333 -11 42 -11c8.66699 0 18.334 2 29.001 6s20.334 9.66699 29.001 17
c20.667 17.333 31 38.666 31 63.999s-10.667 49.666 -32 72.999c-42 42 -91.833 74.333 -149.5 97s-118.5 34 -182.5 34c-67.333 0 -131 -12.667 -191 -38s-112.333 -60.666 -157 -105.999c-45.333 -45.333 -80.5 -98.166 -105.5 -158.499s-37.5 -124.166 -37.5 -191.499z
" />
    <glyph glyph-name="uni0442" unicode="&#x442;" horiz-adv-x="997" 
d="M91 873c0 -24 8.50098 -44.333 25.501 -61s38.167 -25 63.5 -25h233v-697c0 -26 8 -47.5 24 -64.5s36.667 -25.5 62 -25.5s46.833 8.66699 64.5 26s26.5 38.666 26.5 63.999v697h225c26 0 47.833 8 65.5 24s26.5 36.667 26.5 62c0 24.667 -8.66699 46.334 -26 65.001
c-8.66699 8 -18.834 14.5 -30.501 19.5s-23.5 7.5 -35.5 7.5h-635c-25.333 0 -46.5 -8.83301 -63.5 -26.5s-25.5 -39.5 -25.5 -65.5z" />
    <glyph glyph-name="uni0443" unicode="&#x443;" horiz-adv-x="1118" 
d="M80 465c0 -56.667 9.33496 -110.67 28.002 -162.003s45.667 -97.666 81 -138.999c34.667 -42 75.167 -76.833 121.5 -104.5s96.166 -46.5 149.499 -56.5v-254c0 -25.333 8.5 -46.5 25.5 -63.5s38.167 -25.5 63.5 -25.5s46 8.66699 62 26c8 8 14.333 17.5 19 28.5
s7 22.5 7 34.5v253c54 10 104.5 28.833 151.5 56.5s87.833 62.167 122.5 103.5c34.667 42 61.5 88.833 80.5 140.5s28.5 105.834 28.5 162.501v412c0 24.667 -8.16699 45.5 -24.5 62.5s-37.166 25.5 -62.499 25.5c-24.667 0 -45.834 -8.5 -63.501 -25.5
s-26.5 -37.833 -26.5 -62.5v-408c0 -40.667 -7.5 -79 -22.5 -115s-35.833 -68 -62.5 -96c-26.667 -27.333 -57.834 -48.666 -93.501 -63.999s-73.5 -23 -113.5 -23s-78 7.5 -114 22.5s-67.333 35.833 -94 62.5c-27.333 26.667 -48.5 57.667 -63.5 93s-22.5 73.333 -22.5 114
v414c0 24.667 -8.66699 45.667 -26 63c-18 16.667 -39 25 -63 25c-24.667 0 -45.5 -8.5 -62.5 -25.5s-25.5 -37.833 -25.5 -62.5v-412z" />
    <glyph glyph-name="uni0444" unicode="&#x444;" horiz-adv-x="1863" 
d="M44 476c0 -66 12.668 -128.668 38.001 -188.001s60.666 -111.333 105.999 -156c45.333 -45.333 97.5 -80.5 156.5 -105.5s121.5 -37.5 187.5 -37.5c55.333 0 109.833 10.833 163.5 32.5s103.167 51.834 148.5 90.501v-335c0 -24.667 8.66699 -45.667 26 -63
s38.666 -26 63.999 -26c24.667 0 45.167 8.5 61.5 25.5s24.5 38.167 24.5 63.5v336c45.333 -39.333 94.833 -69.833 148.5 -91.5s108.167 -32.5 163.5 -32.5c66 0 128.833 12.667 188.5 38s111.834 60.333 156.501 105s79.5 96.667 104.5 156s37.5 122 37.5 188
c0 66.667 -12.5 129.834 -37.5 189.501s-59.833 112.167 -104.5 157.5c-44.667 44.667 -96.834 79.667 -156.501 105s-122.5 38 -188.5 38c-56 0 -110.833 -10.833 -164.5 -32.5s-102.834 -52.5 -147.501 -92.5v372c0 25.333 -8.16699 46.833 -24.5 64.5
s-36.833 26.5 -61.5 26.5c-25.333 0 -46.666 -8.83301 -63.999 -26.5s-26 -39.167 -26 -64.5v-371c-45.333 39.333 -94.833 69.833 -148.5 91.5s-108.167 32.5 -163.5 32.5c-66 0 -128.5 -12.5 -187.5 -37.5s-111.167 -60.167 -156.5 -105.5
s-80.666 -97.833 -105.999 -157.5s-38 -122.834 -38 -189.501zM221.001 475.999c0 42 8 82 24 120s38.333 71.333 67 100s61.834 51 99.501 67s77.834 24 120.501 24c43.333 0 84 -8 122 -24s71.333 -38.333 100 -67s50.834 -62 66.501 -100s23.5 -78 23.5 -120
s-7.83301 -81.833 -23.5 -119.5s-37.834 -70.834 -66.501 -99.501s-62 -51 -100 -67s-78.667 -24 -122 -24c-42.667 0 -82.834 8 -120.501 24s-70.834 38.333 -99.501 67s-51 61.834 -67 99.501s-24 77.5 -24 119.5zM1021 475.999c0 42 8 82 24 120s38.333 71.333 67 100
s61.834 51 99.501 67s77.834 24 120.501 24s83 -8 121 -24s71.333 -38.333 100 -67s50.834 -62 66.501 -100s23.5 -78 23.5 -120s-7.83301 -81.833 -23.5 -119.5s-37.834 -70.834 -66.501 -99.501s-62 -51 -100 -67s-78.333 -24 -121 -24s-82.834 8 -120.501 24
s-70.834 38.333 -99.501 67s-51 61.834 -67 99.501s-24 77.5 -24 119.5z" />
    <glyph glyph-name="uni0445" unicode="&#x445;" horiz-adv-x="1064" 
d="M51 85c0 -22.667 8.66699 -42.668 26 -60.001c8 -8 17.5 -14.333 28.5 -19s22.5 -7 34.5 -7c25.333 0 47 9 65 27l327 332l329 -332c17.333 -17.333 38 -26 62 -26s44.5 8.5 61.5 25.5s25.5 38.167 25.5 63.5c0 26.667 -8.66699 47.334 -26 62.001l-328 333l327 331
c16 16 24 36.667 24 62c0 24 -8.33301 44.333 -25 61c-18 18 -38.333 27 -61 27c-28 0 -50 -9 -66 -27l-323 -328l-324 330c-8.66699 8.66699 -18.5 15.167 -29.5 19.5s-22.5 6.5 -34.5 6.5c-23.333 0 -44 -9 -62 -27c-17.333 -17.333 -26 -37.666 -26 -60.999
c0 -24.667 8.33301 -45.334 25 -62.001l327 -332l-330 -336c-18.667 -18.667 -27.667 -39.667 -27 -63z" />
    <glyph glyph-name="uni0446" unicode="&#x446;" horiz-adv-x="1145" 
d="M133 90c0 -25.333 8.83301 -46.667 26.5 -64s39.167 -26 64.5 -26h704v-130c0 -12 2.5 -23.333 7.5 -34s11.833 -19.667 20.5 -27c8 -8 17.5 -14.333 28.5 -19s22.5 -7 34.5 -7c24 0 44.333 7.83301 61 23.5s25 35.5 25 59.5v224l-2 15l-2 10c0 3.33301 -1 6 -3 8l-6 12
c-8 12.667 -18.5 22.667 -31.5 30s-27.167 11 -42.5 11h-52v697c0 26 -7.83301 47.667 -23.5 65s-36.167 26 -61.5 26s-46.833 -8.83301 -64.5 -26.5s-26.5 -39.167 -26.5 -64.5v-697h-480v697c0 26 -8 47.667 -24 65s-36.667 26 -62 26s-46.833 -8.83301 -64.5 -26.5
s-26.5 -39.167 -26.5 -64.5v-783z" />
    <glyph glyph-name="uni0447" unicode="&#x447;" horiz-adv-x="1112" 
d="M50 693c0 -66.667 11.8301 -129.33 35.4971 -187.997s57.167 -110.334 100.5 -155.001c42.667 -44.667 92.834 -79.5 150.501 -104.5s119.5 -37.5 185.5 -37.5c60.667 0 117 11.333 169 34s98.667 54.667 140 96v-248c0 -24.667 8.33301 -45.667 25 -63s37 -26 61 -26
c25.333 0 46.666 8.66699 63.999 26c8 8 14.333 17.5 19 28.5s7 22.5 7 34.5v784c0 25.333 -8.66699 46.833 -26 64.5s-38.666 26.5 -63.999 26.5c-24.667 0 -45.167 -8.83301 -61.5 -26.5s-24.5 -39.167 -24.5 -64.5v-188c0 -44 -8.16699 -84.5 -24.5 -121.5
s-38.833 -68.833 -67.5 -95.5c-28.667 -26 -61.667 -46.167 -99 -60.5s-76.666 -21.5 -117.999 -21.5c-40.667 0 -78.667 7.66699 -114 23s-66.333 37 -93 65c-27.333 27.333 -48.5 59.166 -63.5 95.499s-22.833 74.833 -23.5 115.5v188c0 25.333 -8.66699 46.833 -26 64.5
s-38.666 26.5 -63.999 26.5c-24 0 -44.667 -8.66699 -62 -26c-17.333 -18.667 -26 -40.334 -26 -65.001v-181z" />
    <glyph glyph-name="uni0448" unicode="&#x448;" horiz-adv-x="1471" 
d="M133 90c0 -26 8.66699 -47.5 26 -64.5s39 -25.5 65 -25.5h1067c24 0 44.333 8.16699 61 24.5s25 36.833 25 61.5v787c0 26 -8 47.667 -24 65s-36.667 26 -62 26s-46.833 -8.83301 -64.5 -26.5s-26.5 -39.167 -26.5 -64.5v-697h-357v697c0 26 -8 47.667 -24 65
s-36.667 26 -62 26s-46.833 -8.83301 -64.5 -26.5s-26.5 -39.167 -26.5 -64.5v-697h-356v697c0 26 -8 47.667 -24 65s-36.667 26 -62 26s-46.833 -8.83301 -64.5 -26.5s-26.5 -39.167 -26.5 -64.5v-783z" />
    <glyph glyph-name="uni0449" unicode="&#x449;" horiz-adv-x="1548" 
d="M133 90c0 -25.333 8.83301 -46.667 26.5 -64s39.167 -26 64.5 -26h1114v-130c0 -12 2.5 -23.333 7.5 -34s11.833 -19.667 20.5 -27c8 -8 17.667 -14.333 29 -19s23 -7 35 -7c24 0 44.333 7.83301 61 23.5s25 35.5 25 59.5v226c-0.666992 11.333 -2.66699 21.333 -6 30
l-1 2l-6 10v2c-0.666992 0 -1 0.333008 -1 1c-8 12 -18.333 21.5 -31 28.5s-26.667 10.5 -42 10.5h-52v697c0 26 -8 47.667 -24 65s-36.667 26 -62 26s-46.833 -8.83301 -64.5 -26.5s-26.5 -39.167 -26.5 -64.5v-697h-357v697c0 26 -8 47.667 -24 65s-36.667 26 -62 26
s-46.833 -8.83301 -64.5 -26.5s-26.5 -39.167 -26.5 -64.5v-697h-356v697c0 26 -8 47.667 -24 65s-36.667 26 -62 26s-46.833 -8.83301 -64.5 -26.5s-26.5 -39.167 -26.5 -64.5v-783z" />
    <glyph glyph-name="uni044A" unicode="&#x44a;" horiz-adv-x="1064" 
d="M9 877c0 -25.333 8.66797 -46.668 26.001 -64.001s38.666 -26 63.999 -26h168v-697c0 -25.333 8.66699 -46.666 26 -63.999s38.666 -26 63.999 -26h385c38 0 74.333 7 109 21s64.667 33.333 90 58s45.166 53.667 59.499 87s21.5 69 21.5 107s-7.16699 74 -21.5 108
s-34.166 64.333 -59.499 91c-25.333 26 -55.333 46.333 -90 61s-71 22 -109 22h-298v321c0 26 -7.83301 47.333 -23.5 64s-36.167 25 -61.5 25h-260c-25.333 0 -46.666 -8.66699 -63.999 -26s-26 -38 -26 -62zM444.001 154.998v246.001h273c35.333 0 66 -12.333 92 -37
c24.667 -24.667 37 -53.334 37 -86.001s-12 -61 -36 -85c-24 -25.333 -54.333 -38 -91 -38h-275z" />
    <glyph glyph-name="uni044B" unicode="&#x44b;" horiz-adv-x="1319" 
d="M136 90c0 -26 9 -47.333 27 -64c8 -8 17.5 -14.333 28.5 -19s22.5 -7 34.5 -7h384c38 0 74.167 7 108.5 21s64.5 33.333 90.5 58s46.167 53.667 60.5 87s21.5 69 21.5 107s-7.16699 74 -21.5 108s-34.5 64.333 -60.5 91c-26 26 -56.167 46.333 -90.5 61
s-70.5 22 -108.5 22h-297v321c0 25.333 -8.5 46.5 -25.5 63.5s-38.167 25.5 -63.5 25.5s-46.333 -8.66699 -63 -26s-25 -39 -25 -65v-784zM313 155v246.001h273c35.333 0 66 -12.333 92 -37c24.667 -24.667 37 -53.334 37 -86.001s-12 -61 -36 -85
c-24 -25.333 -54.333 -38 -91 -38h-275zM1007 89.001c0 -25.333 8.83398 -46.5 26.501 -63.5s39.167 -25.5 64.5 -25.5c24 0 44.667 8.66699 62 26s26 38.333 26 63v786c0 25.333 -8.33301 46.666 -25 63.999s-37.334 26 -62.001 26c-26 0 -47.833 -8.66699 -65.5 -26
s-26.5 -38.666 -26.5 -63.999v-786z" />
    <glyph glyph-name="uni044C" unicode="&#x44c;" horiz-adv-x="930" 
d="M133 90c0 -26 9 -47.333 27 -64c8 -8 17.5 -14.333 28.5 -19s22.5 -7 34.5 -7h384c38 0 74.167 7 108.5 21s64.5 33.333 90.5 58s46.167 53.667 60.5 87s21.5 69 21.5 107s-7.16699 74 -21.5 108s-34.5 64.333 -60.5 91c-26 26 -56.167 46.333 -90.5 61
s-70.5 22 -108.5 22h-297v321c0 25.333 -8.5 46.5 -25.5 63.5s-38.167 25.5 -63.5 25.5s-46.333 -8.66699 -63 -26s-25 -39 -25 -65v-784zM310 155v246.001h273c35.333 0 66 -12.333 92 -37c24.667 -24.667 37 -53.334 37 -86.001s-12 -61 -36 -85
c-24 -25.333 -54.333 -38 -91 -38h-275z" />
    <glyph glyph-name="uni044D" unicode="&#x44d;" horiz-adv-x="944" 
d="M44 764c0 26.667 10.9971 51.0029 32.9971 73.0029c42 42 91.667 74.167 149 96.5s118.333 33.5 183 33.5c66.667 0 129.834 -12.5 189.501 -37.5s112.167 -60.167 157.5 -105.5c45.333 -44.667 80.666 -97 105.999 -157s38 -123.333 38 -190v-1
c-0.666992 0.666992 -1.66699 0.333984 -3 -0.999023l2 -3c0 -0.666992 0.333008 -1 1 -1c0 -66 -12.667 -128.333 -38 -187s-60.666 -110.334 -105.999 -155.001c-45.333 -44 -97.833 -78.333 -157.5 -103s-122.834 -37 -189.501 -37c-64 0 -124.833 11.167 -182.5 33.5
s-107.5 54.5 -149.5 96.5c-21.333 19.333 -32 43.333 -32 72c0 24 10 45.333 30 64c8 7.33301 17.333 13.166 28 17.499s20.334 6.5 29.001 6.5c14 0 27 -3.16699 39 -9.5s26 -15.5 42 -27.5c31.333 -26.667 64 -45.667 98 -57s72 -17 114 -17
c33.333 0.666992 65.5 7 96.5 19s59.167 28.667 84.5 50c24.667 20.667 45.834 44.667 63.501 72s30.5 56.666 38.5 87.999h-334c-26 0 -47.5 7.66699 -64.5 23s-25.5 35.666 -25.5 60.999c0 24 8.5 43.5 25.5 58.5s38.5 22.5 64.5 22.5h332
c-10 31.333 -23.833 60.666 -41.5 87.999s-38.834 51 -63.501 71c-25.333 20.667 -53.5 36.834 -84.5 48.501s-63.5 17.5 -97.5 17.5c-39.333 0 -75.666 -5.83301 -108.999 -17.5s-65.666 -30.5 -96.999 -56.5c-30 -24.667 -57 -37 -81 -37c-19.333 0 -38 8 -56 24
c-21.333 18 -32 39.333 -32 64z" />
    <glyph glyph-name="uni044E" unicode="&#x44e;" horiz-adv-x="1486" 
d="M133 89c0 -26 9.00195 -47.332 27.002 -63.999c16.667 -16.667 37.667 -25 63 -25c24 0 44.667 8.66699 62 26s26 38.333 26 63v310l144 1c8.66699 -57.333 27.167 -111 55.5 -161s64.5 -94 108.5 -132s93.167 -67.333 147.5 -88s111.166 -31 170.499 -31
c66 0 128.833 12.667 188.5 38s111.834 60.333 156.501 105s79.667 96.834 105 156.501s38 122.5 38 188.5s-12.667 128.833 -38 188.5s-60.333 112.167 -105 157.5c-44.667 44.667 -96.834 79.667 -156.501 105s-122.5 38 -188.5 38c-56.667 0 -111.5 -9.66699 -164.5 -29
s-100.833 -46.333 -143.5 -81s-78.5 -75.834 -107.5 -123.501s-49.5 -98.834 -61.5 -153.501l-149 -1v298c0 25.333 -8.33301 46.666 -25 63.999s-37.334 26 -62.001 26c-25.333 0 -46.833 -8.66699 -64.5 -26s-26.5 -38.666 -26.5 -63.999v-786zM626.002 476.001
c0 42 8 81.833 24 119.5s38.333 70.834 67 99.501s61.834 51 99.501 67s77.834 24 120.501 24s83 -8 121 -24s71.333 -38.333 100 -67s50.834 -61.834 66.501 -99.501s23.5 -77.5 23.5 -119.5s-7.83301 -81.833 -23.5 -119.5s-37.834 -70.834 -66.501 -99.501
c-28.667 -29.333 -62 -52 -100 -68s-78.333 -24 -121 -24s-82.834 8 -120.501 24s-70.834 38.667 -99.501 68c-28.667 28.667 -51 61.834 -67 99.501s-24 77.5 -24 119.5z" />
    <glyph glyph-name="uni044F" unicode="&#x44f;" horiz-adv-x="923" 
d="M112 600c0 -72 19.3311 -135.335 57.998 -190.002c36.667 -53.333 87 -92.666 151 -117.999l-131 -143c-18.667 -20 -27.667 -41.333 -27 -64c0 -23.333 9 -44 27 -62c17.333 -17.333 38 -26 62 -26c25.333 0 46.333 9 63 27l219 240h147v-175c0 -26 8 -47.667 24 -65
s36.667 -26 62 -26s46.666 8.83301 63.999 26.5s26 39.167 26 64.5v784c0 25.333 -8.66699 46.833 -26 64.5s-38.666 26.5 -63.999 26.5h-1l1 1h-292c-49.333 0 -96.166 -9.5 -140.499 -28.5s-83.166 -45.167 -116.499 -78.5c-33.333 -34 -59.333 -73.167 -78 -117.5
s-28 -91.166 -28 -140.499zM287.998 604.998c0 23.333 4.83203 46.1689 14.499 68.502s23.167 42.5 40.5 60.5c37.333 38.667 82.333 58 135 58h203v-355h-201c-27.333 0 -52.833 4.16699 -76.5 12.5s-44.167 20.166 -61.5 35.499s-30.666 33.166 -39.999 53.499
s-14 42.5 -14 66.5z" />
    <glyph glyph-name="uni0451" unicode="&#x451;" horiz-adv-x="1068" 
d="M44 476c0 -66 12.668 -128.83 38.001 -188.497s60.666 -111.834 105.999 -156.501c44.667 -44.667 97 -79.667 157 -105s123 -38 189 -38c39.333 0 76.833 3 112.5 9s66.834 14.667 93.501 26c58.667 24.667 88 57.334 88 98.001c0 12 -2.33301 23.667 -7 35
s-11 21.333 -19 30c-18 18 -38.333 27 -61 27c-16.667 0 -34.334 -5.33301 -53.001 -16c-23.333 -14 -46.5 -24 -69.5 -30s-51.167 -9 -84.5 -9c-35.333 0 -69.166 5.83301 -101.499 17.5s-61.833 28.5 -88.5 50.5c-26 22 -48 47.333 -66 76s-30.667 60 -38 94h698
c25.333 0 46 8 62 24s24 36 24 60c-0.666992 65.333 -13.834 127.666 -39.501 186.999s-60.834 111.333 -105.501 156c-45.333 44.667 -97.833 79.5 -157.5 104.5s-122.167 37.5 -187.5 37.5c-66 0 -129 -12.667 -189 -38s-112.333 -60.333 -157 -105
c-45.333 -44.667 -80.666 -96.834 -105.999 -156.501s-38 -122.834 -38 -189.501zM235.001 544.003c6 34.667 17.667 67.501 35 98.501s39.333 57.833 66 80.5c26.667 23.333 57.167 41.333 91.5 54s70.833 19 109.5 19c38 0 74.333 -6.33301 109 -19
s65.667 -30.334 93 -53.001s50 -49.5 68 -80.5s30 -64.167 36 -99.5h-608zM270.001 1195c0 -27.333 10.002 -51 30.002 -71c19.333 -19.333 43 -29 71 -29c14 0 27.167 2.5 39.5 7.5s23.166 12.167 32.499 21.5c19.333 19.333 29 43 29 71c0 27.333 -9.66699 51.333 -29 72
c-18.667 20 -42.667 30 -72 30c-28.667 0 -52.334 -10 -71.001 -30c-20 -21.333 -30 -45.333 -30 -72zM634.003 1195c0 -28.667 10 -52.333 30 -71c20.667 -19.333 44.334 -29 71.001 -29c14 0 27.167 2.5 39.5 7.5s23.166 12.167 32.499 21.5c19.333 19.333 29 43 29 71
c0 27.333 -9.66699 51.333 -29 72c-18.667 20 -42.667 30 -72 30c-27.333 0 -51 -10 -71 -30s-30 -44 -30 -72z" />
    <glyph glyph-name="uni0452" unicode="&#x452;" horiz-adv-x="1318" 
d="M16 1234c0 -21.333 7.33398 -39.332 22.001 -53.999s32.667 -22 54 -22h170v-1069c0 -25.333 8.66699 -46.5 26 -63.5s38.666 -25.5 63.999 -25.5c23.333 0 44.333 8.66699 63 26c17.333 17.333 26 38.333 26 63v433c4.66699 37.333 15.5 72.166 32.5 104.499
s39.167 60.833 66.5 85.5c26.667 24 57.334 42.5 92.001 55.5s71 19.5 109 19.5c41.333 0 79.166 -8 113.499 -24s63.833 -38.333 88.5 -67c24 -28 42.5 -60.833 55.5 -98.5s19.5 -77.5 19.5 -119.5v-542c0 -52.667 -12.833 -91.667 -38.5 -117
s-66.167 -38.666 -121.5 -39.999h-5c-26 0 -47.833 -8.83301 -65.5 -26.5s-26.5 -39.834 -26.5 -66.501c0 -26 9 -48 27 -66s40 -27 66 -27h3c54 0 103 8 147 24s81.667 39 113 69c64 62 96 148 96 258v534c0 65.333 -11.833 127.666 -35.5 186.999
s-56.834 111.333 -99.501 156c-43.333 44.667 -94 79.667 -152 105s-119.667 38 -185 38c-112 0 -212 -35.667 -300 -107v301h261c20 0 36.667 7.33301 50 22s20 32.334 20 53.001s-7.16699 38.5 -21.5 53.5s-32.166 22.5 -53.499 22.5l-605 1
c-21.333 0 -39.333 -7.33301 -54 -22s-22 -32.667 -22 -54z" />
    <glyph glyph-name="uni0453" unicode="&#x453;" horiz-adv-x="899" 
d="M145 90c0 -25.333 8.83203 -46.834 26.499 -64.501s39.167 -26.5 64.5 -26.5s46 8.66699 62 26s24 39 24 65v696h417c26 0 47.5 8 64.5 24s25.5 36.667 25.5 62c0 26 -8.66699 47.667 -26 65s-38.666 26 -63.999 26h-503c-25.333 0 -46.833 -8.66699 -64.5 -26
s-26.5 -38.666 -26.5 -63.999v-783zM459.999 1219c0 -24.667 8.66699 -45.667 26 -63c15.333 -16.667 35 -25 59 -25c11.333 0 20.666 1.33301 27.999 4l194 81c19.333 6 34.833 16.667 46.5 32s17.5 33 17.5 53c0 25.333 -8.66699 46.5 -26 63.5s-38.666 25.5 -63.999 25.5
c-8 0 -16 -1 -24 -3l-191 -82c-20 -5.33301 -36 -16 -48 -32s-18 -34 -18 -54z" />
    <glyph glyph-name="uni0454" unicode="&#x454;" horiz-adv-x="944" 
d="M1 471c0 -66 12.6641 -128.329 37.9971 -186.996s60.666 -110.334 105.999 -155.001c45.333 -44 97.833 -78.333 157.5 -103s122.834 -37 189.501 -37c64 0 125 11.333 183 34s107.667 54.667 149 96c10 10 17.667 21.5 23 34.5s8 25.833 8 38.5c0 24 -10 45.333 -30 64
c-8 7.33301 -17.167 13 -27.5 17s-19.833 6 -28.5 6c-14 0 -27.333 -3.33301 -40 -10s-26.667 -15.667 -42 -27c-30.667 -26.667 -62.667 -45.667 -96 -57s-69.666 -17 -108.999 -17c-34.667 0 -67.667 5.83301 -99 17.5s-60.333 28.167 -87 49.5
c-25.333 20.667 -47 45 -65 73s-31 57.667 -39 89h334c26 0 47.5 7.66699 64.5 23s25.5 35.666 25.5 60.999c0 24 -8.5 43.5 -25.5 58.5s-38.5 22.5 -64.5 22.5h-332c8.66699 30.667 21.834 59.5 39.501 86.5s38.834 50.833 63.501 71.5
c25.333 21.333 53.833 37.833 85.5 49.5s64.5 17.5 98.5 17.5c39.333 0 75.833 -5.83301 109.5 -17.5s65.834 -30.5 96.501 -56.5c30 -24.667 57 -37 81 -37c9.33301 0 19.166 2.16699 29.499 6.5s19.5 10.166 27.5 17.499c20 17.333 30 38.666 30 63.999
c0 26 -10.333 50.333 -31 73c-41.333 41.333 -91 73.333 -149 96s-119 34 -183 34c-66.667 0 -129.834 -12.5 -189.501 -37.5s-112.167 -60.167 -157.5 -105.5c-45.333 -44.667 -80.666 -97 -105.999 -157s-38 -123.333 -38 -190l2 -2z" />
    <glyph glyph-name="uni0455" unicode="&#x455;" horiz-adv-x="880" 
d="M46 90c0 -26.667 7.66602 -48.334 22.999 -65.001s34.666 -25 57.999 -25h415c40 0 77.5 7.5 112.5 22.5s65.5 36.167 91.5 63.5c26 26 46 56.5 60 91.5s21 72.167 21 111.5c0 38 -7 74.833 -21 110.5s-33.667 66.834 -59 93.501
c-25.333 27.333 -55.666 48.666 -90.999 63.999s-72.666 23 -111.999 23h-201c-26.667 0 -50.667 10 -72 30c-20.667 18.667 -31 43.334 -31 74.001c0 27.333 10 51.666 30 72.999c20.667 20.667 45 31 73 31h351c22.667 0 42.334 9 59.001 27
c16 17.333 24 38.666 24 63.999c0 26.667 -8.33301 47.667 -25 63s-37.667 23 -63 23h-347c-38 0 -74 -7 -108 -21s-63.667 -33.667 -89 -59s-45.333 -54.833 -60 -88.5s-22 -69.167 -22 -106.5c0 -38 7 -74.5 21 -109.5s33.667 -65.5 59 -91.5
c26 -27.333 56 -48.666 90 -63.999s70.333 -23 109 -23h181h5c32 -1.33301 60.333 -10.666 85 -27.999c25.333 -18.667 38 -45.667 38 -81c0 -36 -13.333 -65 -40 -87c-12 -10 -25.333 -17.5 -40 -22.5s-29.334 -7.5 -44.001 -7.5h-400c-24 0 -43.5 -7.83301 -58.5 -23.5
s-22.5 -36.5 -22.5 -62.5z" />
    <glyph glyph-name="uni0456" unicode="&#x456;" horiz-adv-x="383" 
d="M91 1183c0 -26.667 10.001 -50.001 30.001 -70.001s43.667 -30 71 -30c26 0 49.667 10 71 30c20 18.667 30 42 30 70c0 28.667 -10 52.334 -30 71.001c-20.667 19.333 -44.334 29 -71.001 29c-28 0 -51.667 -9.66699 -71 -29c-20 -20 -30 -43.667 -30 -71z
M102.001 80.999c0 -24.667 8.83105 -45.5 26.498 -62.5s38.834 -25.5 63.501 -25.5c24 0 44.5 8.5 61.5 25.5s25.5 37.833 25.5 62.5v795c0 24.667 -8.33301 45.667 -25 63s-37 26 -61 26c-25.333 0 -46.666 -8.66699 -63.999 -26c-18 -16.667 -27 -37.667 -27 -63v-795z
" />
    <glyph glyph-name="uni0457" unicode="&#x457;" horiz-adv-x="383" 
d="M-87 1193c0 -27.333 10.002 -51 30.002 -71c19.333 -19.333 43 -29 71 -29c14 0 27.167 2.5 39.5 7.5s23.166 12.167 32.499 21.5c19.333 19.333 29 43 29 71c0 27.333 -9.66699 51.333 -29 72c-18.667 20 -42.667 30 -72 30c-28.667 0 -52.334 -10 -71.001 -30
c-20 -21.333 -30 -45.333 -30 -72zM102.002 89c0 -25.333 8.83398 -46.5 26.501 -63.5s39.167 -25.5 64.5 -25.5c24 0 44.667 8.66699 62 26s26 38.333 26 63v786c0 25.333 -8.33301 46.666 -25 63.999s-37.334 26 -62.001 26c-26 0 -47.833 -8.66699 -65.5 -26
s-26.5 -38.666 -26.5 -63.999v-786zM277.003 1193c0 -28.667 10 -52.333 30 -71c20.667 -19.333 44.334 -29 71.001 -29c14 0 27.167 2.5 39.5 7.5s23.166 12.167 32.499 21.5c19.333 19.333 29 43 29 71c0 27.333 -9.66699 51.333 -29 72c-18.667 20 -42.667 30 -72 30
c-27.333 0 -51 -10 -71 -30s-30 -44 -30 -72z" />
    <glyph glyph-name="uni0458" unicode="&#x458;" horiz-adv-x="443" 
d="M-105 -205c0 -25.333 8.66504 -46.6689 25.998 -64.002c16.667 -16.667 37.667 -25 63 -25h7c42.667 0 83.5 8.33301 122.5 25s73.167 39.667 102.5 69s52.333 63.5 69 102.5s25 80.167 25 123.5v848c0 25.333 -8.66699 46.666 -26 63.999s-38 26 -62 26
s-44.667 -8.66699 -62 -26c-18 -16.667 -27 -38 -27 -64v-848c0 -39.333 -13.667 -72.666 -41 -99.999c-13.333 -13.333 -28.666 -23.666 -45.999 -30.999s-35.666 -11 -54.999 -11h-7c-25.333 0 -46.333 -8.33301 -63 -25c-17.333 -17.333 -26 -38.666 -26 -63.999z
M122.998 1181c0 -28 9.16602 -51.834 27.499 -71.501s41.5 -29.5 69.5 -29.5s52 10 72 30s30 43.667 30 71c0 28.667 -9.33301 52.667 -28 72s-42.334 29 -71.001 29c-27.333 0 -50.666 -9.66699 -69.999 -29c-9.33301 -9.33301 -16.666 -20.166 -21.999 -32.499
s-8 -25.5 -8 -39.5z" />
    <glyph glyph-name="uni0459" unicode="&#x459;" horiz-adv-x="1671" 
d="M33 88c0 -24.667 8.83203 -45.8359 26.499 -63.5029s38.834 -26.5 63.501 -26.5h6c59.333 0.666992 112.833 9.83398 160.5 27.501s87.834 43.5 120.501 77.5c66.667 68.667 100 164.334 100 287.001v403h405v-703c0 -25.333 9 -46.666 27 -63.999s39.667 -26 65 -26
l348 -1c38.667 0 75 6.83301 109 20.5s64 33.167 90 58.5c26 24 46 53 60 87s21 70 21 108s-7 74.167 -21 108.5s-34 64.5 -60 90.5s-56 46.333 -90 61s-70.333 22 -109 22h-257v319c0 24 -8.66699 45.333 -26 64c-19.333 18 -41 27 -65 27h-589
c-24.667 0 -45.834 -8.83301 -63.501 -26.5s-26.5 -39.167 -26.5 -64.5v-483c0 -72.667 -15.833 -126 -47.5 -160s-83.167 -51.333 -154.5 -52h-3c-12 0 -23.5 -2.33301 -34.5 -7s-20.5 -11 -28.5 -19c-18 -18 -27 -39.667 -27 -65zM1098 155.998v245.001h232
c36 0 66.333 -12.333 91 -37s37 -53.334 37 -86.001c0 -32 -11.667 -60.333 -35 -85c-11.333 -12 -24.833 -21.333 -40.5 -28s-32.5 -10 -50.5 -10z" />
    <glyph glyph-name="uni045A" unicode="&#x45a;" horiz-adv-x="1588" 
d="M133 90c0 -25.333 8.83203 -46.665 26.499 -63.998s39.167 -26 64.5 -26s46 8.5 62 25.5s24 38.5 24 64.5v308h486v-308c0 -26 7.83301 -47.5 23.5 -64.5s36.167 -25.5 61.5 -25.5h384c38 0 74.167 7 108.5 21s64.166 33.333 89.499 58s45.166 53.667 59.499 87
s21.5 69 21.5 107s-7.16699 74 -21.5 108s-34.166 64.333 -59.499 91c-25.333 26 -55.166 46.333 -89.499 61s-70.5 22 -108.5 22h-293v322c0 25.333 -8.66699 46.666 -26 63.999s-38.666 26 -63.999 26s-46 -8.5 -62 -25.5s-24 -38.5 -24 -64.5v-320h-486v316
c0 26 -7.83301 47.833 -23.5 65.5s-36.167 26.5 -61.5 26.5c-12 0 -23.667 -2.33301 -35 -7s-21 -11 -29 -19c-8.66699 -8.66699 -15.5 -18.834 -20.5 -30.501s-7.5 -23.5 -7.5 -35.5v-783zM971.999 155.001l-0.000976562 247h266c34.667 0 65 -12.333 91 -37
c24 -24 36 -53 36 -87c0 -32 -11.667 -60.333 -35 -85c-11.333 -12 -24.666 -21.333 -39.999 -28s-32 -10 -50 -10h-268z" />
    <glyph glyph-name="uni045B" unicode="&#x45b;" horiz-adv-x="1149" 
d="M-9 1140c0 24.667 8.66797 46.3359 26.001 65.0029c8 8 17.5 14.333 28.5 19s22.5 7 34.5 7h14c1.33301 24 10 44 26 60c8 8 17.5 14.333 28.5 19s22.5 7 34.5 7c24 0 44.667 -8.66699 62 -26c16 -16 24.667 -36 26 -60h301c12 0 23.5 -2.33301 34.5 -7
s20.5 -11 28.5 -19c17.333 -18.667 26 -40.334 26 -65.001c0 -24 -8.66699 -44.667 -26 -62c-8 -8 -17.5 -14.333 -28.5 -19s-22.5 -7 -34.5 -7h-301v-243c40.667 49.333 88 87.666 142 114.999s111.667 41 173 41c63.333 0 122.5 -12.167 177.5 -36.5
s102.5 -58.166 142.5 -101.499c39.333 -42.667 69.833 -92.834 91.5 -150.501s32.5 -118.5 32.5 -182.5v-408c0 -25.333 -8.66699 -46.166 -26 -62.499s-38.333 -24.5 -63 -24.5s-45.334 8.16699 -62.001 24.5s-25 37.166 -25 62.499v407
c0 40.667 -6.33301 79.167 -19 115.5s-30.667 67.833 -54 94.5c-24 27.333 -52.5 48.5 -85.5 63.5s-69.5 22.5 -109.5 22.5s-78.833 -7.33301 -116.5 -22s-71.5 -35 -101.5 -61c-30 -26.667 -53.667 -57.834 -71 -93.501s-26 -73.167 -26 -112.5v-412
c0 -24.667 -8.5 -45.5 -25.5 -62.5s-37.833 -25.5 -62.5 -25.5c-25.333 0 -46.5 8.5 -63.5 25.5s-25.5 37.833 -25.5 62.5v964h-14c-12 0 -23.5 2.33301 -34.5 7s-20.5 11 -28.5 19c-17.333 17.333 -26 38 -26 62z" />
    <glyph glyph-name="uni045C" unicode="&#x45c;" horiz-adv-x="920" 
d="M133 89c0 -25.333 8.66895 -46.498 26.002 -63.498s38.666 -25.5 63.999 -25.5c24 0 44.5 8.5 61.5 25.5s25.5 38.167 25.5 63.5v241l86 81l367 -384c18 -18.667 39.333 -28 64 -28c26 0 47.333 9 64 27c17.333 17.333 26 38 26 62c0 23.333 -8.33301 43.666 -25 60.999
l-367 384l319 301c19.333 18.667 29 41 29 67c0 24 -9 45 -27 63c-18 16.667 -38.667 25 -62 25c-21.333 0 -41.333 -8.33301 -60 -25l-414 -390v301c0 25.333 -8.33301 46.666 -25 63.999s-37.334 26 -62.001 26c-12 0 -23.5 -2.33301 -34.5 -7s-20.5 -11 -28.5 -19
c-18 -16.667 -27 -38 -27 -64v-786zM373.002 1198c0 -24.667 8.66699 -45.667 26 -63c15.333 -16.667 35 -25 59 -25c11.333 0 20.666 1.33301 27.999 4l194 81c19.333 6 34.833 16.667 46.5 32s17.5 33 17.5 53c0 25.333 -8.66699 46.5 -26 63.5s-38.666 25.5 -63.999 25.5
c-8 0 -16 -1 -24 -3l-191 -82c-20 -5.33301 -36 -16 -48 -32s-18 -34 -18 -54z" />
    <glyph glyph-name="uni045E" unicode="&#x45e;" horiz-adv-x="1118" 
d="M80 465c0 -56.667 9.33496 -110.67 28.002 -162.003s45.667 -97.666 81 -138.999c34.667 -42 75.167 -76.833 121.5 -104.5s96.166 -46.5 149.499 -56.5v-254c0 -25.333 8.5 -46.5 25.5 -63.5s38.167 -25.5 63.5 -25.5s46 8.66699 62 26c8 8 14.333 17.5 19 28.5
s7 22.5 7 34.5v253c54 10 104.5 28.833 151.5 56.5s87.833 62.167 122.5 103.5c34.667 42 61.5 88.833 80.5 140.5s28.5 105.834 28.5 162.501v412c0 24.667 -8.16699 45.5 -24.5 62.5s-37.166 25.5 -62.499 25.5c-24.667 0 -45.834 -8.5 -63.501 -25.5
s-26.5 -37.833 -26.5 -62.5v-408c0 -40.667 -7.5 -79 -22.5 -115s-35.833 -68 -62.5 -96c-26.667 -27.333 -57.834 -48.666 -93.501 -63.999s-73.5 -23 -113.5 -23s-78 7.5 -114 22.5s-67.333 35.833 -94 62.5c-27.333 26.667 -48.5 57.667 -63.5 93s-22.5 73.333 -22.5 114
v414c0 24.667 -8.66699 45.667 -26 63c-18 16.667 -39 25 -63 25c-24.667 0 -45.5 -8.5 -62.5 -25.5s-25.5 -37.833 -25.5 -62.5v-412zM347.002 1300c0 -30.667 5.8291 -59.498 17.4961 -86.498s27.834 -50.833 48.501 -71.5s44.667 -36.834 72 -48.501
s56.333 -17.5 87 -17.5c29.333 0 57.666 5.66699 84.999 17s51.333 27 72 47s36.834 43.333 48.501 70s17.834 55 18.501 85v5c0 17.333 -5.83301 32.166 -17.5 44.499s-26.167 18.5 -43.5 18.5s-31.666 -6 -42.999 -18s-17 -27 -17 -45v-4
c-0.666992 -26.667 -11 -50 -31 -70c-9.33301 -9.33301 -20.166 -16.5 -32.499 -21.5s-25.5 -7.5 -39.5 -7.5c-28.667 0 -52.667 10.333 -72 31c-20 21.333 -30 45.333 -30 72c0 17.333 -6 32.166 -18 44.499s-26.667 18.5 -44 18.5s-31.833 -6.16699 -43.5 -18.5
s-17.5 -27.166 -17.5 -44.499z" />
    <glyph glyph-name="uni045F" unicode="&#x45f;" horiz-adv-x="1198" 
d="M133 79c0 -20 9.66797 -38.668 29.001 -56.001c8 -7.33301 17.167 -13.166 27.5 -17.499s20.833 -6.5 31.5 -6.5l298 1v-174c0 -25.333 9 -46.333 27 -63c17.333 -17.333 38.666 -26 63.999 -26s47 8.33301 65 25c18 18 27 39.333 27 64v174h276
c2.66699 0 8.66699 0.666992 18 2l17 6c34.667 16 52 43.667 52 83v781c0 25.333 -8.66699 47 -26 65s-38.666 27 -63.999 27s-47 -9 -65 -27s-27 -39.667 -27 -65v-690h-567v690c0 25.333 -8.66699 47.333 -26 66c-18.667 17.333 -40.334 26 -65.001 26
c-12.667 0 -24.667 -2.33301 -36 -7s-21 -11 -29 -19c-18 -18 -27 -40 -27 -66v-793z" />
    <glyph glyph-name="uni0462" unicode="&#x462;" horiz-adv-x="1134" 
d="M25 1147c0 -12 2.33105 -23.5 6.99805 -34.5s11 -20.5 19 -28.5c16.667 -18 38 -27 64 -27l167 -1v-966c0 -25.333 8.83301 -46.666 26.5 -63.999s39.167 -26 64.5 -26l393 -1c46.667 0 90.667 8.16699 132 24.5s77.333 39.833 108 70.5
c31.333 30.667 55.5 66.167 72.5 106.5s25.5 83.5 25.5 129.5c0 45.333 -8.66699 88.833 -26 130.5s-41.333 78.167 -72 109.5c-31.333 32 -67.5 56.833 -108.5 74.5s-84.833 26.5 -131.5 26.5h-302v385l186 -1c25.333 0 46.333 9 63 27c17.333 17.333 26 38.666 26 63.999
s-8.33301 46.333 -25 63c-17.333 17.333 -38.666 26 -63.999 26h-187c-3.33301 22 -13.333 40.333 -30 55s-36.667 22 -60 22s-43.333 -7.33301 -60 -22s-26.667 -33 -30 -55l-168 1c-25.333 0 -46.666 -8.66699 -63.999 -26c-8 -8 -14.333 -17.5 -19 -28.5
s-7 -22.5 -7 -34.5zM463.998 173l0.000976562 326.998h301c47.333 0 87.666 -16 120.999 -48c16 -15.333 28.333 -33 37 -53s13 -41 13 -63c0 -21.333 -4.33301 -41.666 -13 -60.999s-20.667 -36.666 -36 -51.999c-34.667 -33.333 -74.667 -50 -120 -50h-303z" />
    <glyph glyph-name="uni0463" unicode="&#x463;" horiz-adv-x="1075" 
d="M20 1033c0 -25.333 8.83301 -46.833 26.5 -64.5s39.167 -26.5 64.5 -26.5h83v-852c0 -25.333 9.33301 -46.666 28 -63.999c17.333 -17.333 38.666 -26 63.999 -26l369 -1c47.333 0 92.333 8.5 135 25.5s79.667 40.833 111 71.5s55.833 66.5 73.5 107.5
s26.5 84.833 26.5 131.5s-8.83301 91.167 -26.5 133.5s-42.167 79.833 -73.5 112.5c-31.333 32 -68.333 57.167 -111 75.5s-87.667 27.5 -135 27.5h-277v258h148c26 0 47.333 9 64 27c8 8 14.333 17.5 19 28.5s7 22.5 7 34.5c0 24 -8.66699 44.667 -26 62
s-38.666 26 -63.999 26h-148v98c0 12 -2.5 23.833 -7.5 35.5s-11.5 21.834 -19.5 30.501c-18.667 17.333 -40.334 26 -65.001 26c-25.333 0 -46.666 -8.66699 -63.999 -26c-8.66699 -8.66699 -15.5 -18.834 -20.5 -30.501s-7.5 -23.5 -7.5 -35.5v-98h-83
c-26 0 -47.333 -8.33301 -64 -25c-18 -16.667 -27 -37.334 -27 -62.001zM378 180l0.00292969 326h264c23.333 0 45.166 -4.33301 65.499 -13s38.166 -20.667 53.499 -36s27.166 -32.833 35.499 -52.5s12.5 -40.5 12.5 -62.5c0 -42 -15.667 -79.333 -47 -112
c-15.333 -15.333 -33 -27.5 -53 -36.5s-41.667 -13.5 -65 -13.5h-266z" />
    <glyph glyph-name="uni0472" unicode="&#x472;" horiz-adv-x="1429" 
d="M44 653c0 -90.667 17 -176.333 51 -257s81.667 -151.667 143 -213c61.333 -62 132.5 -110.167 213.5 -144.5s166.833 -51.5 257.5 -51.5s176.5 17.167 257.5 51.5s152.5 82.5 214.5 144.5c61.333 61.333 109.166 132.5 143.499 213.5s51.5 166.5 51.5 256.5
c0 118 -30.333 230.333 -91 337c-28 49.333 -62.333 94.166 -103 134.499s-85.667 75.166 -135 104.499c-50 29.333 -103.333 51.833 -160 67.5s-115.334 23.5 -176.001 23.5c-90.667 0 -176.667 -17.167 -258 -51.5s-152.666 -82.166 -213.999 -143.499
s-109.166 -132.666 -143.499 -213.999s-51.5 -167.333 -51.5 -258zM229 562.001h960.001c-10 -56.667 -29.333 -109.167 -58 -157.5s-64.334 -90.5 -107.001 -126.5c-43.333 -36.667 -91.833 -64.834 -145.5 -84.501s-110.167 -29.5 -169.5 -29.5
s-115.833 9.83301 -169.5 29.5s-101.834 47.834 -144.501 84.501c-43.333 36 -79.166 78.167 -107.499 126.5s-47.833 100.833 -58.5 157.5zM230.001 746.001c10.667 55.333 30.332 107.166 58.999 155.499s64.334 90.833 107.001 127.5
c42.667 36 90.834 63.833 144.501 83.5s110.167 29.5 169.5 29.5s115.666 -9.83301 168.999 -29.5s101.333 -47.5 144 -83.5c42.667 -36.667 78.5 -79.167 107.5 -127.5s48.5 -100.166 58.5 -155.499h-959z" />
    <glyph glyph-name="uni0473" unicode="&#x473;" horiz-adv-x="1064" 
d="M44 476c0 -66 12.667 -128.831 38 -188.498s60.666 -111.834 105.999 -156.501c44.667 -44.667 96.667 -79.667 156 -105s121.666 -38 186.999 -38c66.667 0 129.834 12.5 189.501 37.5s112.167 60.167 157.5 105.5c44.667 44.667 79.5 96.667 104.5 156
s37.5 122.333 37.5 189s-12.5 129.667 -37.5 189s-59.833 111.666 -104.5 156.999c-45.333 45.333 -97.833 80.5 -157.5 105.5s-122.834 37.5 -189.501 37.5c-65.333 0 -127.666 -12.667 -186.999 -38s-111.333 -60.333 -156 -105
c-45.333 -45.333 -80.666 -97.833 -105.999 -157.5s-38 -122.5 -38 -188.5zM233 389.002h597.998c-9.33301 -32 -23.333 -61.667 -42 -89s-41 -51 -67 -71c-27.333 -20.667 -57.166 -36.5 -89.499 -47.5s-66.166 -16.5 -101.499 -16.5c-34.667 0 -68 5.5 -100 16.5
s-61.333 26.833 -88 47.5c-26 20 -48.5 43.667 -67.5 71s-33.167 57 -42.5 89zM233.998 567.002c20 64 56.999 116.333 110.999 157c55.333 41.333 117.333 62 186 62c70.667 0 133.667 -20.667 189 -62c54.667 -40.667 91.334 -93 110.001 -157h-596z" />
    <glyph glyph-name="uni0474" unicode="&#x474;" horiz-adv-x="1208" 
d="M50 1232c0 -9.33301 2.66602 -21.002 7.99902 -35.002l465 -1155c7.33301 -17.333 18 -30.666 32 -39.999s30 -14 48 -14c16.667 0 32.167 4.16699 46.5 12.5s25.5 20.166 33.5 35.499l4 8l3 7l461 1146c4.66699 9.33301 7 20.666 7 33.999c0 10.667 -2 21.334 -6 32.001
s-9.66699 20.334 -17 29.001c-18 18 -39.333 27 -64 27c-18 0 -34.167 -4.66699 -48.5 -14s-25.166 -22.666 -32.499 -39.999l-384 -956l-384 956c-7.33301 17.333 -18.5 30.5 -33.5 39.5s-31.5 13.5 -49.5 13.5c-26 0 -47.333 -9 -64 -27
c-8 -8 -14.167 -17.167 -18.5 -27.5s-6.5 -20.833 -6.5 -31.5z" />
    <glyph glyph-name="uni0475" unicode="&#x475;" horiz-adv-x="943" 
d="M49 876c0 -13.333 2.66797 -25.999 8.00098 -37.999l332 -789c6.66699 -16 17 -29 31 -39s31.667 -15 53 -15c17.333 0 32.666 4.83301 45.999 14.5s24.333 22.834 33 39.501l332 789c6 14.667 8.66699 27 8 37c0 23.333 -8.66699 43.666 -26 60.999
c-18 18 -38.667 27 -62 27c-16.667 0 -32.5 -4.83301 -47.5 -14.5s-26.167 -22.5 -33.5 -38.5l-252 -615l-254 615c-7.33301 17.333 -18 30.666 -32 39.999s-30 14 -48 14c-25.333 0 -46.333 -9 -63 -27c-16.667 -16.667 -25 -37 -25 -61z" />
    <glyph glyph-name="uni0490" unicode="&#x490;" horiz-adv-x="889" 
d="M133 90c0 -25.333 8.83203 -46.833 26.499 -64.5s39.167 -26.5 64.5 -26.5s46 8.66699 62 26s24 39 24 65v1037h461c16 0 30.667 3.66699 44 11c2 2 3.66699 3 5 3l6 5c24 17.333 36 41.333 36 72v276c0 25.333 -8.33301 46.666 -25 63.999s-37.667 26 -63 26
s-46.666 -8.66699 -63.999 -26s-26 -38.666 -26 -63.999v-184h-460c-25.333 0 -46.833 -8.83301 -64.5 -26.5s-26.5 -39.167 -26.5 -64.5v-1129z" />
    <glyph glyph-name="uni0491" unicode="&#x491;" horiz-adv-x="788" 
d="M105 90c0 -25.333 8.83301 -46.8311 26.5 -64.498s39.167 -26.5 64.5 -26.5s46 8.66699 62 26s24 39 24 65v692l370 1c12 0 23.5 2.33301 34.5 7s20.5 11 28.5 19c17.333 17.333 26 38.666 26 63.999v239c0 25.333 -8.66699 46.666 -26 63.999
c-8 8 -17.5 14.333 -28.5 19s-22.5 7 -34.5 7s-23.5 -2.33301 -34.5 -7s-20.5 -11 -28.5 -19c-18 -16.667 -27 -38 -27 -64v-148h-370c-11.333 0 -22.333 -2.5 -33 -7.5s-20 -11.5 -28 -19.5c-17.333 -18.667 -26 -39.667 -26 -63v-784z" />
    <glyph glyph-name="uni04D9" unicode="&#x4d9;" horiz-adv-x="1108" 
d="M89 490c0.666992 -63.333 13.334 -123.5 38.001 -180.5s58.667 -107.167 102 -150.5s93.833 -77 151.5 -101s118.167 -36 181.5 -36s124 12.167 182 36.5s108.667 58.166 152 101.499s77.333 93.666 102 150.999s37 118.333 37 183c0 63.333 -12.333 123.833 -37 181.5
s-58.667 108.167 -102 151.5c-43.333 42.667 -94 76.334 -152 101.001s-118.667 37 -182 37c-38 0 -74.167 -3 -108.5 -9s-64.5 -14.333 -90.5 -25c-26.667 -11.333 -47.5 -25 -62.5 -41s-22.5 -34 -22.5 -54c0 -11.333 2.16699 -22.5 6.5 -33.5s10.5 -20.5 18.5 -28.5
c18 -18 37.667 -27 59 -27c16.667 0 33.667 5.33301 51 16c23.333 13.333 46 23 68 29s49 9 81 9c67.333 0 128.333 -22 183 -66c25.333 -20.667 46.666 -45.167 63.999 -73.5s29.333 -58.5 36 -90.5h-673c-24.667 0 -44.667 -7.66699 -60 -23s-23 -34.666 -23 -57.999z
M263 428h587c-5.33301 -33.333 -16.5 -64.833 -33.5 -94.5s-38.167 -55.5 -63.5 -77.5c-56 -47.333 -120.667 -71 -194 -71c-36.667 0 -71.667 6 -105 18s-63.333 29.333 -90 52c-26.667 22 -48.667 47.833 -66 77.5s-29 61.5 -35 95.5z" />
    <glyph glyph-name="uni2000" unicode="&#x2000;" horiz-adv-x="885" 
 />
    <glyph glyph-name="uni2001" unicode="&#x2001;" horiz-adv-x="1771" 
 />
    <glyph glyph-name="uni2002" unicode="&#x2002;" horiz-adv-x="885" 
 />
    <glyph glyph-name="uni2003" unicode="&#x2003;" horiz-adv-x="1771" 
 />
    <glyph glyph-name="uni2004" unicode="&#x2004;" horiz-adv-x="590" 
 />
    <glyph glyph-name="uni2005" unicode="&#x2005;" horiz-adv-x="442" 
 />
    <glyph glyph-name="uni2006" unicode="&#x2006;" horiz-adv-x="295" 
 />
    <glyph glyph-name="uni2007" unicode="&#x2007;" horiz-adv-x="295" 
 />
    <glyph glyph-name="uni2008" unicode="&#x2008;" horiz-adv-x="221" 
 />
    <glyph glyph-name="uni2009" unicode="&#x2009;" horiz-adv-x="354" 
 />
    <glyph glyph-name="uni200A" unicode="&#x200a;" horiz-adv-x="98" 
 />
    <glyph glyph-name="uni2010" unicode="&#x2010;" horiz-adv-x="932" 
d="M68 581c0 -24 8.66602 -44.667 25.999 -62s38.666 -26 63.999 -26h597c24.667 0 46.334 8.66699 65.001 26c17.333 17.333 26 38 26 62s-8.66699 45.333 -26 64c-19.333 18 -41 27 -65 27h-597c-25.333 0 -46.666 -8.83301 -63.999 -26.5s-26 -39.167 -26 -64.5z" />
    <glyph glyph-name="uni2011" unicode="&#x2011;" horiz-adv-x="932" 
d="M68 581c0 -24 8.66602 -44.667 25.999 -62s38.666 -26 63.999 -26h597c24.667 0 46.334 8.66699 65.001 26c17.333 17.333 26 38 26 62s-8.66699 45.333 -26 64c-19.333 18 -41 27 -65 27h-597c-25.333 0 -46.666 -8.83301 -63.999 -26.5s-26 -39.167 -26 -64.5z" />
    <glyph glyph-name="figuredash" unicode="&#x2012;" horiz-adv-x="932" 
d="M68 581c0 -24 8.66602 -44.667 25.999 -62s38.666 -26 63.999 -26h597c24.667 0 46.334 8.66699 65.001 26c17.333 17.333 26 38 26 62s-8.66699 45.333 -26 64c-19.333 18 -41 27 -65 27h-597c-25.333 0 -46.666 -8.83301 -63.999 -26.5s-26 -39.167 -26 -64.5z" />
    <glyph glyph-name="endash" unicode="&#x2013;" horiz-adv-x="932" 
d="M68 585c0 -24 8.66504 -44.667 25.998 -62c16.667 -18 38 -27 64 -27h597c24.667 0 46.334 8.66699 65.001 26c8 8 14.333 17.5 19 28.5s7 22.5 7 34.5c0 24 -8.66699 45.333 -26 64c-19.333 18 -41 27 -65 27h-597c-25.333 0 -46.666 -8.83301 -63.999 -26.5
s-26 -39.167 -26 -64.5z" />
    <glyph glyph-name="emdash" unicode="&#x2014;" horiz-adv-x="1098" 
d="M70 588c0 -12 2.33301 -23.501 7 -34.501s11 -20.5 19 -28.5c17.333 -17.333 38.666 -26 63.999 -26h785c25.333 0 46.666 8.66699 63.999 26c8 8 14.333 17.5 19 28.5s7 22.5 7 34.5c0 24 -8.66699 45.333 -26 64c-17.333 17.333 -38.666 26 -63.999 26h-785
c-25.333 0 -46.666 -8.66699 -63.999 -26s-26 -38.666 -26 -63.999z" />
    <glyph glyph-name="quoteleft" unicode="&#x2018;" horiz-adv-x="512" 
d="M90 945c0 -22.667 8.00098 -42.667 24.001 -60c16.667 -18.667 37.667 -28 63 -28c16 0 30.833 3.83301 44.5 11.5s24.5 18.5 32.5 32.5l157 271c8 14 12 28.667 12 44c0 22 -8 42 -24 60c-18 18 -39.667 27 -65 27c-16 0 -30.333 -3.66699 -43 -11
s-23.334 -18.333 -32.001 -33l-157 -269c-8 -14 -12 -29 -12 -45z" />
    <glyph glyph-name="quoteright" unicode="&#x2019;" horiz-adv-x="512" 
d="M46 1225c0 -17.333 4.33594 -32.333 13.0029 -45l157 -271c8 -14 18.833 -24.833 32.5 -32.5s28.167 -11.5 43.5 -11.5c25.333 0 46.666 9.33301 63.999 28c7.33301 8 13.166 17.167 17.499 27.5s6.5 20.833 6.5 31.5c0 16 -4 31 -12 45l-158 270
c-8 14 -18.833 24.667 -32.5 32s-27.834 11 -42.501 11c-26 0 -47.333 -9 -64 -27s-25 -37.333 -25 -58z" />
    <glyph glyph-name="quotesinglbase" unicode="&#x201a;" horiz-adv-x="512" 
d="M90 -173c0 -23.333 8.00098 -42.999 24.001 -58.999c16.667 -18 37.667 -27 63 -27c16 0 30.833 3.66699 44.5 11s24.5 18 32.5 32l157 270c8 14 12 29 12 45c0 21.333 -7.66699 40.666 -23 57.999c-18.667 18.667 -40.334 28 -65.001 28
c-16 0 -30.5 -3.83301 -43.5 -11.5s-23.833 -18.5 -32.5 -32.5l-157 -269c-8 -14 -12 -29 -12 -45z" />
    <glyph glyph-name="quotedblleft" unicode="&#x201c;" horiz-adv-x="886" 
d="M90 950c0 -10 2 -20.167 6 -30.5s9.66699 -19.5 17 -27.5c17.333 -19.333 38.666 -29 63.999 -29c16 0 30.833 3.83301 44.5 11.5s24.5 18.5 32.5 32.5l156 270c8 15.333 12 30 12 44c0 21.333 -8 41 -24 59c-18.667 18.667 -40 28 -64 28
c-15.333 0 -29.666 -3.83301 -42.999 -11.5s-24 -18.5 -32 -32.5l-157 -269c-8 -14 -12 -29 -12 -45zM463 951c0 -23.333 8.33496 -43.333 25.002 -60c17.333 -18.667 38.666 -28 63.999 -28c16 0 30.333 3.66699 43 11s23.334 18.333 32.001 33l157 270
c8 14 12 28.667 12 44c0 21.333 -8 41 -24 59c-18.667 18.667 -40.334 28 -65.001 28c-16 0 -30.333 -3.66699 -43 -11s-23.334 -18.333 -32.001 -33l-157 -269c-8 -14 -12 -28.667 -12 -44z" />
    <glyph glyph-name="quotedblright" unicode="&#x201d;" horiz-adv-x="886" 
d="M90 950c0 -10 2 -20.167 6 -30.5s9.66699 -19.5 17 -27.5c17.333 -19.333 38.666 -29 63.999 -29c16 0 30.833 3.83301 44.5 11.5s24.5 18.5 32.5 32.5l156 270c8 15.333 12 30 12 44c0 21.333 -8 41 -24 59c-18.667 18.667 -40 28 -64 28
c-15.333 0 -29.666 -3.83301 -42.999 -11.5s-24 -18.5 -32 -32.5l-157 -269c-8 -14 -12 -29 -12 -45zM463 951c0 -23.333 8.33496 -43.333 25.002 -60c17.333 -18.667 38.666 -28 63.999 -28c16 0 30.333 3.66699 43 11s23.334 18.333 32.001 33l157 270
c8 14 12 28.667 12 44c0 21.333 -8 41 -24 59c-18.667 18.667 -40.334 28 -65.001 28c-16 0 -30.333 -3.66699 -43 -11s-23.334 -18.333 -32.001 -33l-157 -269c-8 -14 -12 -28.667 -12 -44z" />
    <glyph glyph-name="quotedblbase" unicode="&#x201e;" horiz-adv-x="886" 
d="M90 -173c0 -10 2.00098 -20.167 6.00098 -30.5s9.66699 -19.5 17 -27.5c17.333 -19.333 38.666 -29 63.999 -29c16 0 30.833 3.83301 44.5 11.5s24.5 18.5 32.5 32.5l156 270c8 15.333 12 30.333 12 45c0 22 -7.66699 41.667 -23 59c-18.667 18.667 -40 28 -64 28
c-16 0 -30.667 -4 -44 -12s-24 -19 -32 -33l-157 -269c-8 -14 -12 -29 -12 -45zM463.001 -172c0 -23.333 8.33398 -43.333 25.001 -60c17.333 -18.667 38.666 -28 63.999 -28c16 0 30.333 3.66699 43 11s23.334 18.333 32.001 33l157 270c8 14 12 29 12 45
c0 10 -2 20.167 -6 30.5s-9.66699 19.5 -17 27.5c-18.667 18.667 -40.334 28 -65.001 28c-16 0 -30.5 -3.83301 -43.5 -11.5s-23.833 -18.5 -32.5 -32.5l-157 -269c-8 -14 -12 -28.667 -12 -44z" />
    <glyph glyph-name="ellipsis" unicode="&#x2026;" horiz-adv-x="1045" 
d="M93 95c0 -14 2.66699 -27.5 8 -40.5s13 -24.5 23 -34.5c20 -21.333 45.333 -32 76 -32c29.333 0 54.666 10.667 75.999 32c10 9.33301 17.833 20.5 23.5 33.5s8.5 26.833 8.5 41.5s-2.83301 28.667 -8.5 42s-13.5 25 -23.5 35c-21.333 21.333 -46.666 32 -75.999 32
c-30.667 0 -56 -10.667 -76 -32c-9.33301 -10 -16.833 -21.833 -22.5 -35.5s-8.5 -27.5 -8.5 -41.5zM417 95c0 -14.667 2.83301 -28.5 8.5 -41.5s13.5 -24.167 23.5 -33.5c21.333 -21.333 46.666 -32 75.999 -32c14.667 0 28.667 2.83301 42 8.5s25 13.5 35 23.5
s17.667 21.5 23 34.5s8 26.5 8 40.5s-2.83301 27.833 -8.5 41.5s-13.167 25.5 -22.5 35.5c-10 10 -21.667 17.833 -35 23.5s-27.333 8.5 -42 8.5c-29.333 0 -54.666 -10.667 -75.999 -32c-10 -10 -17.833 -21.667 -23.5 -35s-8.5 -27.333 -8.5 -42zM742 95
c0 -14.667 2.83301 -28.5 8.5 -41.5s13.5 -24.167 23.5 -33.5c9.33301 -10 20.5 -17.833 33.5 -23.5s26.833 -8.5 41.5 -8.5s28.667 2.83301 42 8.5s25 13.5 35 23.5c10 9.33301 17.833 20.5 23.5 33.5s8.5 26.833 8.5 41.5s-2.83301 28.667 -8.5 42s-13.5 25 -23.5 35
s-21.667 17.833 -35 23.5s-27.333 8.5 -42 8.5s-28.5 -2.83301 -41.5 -8.5s-24.167 -13.5 -33.5 -23.5c-10 -10 -17.833 -21.667 -23.5 -35s-8.5 -27.333 -8.5 -42z" />
    <glyph glyph-name="uni202F" unicode="&#x202f;" horiz-adv-x="354" 
 />
    <glyph glyph-name="guilsinglleft" unicode="&#x2039;" horiz-adv-x="682" 
d="M36 483c0 -23.333 9.33203 -44.334 27.999 -63.001l393 -395c18 -18 39 -27 63 -27c22.667 0 43.667 9 63 27c18.667 17.333 28 38 28 62s-9 45 -27 63l-334 333l336 330c17.333 15.333 26 36.333 26 63c0 22.667 -9 43.667 -27 63c-18.667 17.333 -39.667 26 -63 26
c-24 0 -45 -9 -63 -27l-396 -391l-3 -3c-7.33301 -7.33301 -13.166 -16.666 -17.499 -27.999s-6.5 -22.333 -6.5 -33z" />
    <glyph glyph-name="guilsinglright" unicode="&#x203a;" horiz-adv-x="660" 
d="M43 876c0 -26.667 8.66699 -47.667 26 -63l335 -330l-333 -333c-18 -18 -27 -39 -27 -63s9.33301 -44.667 28 -62c8 -8 17.5 -14.5 28.5 -19.5s22.5 -7.5 34.5 -7.5c23.333 0 44 9 62 27l395 395c18 18 27 38.333 27 61c0 25.333 -8 46 -24 62l-3 4l-396 391
c-18 18 -39 27 -63 27c-12 0 -23.5 -2.5 -34.5 -7.5s-20.5 -11.5 -28.5 -19.5c-18 -18 -27 -38.667 -27 -62z" />
    <glyph glyph-name="uni205F" unicode="&#x205f;" horiz-adv-x="442" 
 />
    <glyph glyph-name="Euro" unicode="&#x20ac;" horiz-adv-x="1090" 
d="M33 509c0 -16 5.33203 -29.3232 15.999 -39.9902s23.667 -16 39 -16h69c6 -65.333 23.333 -126.333 52 -183s66.334 -106 113.001 -148c46.667 -42.667 100 -75.667 160 -99s123.333 -35 190 -35c72.667 0 139.667 15 201 45s111.666 71 150.999 123
c13.333 21.333 20 42.666 20 63.999c0 22.667 -9 43.667 -27 63c-8 8.66699 -17.5 15.5 -28.5 20.5s-22.5 7.5 -34.5 7.5c-30 0 -55 -13.667 -75 -41c-35.333 -36 -66.666 -61 -93.999 -75c-34.667 -17.333 -77 -26 -127 -26c-40 0 -78.333 7.16699 -115 21.5
s-69.334 34.833 -98.001 61.5c-28.667 26 -52.5 56.167 -71.5 90.5s-31.5 71.166 -37.5 110.499h322c15.333 0 28.333 5.16699 39 15.5s16 23.166 16 38.499s-5.33301 28.166 -16 38.499s-23.667 15.5 -39 15.5h-325v169h325c15.333 0 28.333 5.16699 39 15.5
s16 23.166 16 38.499s-5.33301 28.333 -16 39s-23.667 16 -39 16h-324c4 41.333 15.167 80.166 33.5 116.499s42.5 68.166 72.5 95.499s63.667 48.666 101 63.999s76.333 23 117 23c48.667 0 91 -8.66699 127 -26c29.333 -14 61 -38.667 95 -74
c9.33301 -13.333 20.5 -23.333 33.5 -30s26.833 -10 41.5 -10c12 0 23.833 2.66699 35.5 8s21.5 12.333 29.5 21c17.333 18.667 26 39.667 26 63c0 20 -7 41.333 -21 64c-40.667 51.333 -91.5 91.666 -152.5 120.999s-127.833 44 -200.5 44c-67.333 0 -131.5 -12 -192.5 -36
s-114.833 -58 -161.5 -102c-47.333 -44 -85.166 -95.333 -113.499 -154s-44.5 -121.334 -48.5 -188.001h-68c-15.333 0 -28.333 -5.16699 -39 -15.5s-16 -22.833 -16 -37.5c0 -15.333 5.33301 -28.5 16 -39.5s23.667 -16.5 39 -16.5h67v-169h-67
c-15.333 0 -28.333 -5 -39 -15s-16 -22.333 -16 -37z" />
    <glyph glyph-name="trademark" unicode="&#x2122;" horiz-adv-x="1561" 
d="M57 1218c0 25.333 9.00098 47.001 27.001 65.001s39.333 27 64 27l413 -2c25.333 0 46.666 -8.83301 63.999 -26.5s26 -39.5 26 -65.5s-8.5 -47.333 -25.5 -64s-38.5 -25 -64.5 -25h-102v-428c0 -24.667 -9 -46 -27 -64c-18.667 -17.333 -40.334 -26 -65.001 -26
c-25.333 0 -46.666 8.66699 -63.999 26c-18.667 17.333 -28 38.666 -28 63.999v428h-127c-25.333 0 -46.833 8.83301 -64.5 26.5s-26.5 39.167 -26.5 64.5zM732.001 698.001l0.00195312 518.999c0 25.333 8.83301 46.833 26.5 64.5s39.167 26.5 64.5 26.5
c14 0 27.167 -3 39.5 -9s22.5 -14.333 30.5 -25l180 -166l184 172c10.667 9.33301 21 16.333 31 21s21.667 7 35 7c26 0 47.833 -8.83301 65.5 -26.5s26.5 -39.167 26.5 -64.5v-518c0 -25.333 -9 -46.666 -27 -63.999s-39.667 -26 -65 -26s-47 8.66699 -65 26
s-27 38.666 -27 63.999v310l-84 -78c-9.33301 -9.33301 -16.666 -15.666 -21.999 -18.999c-16.667 -12 -34.334 -18 -53.001 -18s-35.334 5.33301 -50.001 16c-8.66699 6.66699 -16.334 13.667 -23.001 21l-85 79v-312c0 -25.333 -8.83301 -46.666 -26.5 -63.999
s-39.167 -26 -64.5 -26s-46.833 8.66699 -64.5 26s-26.5 38.666 -26.5 63.999z" />
    <glyph glyph-name="uni25FC" unicode="&#x25fc;" horiz-adv-x="965" 
d="M0 0v965h965v-965h-965z" />
    <glyph glyph-name="glyph1" horiz-adv-x="0" 
 />
    <glyph glyph-name="glyph2" horiz-adv-x="682" 
 />
    </font>
</defs>
</svg>
