<svg xmlns="http://www.w3.org/2000/svg" xmlns:xlink="http://www.w3.org/1999/xlink" width="18" height="29"><defs><path id="a" d="M43.942 201.616l-9.89-9.86c-.619-.802-1.052-1.542-1.052-2.528s.433-1.726 1.052-2.527l9.642-9.552c.805-1.048 2.315-1.882 3.529-1.848 2.105.06 3.715 1.786 3.715 3.881 0 .925-.496 1.85-1.052 2.527l-8.157 7.458 8.342 7.704c.62.8.929 1.54.929 2.465 0 2.157-1.672 3.87-3.839 3.882-1.272.007-2.538-.74-3.219-1.602"/></defs><g clip-path="url(#clip-03FB63E0-06CB-FBB6-3B78-A21A056F09CE)" transform="translate(-17 -175)"><use fill="#fff" xlink:href="#a"/></g></svg>