<svg xmlns="http://www.w3.org/2000/svg" xmlns:xlink="http://www.w3.org/1999/xlink" width="33" height="30"><defs><path id="a" d="M280 73.14h32.736v6.583H280z"/><path id="e" d="M309.569 73.14h-26.4c-1.743 0-3.169 1.481-3.169 3.292 0 1.81 1.426 3.29 3.169 3.29h26.4c1.741 0 3.167-1.48 3.167-3.29s-1.426-3.292-3.167-3.292"/><path id="b" d="M280 85.2h32.736v6.582H280z"/><path id="g" d="M309.569 85.2h-26.4c-1.743 0-3.169 1.481-3.169 3.292 0 1.81 1.426 3.29 3.169 3.29h26.4c1.741 0 3.167-1.48 3.167-3.29s-1.426-3.292-3.167-3.292"/><path id="c" d="M280 96.42h32.736v6.584H280z"/><path id="i" d="M309.569 96.42h-26.4c-1.743 0-3.169 1.481-3.169 3.292 0 1.81 1.426 3.292 3.169 3.292h26.4c1.741 0 3.167-1.481 3.167-3.292 0-1.81-1.426-3.292-3.167-3.292"/><clipPath id="d"><use xlink:href="#a"/></clipPath><clipPath id="f"><use xlink:href="#b"/></clipPath><clipPath id="h"><use xlink:href="#c"/></clipPath></defs><g clip-path="url(#d)" transform="translate(-280 -73)"><use fill="#ff6700" xlink:href="#e"/></g><g clip-path="url(#f)" transform="translate(-280 -73)"><use fill="#ff6700" xlink:href="#g"/></g><g clip-path="url(#h)" transform="translate(-280 -73)"><use fill="#ff6700" xlink:href="#i"/></g></svg>