<svg xmlns="http://www.w3.org/2000/svg" xmlns:xlink="http://www.w3.org/1999/xlink" width="33" height="30" viewBox="0 0 33 30"><defs><path id="cgwba" d="M280 73.14h32.736v6.583H280z"/><path id="cgwbe" d="M309.569 73.14h-26.4c-1.743 0-3.169 1.481-3.169 3.292 0 1.81 1.426 3.29 3.169 3.29h26.4c1.741 0 3.167-1.48 3.167-3.29s-1.426-3.292-3.167-3.292"/><path id="cgwbb" d="M280 85.2h32.736v6.582H280z"/><path id="cgwbg" d="M309.569 85.2h-26.4c-1.743 0-3.169 1.481-3.169 3.292 0 1.81 1.426 3.29 3.169 3.29h26.4c1.741 0 3.167-1.48 3.167-3.29s-1.426-3.292-3.167-3.292"/><path id="cgwbc" d="M280 96.42h32.736v6.584H280z"/><path id="cgwbi" d="M309.569 96.42h-26.4c-1.743 0-3.169 1.481-3.169 3.292 0 1.81 1.426 3.292 3.169 3.292h26.4c1.741 0 3.167-1.481 3.167-3.292 0-1.81-1.426-3.292-3.167-3.292"/><clipPath id="cgwbd"><use xlink:href="#cgwba"/></clipPath><clipPath id="cgwbf"><use xlink:href="#cgwbb"/></clipPath><clipPath id="cgwbh"><use xlink:href="#cgwbc"/></clipPath></defs><g><g transform="translate(-280 -73)"><g><g/><g clip-path="url(#cgwbd)"><use fill="#ff6700" xlink:href="#cgwbe"/></g></g><g><g/><g clip-path="url(#cgwbf)"><use fill="#ff6700" xlink:href="#cgwbg"/></g></g><g><g/><g clip-path="url(#cgwbh)"><use fill="#ff6700" xlink:href="#cgwbi"/></g></g></g></g></svg>