<svg xmlns="http://www.w3.org/2000/svg" xmlns:xlink="http://www.w3.org/1999/xlink" width="25" height="27" viewBox="0 0 25 27"><defs><path id="u1kka" d="M287 738.04h10.44v11.282H287z"/><path id="u1kkd" d="M287.109 747.235l-.109-8.421c-.005-.429.32-.78.716-.774l7.797.123c.624.01.933.823.49 1.302l-2.17 2.343 3.608 3.896-3.35 3.618-3.607-3.896-2.17 2.343c-.438.473-1.195.139-1.205-.534"/><path id="u1kkb" d="M301.5 738.02h10.446v11.27H301.5z"/><path id="u1kkf" d="M308.457 745.4l2.17 2.343c.443.479 1.195.145 1.206-.528l.113-8.421c.005-.429-.32-.78-.716-.774l-7.797.123c-.624.01-.933.823-.49 1.302l2.164 2.332-3.607 3.896 3.35 3.617z"/><path id="u1kkg" d="M302.95 763.567c-.445.482-.134 1.299.493 1.31l7.837.123c.399.006.725-.347.72-.778l-.114-8.469c-.01-.677-.767-1.013-1.212-.531l-2.18 2.356-3.627-3.918-3.367 3.638 3.626 3.918z"/><path id="u1kkh" d="M287.725 765l7.838-.123c.627-.011.937-.828.492-1.31l-2.181-2.35 3.626-3.919-3.367-3.638-3.626 3.918-2.18-2.356c-.446-.482-1.203-.146-1.213.531l-.114 8.47c0 .43.326.783.725.777"/><clipPath id="u1kkc"><use xlink:href="#u1kka"/></clipPath><clipPath id="u1kke"><use xlink:href="#u1kkb"/></clipPath></defs><g><g transform="translate(-287 -738)"><g><g/><g clip-path="url(#u1kkc)"><use fill="#fefefe" xlink:href="#u1kkd"/></g></g><g><g/><g clip-path="url(#u1kke)"><use fill="#fefefe" xlink:href="#u1kkf"/></g></g><g><use fill="#fefefe" xlink:href="#u1kkg"/></g><g><use fill="#fefefe" xlink:href="#u1kkh"/></g></g></g></svg>