<svg xmlns="http://www.w3.org/2000/svg" xmlns:xlink="http://www.w3.org/1999/xlink" width="41" height="27"><defs><path id="a" d="M67.146 640.311c1.425 5.636-1.906 11.38-7.443 12.83-6.189 1.623-7.73-2.165-10.753-1.373-2.813.738-2.408 4.822-8.736 6.48-5.537 1.451-11.18-1.941-12.606-7.578-1.364-5.4 1.645-10.889 6.769-12.616l-.01-.035 20.834-5.46.007.036c5.316-1.025 10.572 2.305 11.938 7.716m-26.692 8.731c.928-.242 1.486-1.205 1.246-2.15a1.732 1.732 0 0 0-2.112-1.268l-1.708.448-.44-1.739c-.238-.944-1.183-1.513-2.11-1.27-.929.243-1.489 1.205-1.249 2.15l.44 1.738-1.709.447c-.929.243-1.486 1.205-1.249 2.15a1.736 1.736 0 0 0 2.115 1.269l1.706-.448.44 1.737a1.733 1.733 0 0 0 2.114 1.27c.927-.243 1.486-1.205 1.247-2.149l-.44-1.737 1.709-.448m16.022-.281c1.113-.29 1.783-1.445 1.497-2.576a2.08 2.08 0 0 0-2.535-1.521c-1.115.292-1.785 1.444-1.499 2.575.289 1.133 1.423 1.813 2.537 1.522m3.452-5.953c1.112-.29 1.782-1.444 1.496-2.575a2.079 2.079 0 0 0-2.535-1.521c-1.112.292-1.784 1.444-1.498 2.575.288 1.132 1.422 1.813 2.537 1.521"/></defs><use fill="#fefefe" xlink:href="#a" transform="translate(-27 -632)"/></svg>