<svg xmlns="http://www.w3.org/2000/svg" xmlns:xlink="http://www.w3.org/1999/xlink" width="19" height="19" viewBox="0 0 19 19"><defs><path id="ey1ca" d="M134.612 1868.5a6.888 6.888 0 1 1 13.776 0 6.888 6.888 0 0 1-13.776 0z"/><path id="ey1cb" d="M146.326 1867.259a2.52 2.52 0 0 1-1.812 3.069c-1.508.388-1.883-.518-2.62-.329-.684.177-.586 1.154-2.127 1.55a2.52 2.52 0 1 1-1.422-4.831l-.002-.008 5.074-1.306.002.009a2.518 2.518 0 0 1 2.907 1.846m-6.498 2.088a.422.422 0 1 0-.21-.818l-.417.107-.107-.416a.423.423 0 0 0-.82.21l.108.417-.417.107a.423.423 0 1 0 .211.818l.416-.107.107.416a.423.423 0 0 0 .82-.21l-.107-.417.416-.107m3.9-.066a.507.507 0 1 0-.254-.982.507.507 0 0 0 .254.982m.842-1.424a.507.507 0 1 0-.253-.982.507.507 0 1 0 .253.982"/></defs><g><g transform="translate(-132 -1859)"><use fill="#fe8729" xlink:href="#ey1ca"/><use fill="#fff" fill-opacity="0" stroke="#fff" stroke-miterlimit="50" stroke-width="4" xlink:href="#ey1ca"/></g><g transform="translate(-132 -1859)"><use fill="#fefefe" xlink:href="#ey1cb"/></g></g></svg>