<?xml version="1.0" encoding="UTF-8" standalone="no"?>
<svg
   xmlns:dc="http://purl.org/dc/elements/1.1/"
   xmlns:cc="http://creativecommons.org/ns#"
   xmlns:rdf="http://www.w3.org/1999/02/22-rdf-syntax-ns#"
   xmlns:svg="http://www.w3.org/2000/svg"
   xmlns="http://www.w3.org/2000/svg"
   viewBox="0 0 684 186"
   height="186"
   width="684"
   xml:space="preserve"
   id="svg136"
   version="1.1"><metadata
     id="metadata142"><rdf:RDF><cc:Work
         rdf:about=""><dc:format>image/svg+xml</dc:format><dc:type
           rdf:resource="http://purl.org/dc/dcmitype/StillImage" /><dc:title></dc:title></cc:Work></rdf:RDF></metadata><defs
     id="defs140" /><g
     style="opacity:1"
     transform="matrix(1.3333333,0,0,-1.3333333,0,186)"
     id="g144"><g
       style="image-rendering:auto"
       transform="matrix(0.1,0,0,0.1,-45.090915,-103.59527)"
       id="g146"><path
         id="path148"
         style="fill:#4cc3cb;fill-opacity:1;fill-rule:nonzero;stroke:none"
         d="m 4217.88,2016.92 c 92.69,0 167.76,75.12 167.76,167.72 0,92.71 -75.07,167.78 -167.76,167.78 -92.61,0 -167.74,-75.07 -167.74,-167.78 0,-92.6 75.13,-167.72 167.74,-167.72 z m 1034.67,-257.85 c 17.03,91.94 -43.68,180.33 -135.67,197.36 -112.95,21.14 -192.6,-14.33 -284.93,-85.61 l -0.23,-0.14 c -6.5,-5.05 -23.95,-20.18 -30.16,-25.32 -21.67,68.61 -85.81,118.31 -161.44,118.31 -93.65,0 -169.43,-75.82 -169.43,-169.39 v -685.85 h 338.79 v 456.27 c 0,32.94 20.58,88.47 58.78,103.34 39.03,14.95 74.52,-2.33 117.16,-18.27 140.74,-53.63 250.15,17.33 267.13,109.3 z m -1034.67,204.6 c -93.6,0.05 -169.53,-75.72 -169.58,-198.8 v -411.85 c 0,-55.89 -32.2,-63.82 -42.8,-3.25 -30.4,173.14 -235.48,154.82 -294.01,55.37 -63.27,-107.32 -0.63,-208.86 95.34,-270.64 55.18,-35.58 143.66,-58 228.25,-58 h 9.29 c 241.9,0 342.47,133.6 342.47,340.37 l 0.43,377.41 c 0,93.52 -75.75,169.31 -169.39,169.39 z m 880.83,-529.06 c -92.59,0 -167.74,-74.97 -167.74,-167.72 0,-92.63 75.15,-167.76 167.74,-167.76 92.67,0 167.77,75.13 167.77,167.76 0,92.75 -75.1,167.72 -167.77,167.72" /><path
         id="path150"
         style="fill:#f2541b;fill-opacity:1;fill-rule:nonzero;stroke:none"
         d="m 3665.38,1198.82 -185.82,280.94 128.61,233.55 c 47.56,80.68 20.76,184.65 -59.97,232.27 -80.65,47.56 -184.69,20.75 -232.25,-60.01 l -153.63,-274.51 v 183.05 c 0,93.62 -75.96,169.61 -169.6,169.61 -93.67,0 -169.67,-75.99 -169.67,-169.61 v -685.49 h 339.27 v 268.42 l 179.04,-268.31 273.83,0.08 c 32.64,0.03 59.08,26.47 59.08,59.11 0,11.37 -3.39,21.87 -8.89,30.9 z m -1333.43,518.53 c 30.23,-0.17 56.02,-22.03 76.14,-58.84 14.59,-27.81 24.79,-61.49 29.12,-100.14 h 339.57 c -9.96,106.39 -57.52,202.89 -128.85,273.95 -80.36,80.62 -193.15,131 -315.98,130.92 -122.89,0.08 -235.64,-50.3 -315.96,-130.92 -80.64,-80.32 -131.01,-193.13 -130.9,-315.98 -0.11,-122.82 50.26,-235.6 130.9,-316.01 61.85,-61.86 169.58,-130.95 315.96,-130.91 109.98,-0.04 211.81,40.42 289.57,106.68 56.78,48.12 140.88,144.81 155.26,298.23 h -339.57 c -4.33,-38.65 -14.53,-72.4 -29.12,-100.07 -20.12,-36.9 -45.91,-58.82 -76.14,-58.87 -30.33,0.05 -56.08,21.97 -76.14,58.87 -19.69,37.31 -31.42,85.6 -31.45,142.08 0.03,56.5 11.76,104.75 31.45,142.17 20.06,36.81 45.92,58.67 76.14,58.84 z m -531.63,356.2 c 34.15,34.11 55.22,81.26 55.22,133.33 0,52.13 -21.07,99.26 -55.22,133.37 -34.12,34.14 -81.23,55.18 -133.39,55.18 -51.99,0 -99.14,-21.04 -133.28,-55.18 -34.16,-34.11 -55.22,-81.24 -55.22,-133.37 0,-52.07 21.06,-99.22 55.22,-133.33 l 41.63,-41.68 c 69.51,-69.54 74.49,-87.96 8.36,-154.03 l -37.83,-37.91 c -31.05,-31.06 -50.21,-73.92 -50.21,-121.25 v -610 h 342.88 v 610 c 0,47.33 -19.22,90.19 -50.28,121.25 l -37.86,37.88 c -66.06,66.06 -61.15,84.52 8.33,154.07 z M 988.379,1963.72 c -122.871,0.08 -235.606,-50.3 -316.024,-130.91 -80.57,-80.32 -130.96,-193.06 -130.839,-316 v -408.19 h 339.246 v 401.26 c 0.168,48.86 11.816,90.7 31.543,123.04 19.992,31.93 45.886,50.81 76.074,50.98 30.281,-0.17 56.111,-19.05 76.091,-50.98 19.77,-32.34 31.42,-74.18 31.51,-123.04 v -401.26 h 339.31 v 408.19 c 0.03,122.94 -50.34,235.68 -130.93,316 -80.34,80.61 -193.09,130.99 -315.981,130.91" /><path
         id="path152"
         style="fill:#4cc3cb;fill-opacity:1;fill-rule:nonzero;stroke:none"
         d="m 5421.61,1957.23 h 3.45 l 55.1,-61.61 54.83,61.61 h 3.5 v -115.57 h -20.61 v 71.56 l -35.75,-42.53 h -3.78 l -36.07,42.53 v -71.56 h -20.67 z m -79.75,-19.46 h -34.55 v 17.65 h 89.7 v -17.65 h -34.44 v -96.11 h -20.71 v 96.11" /></g></g></svg>