<svg xmlns="http://www.w3.org/2000/svg" xmlns:xlink="http://www.w3.org/1999/xlink" width="114" height="33"><defs><path id="b" d="M120.507 101.178c.004-2.142 1.808-3.876 4.03-3.871 2.223-.005 4.029 1.728 4.032 3.87v.001c-.003 2.143-1.808 3.877-4.031 3.875-2.223.002-4.027-1.732-4.03-3.875zm-2.92 3.67h-8.144V88.992c.003-2.167 1.825-3.919 4.07-3.916h.002c1.772 0 3.342 1.104 3.882 2.735.148-.12.567-.47.724-.586l.006-.004c2.219-1.647 4.133-2.467 6.847-1.978 2.204.388 3.665 2.427 3.262 4.554l-.001.008c-.406 2.126-3.037 3.767-6.42 2.528-1.023-.37-1.88-.769-2.817-.424-.917.344-1.412 1.628-1.412 2.39zm-10.16-7.138c0 4.779-2.418 7.863-8.231 7.863h-.223c-2.032 0-4.161-.517-5.488-1.338-2.305-1.427-3.811-3.775-2.291-6.253 1.408-2.299 6.337-2.72 7.068 1.278.255 1.401 1.027 1.218 1.027-.075l.003-9.515c0-2.844 1.824-4.594 4.074-4.593 2.244-.005 4.066 1.745 4.073 3.91v.003l-.012 8.72zm-4.056-13.864c-2.225.003-4.032-1.732-4.036-3.878.004-2.146 1.811-3.881 4.037-3.878 2.23 0 4.037 1.735 4.037 3.877v.002c-.005 2.146-1.814 3.881-4.038 3.877z"/><path id="a" d="M15 75.099h75.3v30.651H15z"/><path id="d" d="M90.3 103.475c0 .754-.638 1.366-1.421 1.366l-6.583.002-4.302-6.202v6.204h-8.155V89c.006-2.17 1.831-3.924 4.077-3.92 2.247-.004 4.073 1.75 4.078 3.92v4.232l3.692-6.347c1.148-1.868 3.644-2.488 5.583-1.387 1.93 1.091 2.58 3.488 1.45 5.353l-.01.016-3.09 5.398 4.465 6.496c.134.208.215.45.215.714m-30.43-4.77c.352-.639.597-1.42.701-2.315h8.166c-.346 3.548-2.368 5.783-3.732 6.895a10.995 10.995 0 0 1-6.964 2.466 10.96 10.96 0 0 1-7.6-3.025c-2.015-1.934-3.148-4.564-3.147-7.307 0-2.741 1.132-5.37 3.147-7.303 2.019-1.94 4.75-3.029 7.6-3.026 2.848-.002 5.581 1.086 7.599 3.026 1.766 1.698 2.863 3.938 3.097 6.333H60.57c-.104-.893-.35-1.673-.7-2.314-.483-.852-1.104-1.357-1.83-1.362-.727.005-1.35.51-1.831 1.362-.474.864-.756 1.98-.757 3.285 0 1.307.284 2.422.757 3.285.481.853 1.102 1.358 1.83 1.36.728-.002 1.348-.507 1.83-1.36M45.257 82.54l-1 .963c-1.671 1.608-1.79 2.035-.2 3.562l.91.875a3.878 3.878 0 0 1 1.206 2.802v14.102h-8.24v-14.1c0-1.095.46-2.086 1.206-2.804l.91-.875c1.59-1.529 1.47-1.954-.2-3.562l-1.002-.963a4.256 4.256 0 0 1-1.326-3.083c0-1.205.506-2.294 1.328-3.083A4.608 4.608 0 0 1 42.05 75.1c2.498-.005 4.528 1.945 4.533 4.357a4.262 4.262 0 0 1-1.328 3.083M25.74 85.08c2.846-.004 5.578 1.083 7.594 3.022 2.015 1.932 3.147 4.56 3.146 7.302v9.43h-8.155v-9.27c0-1.13-.282-2.096-.756-2.843-.482-.738-1.1-1.174-1.83-1.177-.725.002-1.348.44-1.829 1.177-.473.748-.754 1.713-.758 2.843v9.27H15v-9.429c-.001-2.742 1.132-5.37 3.146-7.302 2.018-1.94 4.749-3.027 7.596-3.025"/><clipPath id="c"><use xlink:href="#a"/></clipPath></defs><use fill="#16bccb" xlink:href="#b" transform="translate(-15 -74)"/><g clip-path="url(#c)" transform="translate(-15 -74)"><use fill="#ff6700" xlink:href="#d"/></g></svg>