<svg xmlns="http://www.w3.org/2000/svg" xmlns:xlink="http://www.w3.org/1999/xlink" width="184" height="27" viewBox="0 0 184 27"><defs><path id="xn7ob" d="M559.085 2547.8a9.103 9.103 0 0 0-6.424 2.645 9.008 9.008 0 0 0-2.66 6.39v8.251h6.897v-8.111c.003-.989.24-1.834.64-2.487.408-.645.935-1.029 1.547-1.03.617.001 1.141.385 1.547 1.03.402.653.639 1.498.641 2.487v8.111h6.897v-8.251a9 9 0 0 0-2.661-6.39 9.1 9.1 0 0 0-6.424-2.644"/><path id="xn7oc" d="M724.175 2547.8a9.096 9.096 0 0 0-6.42 2.645 9.018 9.018 0 0 0-2.66 6.39v8.251h6.894l-.002-3.609v-4.502c.003-.989.24-1.834.643-2.487.405-.645.931-1.029 1.545-1.03.614.001 1.14.385 1.546 1.03.402.653.64 1.498.642 2.487v8.111h6.892v-8.251a9.002 9.002 0 0 0-2.66-6.39 9.096 9.096 0 0 0-6.42-2.644"/><path id="xn7od" d="M575.594 2545.583a3.79 3.79 0 0 0 1.122-2.698 3.79 3.79 0 0 0-1.122-2.696 3.83 3.83 0 0 0-2.712-1.116 3.823 3.823 0 0 0-2.71 1.116 3.793 3.793 0 0 0-1.124 2.696c0 1.055.43 2.008 1.124 2.698l.846.843c1.413 1.406 1.513 1.778.169 3.115l-.769.767a3.444 3.444 0 0 0-1.02 2.45v12.338h6.97v-12.337a3.45 3.45 0 0 0-1.02-2.451l-.77-.767c-1.344-1.335-1.245-1.71.168-3.117z"/><path id="xn7oa" d="M595.453 2565.88h-18.13v-18.07h18.13v18.07z"/><path id="xn7of" d="M587.954 2559.716c-.408.746-.932 1.189-1.547 1.19-.614-.001-1.139-.444-1.546-1.19-.4-.757-.64-1.73-.641-2.873.002-1.142.24-2.117.64-2.872.408-.746.933-1.186 1.547-1.19.615.004 1.14.444 1.547 1.19.299.56.506 1.243.592 2.024h6.907a9.007 9.007 0 0 0-2.622-5.54 9.096 9.096 0 0 0-6.424-2.646 9.096 9.096 0 0 0-6.424 2.647 8.992 8.992 0 0 0-2.66 6.387 8.991 8.991 0 0 0 2.66 6.388 9.095 9.095 0 0 0 6.424 2.649 9.108 9.108 0 0 0 5.889-2.157c1.154-.974 2.862-2.93 3.157-6.03h-6.907c-.086.782-.293 1.464-.592 2.023"/><path id="xn7og" d="M621.906 2547.8a9.105 9.105 0 0 0-6.426 2.645 8.999 8.999 0 0 0 0 12.777 9.101 9.101 0 0 0 6.467 2.646c2.695 0 4.928-1.195 6.435-2.702 1.9-2.162 1.99-4.478 1.99-4.478h-6.147s-.853 2.134-2.32 2.134c-.616-.003-1.14-.445-1.546-1.19-.277-.518-.472-1.142-.57-1.848h10.705s.734-4.344-2.194-7.283c-1.704-1.71-3.87-2.703-6.394-2.701zm-2.002 7.427c.124-.529.292-.995.456-1.342.307-.657.933-1.191 1.55-1.195.622.004 1.129.44 1.562 1.22.187.335.356.918.436 1.304z"/><path id="xn7oh" d="M686.465 2547.8a9.1 9.1 0 0 0-6.424 2.645 9.003 9.003 0 0 0 0 12.777 9.096 9.096 0 0 0 6.463 2.646c2.7 0 4.933-1.195 6.44-2.702 1.898-2.162 1.989-4.478 1.989-4.478h-6.149s-.85 2.134-2.319 2.134c-.616-.003-1.14-.445-1.547-1.19-.276-.518-.47-1.142-.569-1.848h10.705s.733-4.344-2.195-7.283c-1.7-1.71-3.866-2.703-6.394-2.701zm-2.001 7.427c.124-.529.293-.995.454-1.342.309-.657.931-1.191 1.547-1.195.62.004 1.126.44 1.562 1.22.182.335.352.918.432 1.304z"/><path id="xn7oi" d="M634.926 2539.04a3.44 3.44 0 0 0-3.448 3.433l.009 22.613 6.896-.002-.008-22.617a3.441 3.441 0 0 0-3.45-3.427"/><path id="xn7oj" d="M648.426 2547.8c-5.017 0-9.086 4.044-9.086 9.034 0 4.986 4.07 9.034 9.086 9.034s9.086-4.048 9.086-9.034c0-4.99-4.07-9.034-9.086-9.034m-.006 13.093c-1.206 0-2.183-1.819-2.183-4.064 0-2.243.977-4.063 2.183-4.063s2.185 1.82 2.185 4.063c0 2.245-.98 4.064-2.185 4.064"/><path id="xn7ok" d="M705.157 2547.8c-5.02 0-9.087 4.044-9.087 9.034 0 4.986 4.067 9.034 9.087 9.034 5.016 0 9.085-4.048 9.085-9.034 0-4.99-4.07-9.034-9.085-9.034m-.005 13.093c-1.208 0-2.185-1.819-2.185-4.064 0-2.243.977-4.063 2.185-4.063 1.204 0 2.18 1.82 2.18 4.063 0 2.245-.976 4.064-2.18 4.064"/><path id="xn7ol" d="M676.509 2556.837l.012.007-.008-14.377c0-1.893-1.548-3.429-3.451-3.427a3.44 3.44 0 0 0-3.447 3.433l.002 5.605a9.155 9.155 0 0 0-2.193-.267 9.088 9.088 0 0 0-6.424 2.646 8.992 8.992 0 0 0-2.66 6.387 8.994 8.994 0 0 0 2.66 6.388c1.045 1.045 3.29 2.649 6.424 2.649 3.134 0 5.377-1.604 6.423-2.649a9.005 9.005 0 0 0 2.662-6.388zm-9.09 4.057c-1.206 0-2.183-1.819-2.183-4.064 0-2.243.977-4.063 2.183-4.063 1.205 0 2.182 1.82 2.182 4.063 0 2.245-.976 4.064-2.182 4.064z"/><path id="xn7om" d="M613.812 2563.897c0-.23-.067-.443-.182-.624l-3.774-5.683 2.613-4.725a3.423 3.423 0 0 0-1.22-4.698 3.455 3.455 0 0 0-4.717 1.214l-3.123 5.554v-3.703a3.44 3.44 0 0 0-3.448-3.431 3.439 3.439 0 0 0-3.445 3.431v13.864h6.893v-5.429l3.637 5.43 5.564-.003v-.002c.663 0 1.202-.535 1.202-1.195"/><clipPath id="xn7oe"><use xlink:href="#xn7oa"/></clipPath></defs><g><g transform="translate(-550 -2539)"><g><use fill="#ff6700" xlink:href="#xn7ob"/></g><g><use fill="#ff6700" xlink:href="#xn7oc"/></g><g><use fill="#ff6700" xlink:href="#xn7od"/></g><g><g/><g clip-path="url(#xn7oe)"><use fill="#ff6700" xlink:href="#xn7of"/></g></g><g><use fill="#ff6700" xlink:href="#xn7og"/></g><g><use fill="#ff6700" xlink:href="#xn7oh"/></g><g><use fill="#ff6700" xlink:href="#xn7oi"/></g><g><use fill="#ff6700" xlink:href="#xn7oj"/></g><g><use fill="#ff6700" xlink:href="#xn7ok"/></g><g><use fill="#ff6700" xlink:href="#xn7ol"/></g><g><use fill="#ff6700" xlink:href="#xn7om"/></g></g></g></svg>