<svg xmlns="http://www.w3.org/2000/svg" xmlns:xlink="http://www.w3.org/1999/xlink" width="100" height="27"><defs><path id="b" d="M882.72 2561.886c.003-1.881 1.586-3.405 3.536-3.4 1.95-.005 3.536 1.518 3.539 3.4-.003 1.883-1.587 3.407-3.538 3.405-1.95.002-3.534-1.522-3.537-3.405zm-2.567 3.225h-7.156v-13.932c.003-1.904 1.604-3.444 3.576-3.441h.002c1.558-.001 2.937.97 3.412 2.403.13-.105.498-.412.636-.515l.005-.003c1.95-1.448 3.632-2.168 6.017-1.738 1.937.34 3.22 2.133 2.867 4.002l-.001.007c-.357 1.868-2.67 3.31-5.641 2.221-.9-.325-1.652-.676-2.476-.373-.806.303-1.241 1.431-1.241 2.1zm-8.928-6.266c0 4.201-2.125 6.913-7.233 6.913h-.196c-1.786 0-3.657-.454-4.823-1.177-2.025-1.254-3.35-3.318-2.013-5.497 1.237-2.021 5.569-2.392 6.21 1.124.225 1.232.904 1.07.904-.066l.002-8.366c0-2.501 1.603-4.039 3.58-4.038 1.973-.005 3.574 1.534 3.58 3.438v.002l-.011 7.666zm-3.568-12.19c-1.953.003-3.54-1.521-3.543-3.407.004-1.886 1.59-3.41 3.543-3.408 1.957 0 3.544 1.525 3.544 3.407v.002c-.005 1.886-1.592 3.41-3.544 3.407z"/><path id="a" d="M790 2538.968h66.172v26.926H790z"/><path id="d" d="M856.172 2563.906c0 .662-.56 1.2-1.248 1.2l-5.785.002-3.781-5.452v5.454h-7.166v-13.928c.005-1.906 1.609-3.448 3.583-3.445 1.974-.003 3.579 1.539 3.583 3.445v3.72l3.245-5.579c1.009-1.641 3.202-2.186 4.906-1.218 1.697.959 2.268 3.066 1.275 4.705l-.009.014-2.716 4.745 3.924 5.709c.118.183.189.396.189.628m-26.752-4.193c.308-.562.524-1.249.615-2.035h7.169c-.304 3.119-2.079 5.083-3.276 6.06a9.645 9.645 0 0 1-6.114 2.168 9.615 9.615 0 0 1-6.672-2.66c-1.77-1.7-2.764-4.011-2.763-6.421-.001-2.41.993-4.72 2.763-6.42a9.608 9.608 0 0 1 6.671-2.659c2.5-.002 4.9.954 6.671 2.66a8.933 8.933 0 0 1 2.72 5.566h-7.17c-.09-.785-.306-1.47-.614-2.034-.424-.75-.97-1.192-1.607-1.197-.638.005-1.184.448-1.607 1.197-.416.76-.664 1.74-.665 2.888.001 1.148.25 2.128.665 2.887.423.75.967 1.194 1.607 1.196.639-.002 1.183-.447 1.607-1.196m-12.831-14.204l-.88.845c-1.468 1.414-1.572 1.789-.175 3.13l.8.77a3.408 3.408 0 0 1 1.06 2.462v12.393h-7.242v-12.392a3.41 3.41 0 0 1 1.06-2.463l.8-.77c1.397-1.342 1.292-1.716-.176-3.13l-.88-.845a3.74 3.74 0 0 1-1.166-2.71 3.74 3.74 0 0 1 1.167-2.709 4.05 4.05 0 0 1 2.815-1.12c2.195-.005 3.979 1.709 3.984 3.83a3.745 3.745 0 0 1-1.167 2.709m-17.15 2.228c2.501-.003 4.902.953 6.674 2.657 1.77 1.7 2.765 4.01 2.764 6.422v8.294h-7.166v-8.153c-.001-.994-.248-1.843-.665-2.5-.423-.649-.967-1.032-1.607-1.035-.638.002-1.185.386-1.608 1.035-.416.658-.663 1.506-.666 2.5v8.153H790v-8.293c-.001-2.411.995-4.722 2.765-6.422 1.773-1.705 4.173-2.661 6.675-2.66"/><clipPath id="c"><use xlink:href="#a"/></clipPath></defs><use fill="#16bccb" xlink:href="#b" transform="translate(-790 -2539)"/><g clip-path="url(#c)" transform="translate(-790 -2539)"><use fill="#ff6700" xlink:href="#d"/></g></svg>