<svg xmlns="http://www.w3.org/2000/svg" xmlns:xlink="http://www.w3.org/1999/xlink" width="190" height="27" viewBox="0 0 190 27"><defs><path id="lk2tb" d="M398 3067.849v.458h.9v2.493h.533v-2.493h.894v-.458zm5.914-.049l-1.425 1.601-1.434-1.601h-.088v3h.537v-1.86l.935 1.105h.1l.928-1.104v1.859H404v-3z"/><path id="lk2tc" d="M223.085 3053.8a9.103 9.103 0 0 0-6.424 2.645 9.008 9.008 0 0 0-2.661 6.389v8.252h6.898v-8.112c.003-.989.24-1.833.64-2.487.408-.645.935-1.028 1.547-1.03.616.002 1.14.385 1.547 1.03.402.654.639 1.498.64 2.487v8.112h6.898v-8.252a9 9 0 0 0-2.661-6.39 9.1 9.1 0 0 0-6.424-2.644"/><path id="lk2td" d="M388.185 3053.8a9.104 9.104 0 0 0-6.424 2.645 9.016 9.016 0 0 0-2.661 6.389v8.252h6.898l-.003-3.61v-4.502c.004-.989.24-1.833.643-2.487.406-.645.932-1.028 1.547-1.03.614.002 1.141.385 1.547 1.03.402.654.64 1.498.642 2.487v8.112h6.896v-8.252a9 9 0 0 0-2.661-6.39 9.104 9.104 0 0 0-6.424-2.644"/><path id="lk2te" d="M239.596 3051.577a3.788 3.788 0 0 0 1.122-2.696 3.788 3.788 0 0 0-1.122-2.695 3.83 3.83 0 0 0-2.712-1.116 3.824 3.824 0 0 0-3.834 3.81 3.79 3.79 0 0 0 1.124 2.697l.845.843c1.414 1.405 1.513 1.778.17 3.114l-.77.766a3.442 3.442 0 0 0-1.02 2.45v12.333h6.971v-12.333c0-.957-.39-1.822-1.02-2.45l-.77-.766c-1.345-1.334-1.245-1.709.168-3.116z"/><path id="lk2ta" d="M259.45 3071.88h-18.13v-18.07h18.13v18.07z"/><path id="lk2tg" d="M251.952 3065.717c-.408.746-.933 1.188-1.547 1.19-.615-.002-1.139-.444-1.547-1.19-.4-.757-.639-1.73-.64-2.873.001-1.142.24-2.117.64-2.872.408-.746.932-1.187 1.547-1.19.614.003 1.139.444 1.547 1.19.298.56.505 1.242.592 2.023h6.907a9.007 9.007 0 0 0-2.622-5.539 9.096 9.096 0 0 0-6.424-2.646 9.096 9.096 0 0 0-6.424 2.646 8.992 8.992 0 0 0-2.661 6.388 8.991 8.991 0 0 0 2.661 6.387 9.095 9.095 0 0 0 6.424 2.65 9.108 9.108 0 0 0 5.889-2.157c1.153-.974 2.861-2.931 3.157-6.031h-6.907c-.087.783-.294 1.465-.592 2.024"/><path id="lk2th" d="M285.906 3053.8a9.105 9.105 0 0 0-6.426 2.645 8.999 8.999 0 0 0 0 12.777 9.101 9.101 0 0 0 6.467 2.646c2.695 0 4.928-1.195 6.435-2.702 1.9-2.162 1.99-4.478 1.99-4.478h-6.147s-.853 2.134-2.32 2.134c-.616-.003-1.14-.445-1.546-1.19-.277-.518-.472-1.142-.57-1.848h10.705s.734-4.344-2.194-7.283c-1.704-1.71-3.87-2.703-6.394-2.701zm-2.002 7.427c.124-.529.292-.995.456-1.342.307-.657.933-1.191 1.55-1.195.622.004 1.129.44 1.562 1.22.187.335.356.918.436 1.304z"/><path id="lk2ti" d="M350.465 3053.8a9.1 9.1 0 0 0-6.424 2.645 9.003 9.003 0 0 0 0 12.777 9.096 9.096 0 0 0 6.463 2.646c2.7 0 4.933-1.195 6.44-2.702 1.898-2.162 1.989-4.478 1.989-4.478h-6.149s-.85 2.134-2.319 2.134c-.616-.003-1.14-.445-1.547-1.19-.276-.518-.47-1.142-.569-1.848h10.705s.733-4.344-2.195-7.283c-1.7-1.71-3.866-2.703-6.394-2.701zm-2.001 7.427c.124-.529.293-.995.454-1.342.309-.657.931-1.191 1.547-1.195.62.004 1.126.44 1.562 1.22.182.335.352.918.432 1.304z"/><path id="lk2tj" d="M298.928 3045.04a3.44 3.44 0 0 0-3.448 3.433l.009 22.614 6.896-.003-.008-22.617a3.441 3.441 0 0 0-3.45-3.427"/><path id="lk2tk" d="M312.426 3053.8c-5.017 0-9.086 4.044-9.086 9.034 0 4.986 4.07 9.034 9.086 9.034s9.086-4.048 9.086-9.034c0-4.99-4.07-9.034-9.086-9.034m-.006 13.093c-1.206 0-2.183-1.819-2.183-4.064 0-2.243.977-4.063 2.183-4.063s2.185 1.82 2.185 4.063c0 2.245-.98 4.064-2.185 4.064"/><path id="lk2tl" d="M369.157 3053.8c-5.02 0-9.087 4.044-9.087 9.034 0 4.986 4.067 9.034 9.087 9.034 5.016 0 9.085-4.048 9.085-9.034 0-4.99-4.07-9.034-9.085-9.034m-.005 13.093c-1.208 0-2.185-1.819-2.185-4.064 0-2.243.977-4.063 2.185-4.063 1.204 0 2.18 1.82 2.18 4.063 0 2.245-.976 4.064-2.18 4.064"/><path id="lk2tm" d="M340.509 3062.837l.012.007-.008-14.377c0-1.893-1.548-3.429-3.451-3.427a3.44 3.44 0 0 0-3.447 3.433l.002 5.605a9.155 9.155 0 0 0-2.193-.267 9.088 9.088 0 0 0-6.424 2.646 8.992 8.992 0 0 0-2.66 6.387 8.994 8.994 0 0 0 2.66 6.388c1.045 1.045 3.29 2.649 6.424 2.649 3.134 0 5.377-1.604 6.423-2.649a9.005 9.005 0 0 0 2.662-6.388zm-9.09 4.057c-1.206 0-2.183-1.819-2.183-4.064 0-2.243.977-4.063 2.183-4.063 1.205 0 2.182 1.82 2.182 4.063 0 2.245-.977 4.064-2.182 4.064z"/><path id="lk2tn" d="M277.826 3069.886c0-.23-.067-.443-.182-.625l-3.776-5.679 2.614-4.722a3.42 3.42 0 0 0-1.22-4.695 3.46 3.46 0 0 0-4.72 1.213l-3.124 5.55v-3.7c0-1.895-1.545-3.43-3.45-3.43a3.439 3.439 0 0 0-3.448 3.43v13.856h6.898v-5.426l3.638 5.426 5.567-.002v-.002c.664 0 1.203-.534 1.203-1.194"/><clipPath id="lk2tf"><use xlink:href="#lk2ta"/></clipPath></defs><g><g transform="translate(-214 -3045)"><g><use fill="#ff6700" xlink:href="#lk2tb"/></g><g><g><use fill="#ff6700" xlink:href="#lk2tc"/></g><g><use fill="#ff6700" xlink:href="#lk2td"/></g><g><use fill="#ff6700" xlink:href="#lk2te"/></g><g><g/><g clip-path="url(#lk2tf)"><use fill="#ff6700" xlink:href="#lk2tg"/></g></g><g><use fill="#ff6700" xlink:href="#lk2th"/></g><g><use fill="#ff6700" xlink:href="#lk2ti"/></g><g><use fill="#ff6700" xlink:href="#lk2tj"/></g><g><use fill="#ff6700" xlink:href="#lk2tk"/></g><g><use fill="#ff6700" xlink:href="#lk2tl"/></g><g><use fill="#ff6700" xlink:href="#lk2tm"/></g><g><use fill="#ff6700" xlink:href="#lk2tn"/></g></g></g></g></svg>