<svg xmlns="http://www.w3.org/2000/svg" xmlns:xlink="http://www.w3.org/1999/xlink" width="19" height="21" viewBox="0 0 19 21"><defs><path id="3nqoa" d="M31.02 743.32c1.575 0 2.856 1.364 2.856 3.04v9.556c0 1.529-1.066 2.798-2.448 3.01v3.94c0 .175-.1.334-.252.401a.395.395 0 0 1-.444-.094l-3.96-4.216h-8.806c-1.575 0-2.856-1.364-2.856-3.04v-9.557c0-1.676 1.281-3.04 2.856-3.04zm-6.527 13.03c.675 0 1.224-.584 1.224-1.303 0-.718-.55-1.303-1.224-1.303-.675 0-1.224.585-1.224 1.303 0 .719.55 1.303 1.224 1.303zm1.628-9.027a1.36 1.36 0 0 0-.324-.98 1.195 1.195 0 0 0-.896-.417h-.816c-.339 0-.665.151-.897.416-.23.263-.347.621-.323.986l.344 4.28c.047.71.608 1.268 1.284 1.268.668 0 1.23-.557 1.277-1.26z"/></defs><g><g clip-path="url(#clip-77C9E7AF-2018-4EC1-8C68-BE5F40292EB4)" transform="translate(-15 -743)"><use fill="#3abdcb" xlink:href="#3nqoa"/></g></g></svg>