<svg xmlns="http://www.w3.org/2000/svg" width="35" height="40" viewBox="0 0 35 40"><defs><clipPath id="l63ma"><path d="M.03 0H34.9v40H.03z"/></clipPath></defs><g><g><g><g><path fill="#231f20" d="M16.266 17.782c0 .687-.51 1.242-1.138 1.242-.629 0-1.138-.555-1.138-1.242 0-.686.51-1.242 1.138-1.242.628 0 1.138.556 1.138 1.242"/></g><g><path fill="#231f20" d="M25.376 17.782c0 .687-.51 1.242-1.138 1.242-.629 0-1.138-.555-1.138-1.242 0-.686.51-1.242 1.138-1.242.628 0 1.138.556 1.138 1.242"/></g></g><g><g><path fill="#231f20" d="M22.111 18.83c-.642 0-1.162.524-1.162 1.172 0 .646-.521 1.172-1.162 1.172-.641 0-1.162-.526-1.162-1.172 0-.648-.52-1.172-1.163-1.172-.642 0-1.162.524-1.162 1.172 0 1.938 1.564 3.516 3.487 3.516 1.922 0 3.487-1.578 3.487-3.516 0-.648-.52-1.172-1.163-1.172"/></g><g><g/><g clip-path="url(#l63ma)"><path fill="#231f20" d="M1.192 28.203c-.47 0-.893-.285-1.074-.723a1.18 1.18 0 0 1 .252-1.278c2.367-2.385.539-5.296.442-5.99-.75-2.27-.225-4.66 1.403-6.399 1.293-1.38 3.033-2.081 4.84-2C7.633 5.203 13.123 0 19.79 0c6.87 0 12.489 5.523 12.773 12.42a4.697 4.697 0 0 1 2.337 4.064c0 2.585-2.086 4.688-4.65 4.688h-.6a10.553 10.553 0 0 1-5.818 6.221l.17.888h.437c5.774 0 10.461 4.739 10.461 10.547 0 .648-.52 1.172-1.162 1.172H5.842a1.167 1.167 0 0 1-1.163-1.172c0-5.852 4.731-10.547 10.461-10.547h.437l.175-.91c-1.897-.83-3.491-2.23-4.626-3.99a8.417 8.417 0 0 1-7.615 4.822zm8.144 4.89a8.224 8.224 0 0 0-2.251 4.573h2.25zm20.905 4.573h2.251a8.224 8.224 0 0 0-2.25-4.573zm-4.69-3.15c-.159.48-.603.803-1.104.803H15.14c-.5 0-.945-.323-1.104-.802l-1.177-3.564a8.03 8.03 0 0 0-1.21.465v6.248h16.288v-6.248a8.028 8.028 0 0 0-1.209-.465zm-2.497-3.891a1.166 1.166 0 0 1-1.143-.948l-.314-1.626a10.619 10.619 0 0 1-3.606-.003l-.315 1.629c-.106.55-.585.948-1.143.948h-1.334l.776 2.344h7.637l.777-2.344zm4.883-16.484h-.614a9.557 9.557 0 0 1-7.53-3.683 9.557 9.557 0 0 1-7.53 3.683h-.613v3.112c0 4.409 3.224 8.172 7.34 8.568 4.935.473 8.947-3.441 8.947-8.165zm2.305 3.515c0 .393-.023.785-.066 1.172h.066a2.341 2.341 0 0 0 2.333-2.344 2.341 2.341 0 0 0-2.333-2.343zM19.794 2.344c-5.382 0-9.828 4.149-10.404 9.464h2.876c2.765 0 5.25-1.55 6.487-4.045.197-.398.6-.649 1.04-.649.441 0 .844.251 1.04.649 1.238 2.494 3.723 4.045 6.488 4.045h2.877c-.577-5.315-5.023-9.464-10.404-9.464zM9.345 14.14a2.346 2.346 0 0 0-2.343 2.343 2.346 2.346 0 0 0 2.343 2.344h.11c-.073-.519-.11-1.045-.11-1.575zm-5.44 1.282a3.998 3.998 0 0 0-.889 4.047c.192.95 1.696 3.326.358 6.39h.137c2.876 0 5.29-1.98 5.948-4.688h-.123c-2.567 0-4.655-2.103-4.655-4.688 0-.693.15-1.352.42-1.944a4.058 4.058 0 0 0-1.196.883z"/></g></g></g></g></g></svg>