<svg xmlns="http://www.w3.org/2000/svg" width="40" height="40" viewBox="0 0 40 40"><g><g><g><path fill="#231f20" d="M38.828 18.906c.648 0 1.172.525 1.172 1.172v18.75c0 .648-.524 1.172-1.172 1.172H1.172A1.172 1.172 0 0 1 0 38.828v-18.75c0-.647.524-1.172 1.172-1.172h8.281V1.172C9.453.524 9.978 0 10.625 0h18.75c.647 0 1.172.524 1.172 1.172v17.734zM2.344 37.656h16.494V21.25H2.344zm9.453-18.74h16.396V2.344H11.797zm9.375 18.74h16.494V21.25H21.172z"/></g><g><path fill="#231f20" d="M21.051 5.345l4.687 9.53a1.172 1.172 0 1 1-2.103 1.035l-.869-1.767h-5.533l-.87 1.767a1.172 1.172 0 0 1-2.102-1.034c1.09-2.217 3.54-7.201 4.687-9.531a1.172 1.172 0 0 1 2.103 0zm.553 6.458l-1.61-3.289-1.609 3.29z"/></g><g><path fill="#231f20" d="M7.112 35.309a1.172 1.172 0 0 1-1.172-1.172v-9.375c0-.648.524-1.172 1.172-1.172h4.687a3.52 3.52 0 0 1 3.516 3.516c0 .9-.34 1.72-.897 2.343.557.623.897 1.444.897 2.344a3.52 3.52 0 0 1-3.516 3.516zm1.172-7.021h3.515c.647 0 1.172-.528 1.172-1.177 0-.65-.525-1.177-1.172-1.177H8.284zm0 4.687h3.515c.647 0 1.172-.528 1.172-1.177s-.525-1.177-1.172-1.177H8.284z"/></g><g><path fill="#231f20" d="M28.206 35.309h2.343a3.52 3.52 0 0 0 3.516-3.516 1.172 1.172 0 1 0-2.344 0c0 .646-.525 1.172-1.172 1.172h-2.343a1.173 1.173 0 0 1-1.172-1.172v-4.687c0-.647.525-1.172 1.172-1.172h2.343c.647 0 1.172.525 1.172 1.172a1.172 1.172 0 1 0 2.344 0 3.52 3.52 0 0 0-3.516-3.516h-2.343a3.52 3.52 0 0 0-3.516 3.516v4.687a3.52 3.52 0 0 0 3.516 3.516"/></g></g></g></svg>