<svg xmlns="http://www.w3.org/2000/svg" width="46" height="40" viewBox="0 0 46 40"><g><g><path fill="#231f20" d="M1.334 34.667A1.333 1.333 0 0 1 0 33.333v-6.982c0-9.32 8.107-15.068 16.097-15.636V7.771A4.006 4.006 0 0 1 10.761 4c0-2.207 1.796-4.001 4.002-4.001 1.024 0 1.96.387 2.668 1.022A3.988 3.988 0 0 1 20.1 0a4.006 4.006 0 0 1 4.002 4 4.006 4.006 0 0 1-5.336 3.77v2.944a18.678 18.678 0 0 1 15.54 10.62h3.137c4.442 0 8.093 3.595 8.093 8v4c0 .736-.597 1.333-1.334 1.333h-4.225A6.68 6.68 0 0 1 33.44 40a6.68 6.68 0 0 1-6.536-5.333H18.63A6.68 6.68 0 0 1 12.096 40a6.68 6.68 0 0 1-6.537-5.333zm18.76-32a1.33 1.33 0 0 0-1.329 1.328 1.33 1.33 0 0 0 2.658 0 1.33 1.33 0 0 0-1.329-1.328zm-7.993 34.666a4.008 4.008 0 0 0 4.006-3.997v-.005a4.008 4.008 0 0 0-8.013.002c0 2.206 1.797 4 4.007 4zm25.34-4.003a4.005 4.005 0 0 0-4.001-3.997 4.005 4.005 0 0 0-4.002 4c0 2.206 1.795 4 4.002 4 2.205 0 4-1.792 4.002-3.996zm-13.34-14.663v2.656h7.205a15.926 15.926 0 0 0-1.928-2.656zM14.763 5.323c.736 0 1.334-.596 1.334-1.328 0-.732-.598-1.328-1.334-1.328-.735 0-1.334.596-1.334 1.328 0 .732.599 1.328 1.334 1.328zM2.668 32h2.891a6.68 6.68 0 0 1 6.537-5.333A6.68 6.68 0 0 1 18.63 32h8.273a6.68 6.68 0 0 1 6.536-5.333A6.68 6.68 0 0 1 39.976 32h2.89v-2.667c0-2.94-2.433-5.333-5.424-5.333H12.095a1.333 1.333 0 0 1-1.334-1.333c0-3.676 2.992-6.667 6.67-6.667h8.864a15.99 15.99 0 0 0-8.864-2.667c-6.308 0-13.278 3.923-14.546 10.667h3.874a1.333 1.333 0 1 1 0 2.667H2.668zm14.758-13.333a4.003 4.003 0 0 0-3.768 2.656h7.765v-2.656z"/></g></g></svg>