<svg xmlns="http://www.w3.org/2000/svg" width="31" height="40" viewBox="0 0 31 40"><g><g><g><path fill="#231f20" d="M10.987 28.281l.175-.897a10.603 10.603 0 0 1-5.872-6.212h-.602A4.693 4.693 0 0 1 0 16.484a4.69 4.69 0 0 1 2.356-4.064C2.643 5.523 8.309 0 15.234 0s12.592 5.523 12.879 12.42a4.69 4.69 0 0 1 2.356 4.064 4.693 4.693 0 0 1-4.688 4.688h-.602a10.603 10.603 0 0 1-5.872 6.212l.175.897h.44c5.815 0 10.547 4.732 10.547 10.547 0 .648-.525 1.172-1.172 1.172H1.172A1.172 1.172 0 0 1 0 38.828c0-5.815 4.731-10.547 10.547-10.547zm11.755 2.844c-1.29 2.517-4.212 4.194-7.508 4.194-3.296 0-6.217-1.677-7.507-4.194a8.238 8.238 0 0 0-5.3 6.541h25.615a8.238 8.238 0 0 0-5.3-6.541zm3.039-13.469c0 .397-.022.787-.064 1.172h.064a2.342 2.342 0 0 0 2.334-2.344 2.342 2.342 0 0 0-2.334-2.343zM4.752 18.828a10.618 10.618 0 0 1-.065-1.172v-3.515a2.346 2.346 0 0 0-2.343 2.343 2.346 2.346 0 0 0 2.343 2.344zm7.585-7.021c2.786 0 5.29-1.55 6.537-4.044a1.171 1.171 0 0 1 2.22.525 3.516 3.516 0 0 0 3.515 3.52h1.108c-.581-5.315-5.06-9.464-10.483-9.464-5.422 0-9.901 4.148-10.482 9.463zm-5.306 5.85c0 4.522 3.68 8.202 8.203 8.202 4.524 0 8.204-3.68 8.204-8.203v-3.632a5.873 5.873 0 0 1-4.005-2.992 9.651 9.651 0 0 1-7.096 3.109H7.031zm3.516 12.968c-.128 0-.256.003-.382.009 1.026 1.42 2.93 2.335 5.07 2.335 2.138 0 4.043-.915 5.069-2.335-.127-.006-1.788-.009-1.788-.009a1.172 1.172 0 0 1-1.15-.948l-.318-1.632a10.567 10.567 0 0 1-3.627 0l-.318 1.632c-.107.55-.589.948-1.15.948z"/></g><g><path fill="#231f20" d="M11.724 17.652a1.172 1.172 0 1 1-2.343 0 1.172 1.172 0 0 1 2.343 0"/></g><g><path fill="#231f20" d="M21.094 17.652a1.172 1.172 0 1 1-2.343 0 1.172 1.172 0 0 1 2.343 0"/></g><g><path fill="#231f20" d="M18.751 20.002a1.172 1.172 0 1 0-2.344 0c0 .646-.525 1.172-1.171 1.172a1.173 1.173 0 0 1-1.172-1.172 1.172 1.172 0 1 0-2.344 0 3.52 3.52 0 0 0 3.516 3.516 3.52 3.52 0 0 0 3.515-3.516"/></g></g></g></svg>