<svg xmlns="http://www.w3.org/2000/svg" xmlns:xlink="http://www.w3.org/1999/xlink" width="47" height="47"><defs><path id="a" d="M1020.837 1049.5c0-11.412 9.251-20.663 20.663-20.663s20.663 9.251 20.663 20.663-9.251 20.663-20.663 20.663-20.663-9.251-20.663-20.663z"/><path id="b" d="M1055.979 1045.776a7.561 7.561 0 0 1-5.438 9.208c-4.522 1.164-5.647-1.554-7.856-.986-2.056.53-1.76 3.461-6.383 4.651a7.564 7.564 0 0 1-9.21-5.439c-.997-3.875 1.202-7.815 4.945-9.054l-.007-.025 15.221-3.918.006.025c3.884-.735 7.724 1.654 8.722 5.538m-19.494 6.266a1.269 1.269 0 0 0-.633-2.455l-1.25.321-.321-1.248a1.268 1.268 0 0 0-1.544-.912 1.266 1.266 0 0 0-.914 1.543l.322 1.249-1.25.32a1.268 1.268 0 1 0 .633 2.456l1.248-.322.322 1.248a1.27 1.27 0 0 0 2.459-.632l-.322-1.247 1.25-.321m11.698-.2a1.521 1.521 0 1 0-.76-2.946 1.521 1.521 0 0 0 .76 2.946m2.528-4.27a1.52 1.52 0 1 0-.761-2.946 1.522 1.522 0 0 0-1.098 1.852 1.527 1.527 0 0 0 1.859 1.094"/></defs><g transform="translate(-1018 -1026)"><use fill="#fe8729" xlink:href="#a"/><use fill="#fff" fill-opacity="0" stroke="#fff" stroke-miterlimit="50" stroke-width="4" xlink:href="#a"/></g><use fill="#fefefe" xlink:href="#b" transform="translate(-1018 -1026)"/></svg>