<svg xmlns="http://www.w3.org/2000/svg" xmlns:xlink="http://www.w3.org/1999/xlink" width="47" height="47" viewBox="0 0 47 47"><defs><path id="db81a" d="M672.837 1376.5c0-11.412 9.251-20.663 20.663-20.663s20.663 9.251 20.663 20.663-9.251 20.663-20.663 20.663-20.663-9.251-20.663-20.663z"/><path id="db81b" d="M703.496 1374.086l-13.351-8.621a2.697 2.697 0 0 0-2.966 0c-.92.592-1.485 1.688-1.485 2.873v17.242c0 1.185.565 2.28 1.485 2.873.457.296.97.445 1.483.445.512 0 1.023-.15 1.483-.445l13.35-8.62c.919-.593 1.485-1.689 1.485-2.874s-.566-2.28-1.484-2.873"/></defs><g><g transform="translate(-670 -1353)"><use fill="#3bb023" xlink:href="#db81a"/><use fill="#fff" fill-opacity="0" stroke="#fff" stroke-miterlimit="50" stroke-width="4" xlink:href="#db81a"/></g><g clip-path="url(#clip-5A12392E-CFF3-90FF-D931-C409A2C2230F)" transform="translate(-670 -1353)"><use fill="#fefefe" xlink:href="#db81b"/></g></g></svg>